<?xml version="1.0" encoding="UTF-8"?>
<!-- Generator: Adobe Illustrator 15.0.0, SVG Export Plug-In . SVG Version: 6.00 Build 0)  -->
<!DOCTYPE svg PUBLIC "-//W3C//DTD SVG 1.1//EN" "http://www.w3.org/Graphics/SVG/1.1/DTD/svg11.dtd">
<svg version="1.1" id="Layer_1" xmlns="http://www.w3.org/2000/svg" xmlns:xlink="http://www.w3.org/1999/xlink" x="0px" y="0px" width="304px" height="250px" viewBox="0 0 304 250" enable-background="new 0 0 304 250" xml:space="preserve">
<path fill="#7B838F" d="M181.93,146.408c0,3.408-2.767,6.175-6.175,6.175c-3.409,0-6.176-2.767-6.176-6.175  c0-3.409,2.767-6.174,6.176-6.174C179.163,140.234,181.93,142.999,181.93,146.408"/>
<path fill="#7B838F" d="M178.888,146.408c0,1.731-1.402,3.133-3.133,3.133c-1.731,0-3.133-1.401-3.133-3.133  c0-1.729,1.401-3.134,3.133-3.134C177.485,143.274,178.888,144.68,178.888,146.408"/>
<path fill="#7B838F" d="M199.949,139.588c0,3.408-2.766,6.173-6.175,6.173s-6.174-2.765-6.174-6.173  c0-3.411,2.765-6.174,6.174-6.174S199.949,136.177,199.949,139.588"/>
<path fill="#7B838F" d="M196.908,139.588c0,1.729-1.402,3.131-3.134,3.131s-3.132-1.402-3.132-3.131c0-1.732,1.4-3.135,3.132-3.135  S196.908,137.855,196.908,139.588"/>
<path fill="#7B838F" d="M217.97,132.766c0,3.409-2.766,6.176-6.174,6.176c-3.41,0-6.173-2.767-6.173-6.176  c0-3.408,2.763-6.174,6.173-6.174C215.204,126.592,217.97,129.357,217.97,132.766"/>
<path fill="#7B838F" d="M214.927,132.766c0,1.73-1.401,3.133-3.131,3.133c-1.731,0-3.133-1.402-3.133-3.133s1.401-3.133,3.133-3.133  C213.525,129.633,214.927,131.035,214.927,132.766"/>
<path fill="#7B838F" d="M235.99,125.944c0,3.41-2.763,6.175-6.175,6.175c-3.408,0-6.175-2.766-6.175-6.175  c0-3.409,2.767-6.174,6.175-6.174C233.228,119.77,235.99,122.535,235.99,125.944"/>
<path fill="#7B838F" d="M232.948,125.944c0,1.732-1.401,3.133-3.133,3.133c-1.729,0-3.132-1.401-3.132-3.133  c0-1.729,1.402-3.131,3.132-3.131C231.547,122.813,232.948,124.215,232.948,125.944"/>
<path fill="#7B838F" d="M254.011,119.123c0,3.41-2.764,6.172-6.175,6.172c-3.409,0-6.173-2.763-6.173-6.172  c0-3.411,2.764-6.174,6.173-6.174C251.247,112.949,254.011,115.712,254.011,119.123"/>
<path fill="#7B838F" d="M250.97,119.123c0,1.729-1.403,3.133-3.134,3.133c-1.729,0-3.132-1.404-3.132-3.133  c0-1.731,1.402-3.133,3.132-3.133C249.566,115.99,250.97,117.392,250.97,119.123"/>
<path fill="#7B838F" d="M61.021,109.292c-0.808,0-1.463-0.655-1.463-1.462V53.883c0-0.807,0.655-1.463,1.463-1.463  s1.461,0.656,1.461,1.463v53.947C62.481,108.638,61.828,109.292,61.021,109.292"/>
<path fill="#7B838F" d="M76.926,84.427c-0.276,0-0.556-0.078-0.8-0.237l-7.973-5.214l-5.825,4.559  c-0.637,0.497-1.555,0.384-2.054-0.25c-0.497-0.637-0.385-1.555,0.251-2.054l6.649-5.204c0.494-0.386,1.18-0.414,1.702-0.073  l7.87,5.148l20.604-19.949c0.285-0.278,0.667-0.432,1.066-0.413c0.398,0.016,0.773,0.191,1.038,0.485l14.263,15.882l5.831-2.623  c0.418-0.188,0.897-0.171,1.298,0.046l8.17,4.423c0.709,0.386,0.973,1.272,0.589,1.983c-0.385,0.709-1.273,0.975-1.983,0.589  l-7.531-4.081l-6.146,2.768c-0.582,0.261-1.264,0.118-1.688-0.356l-13.962-15.55L77.943,84.015  C77.662,84.287,77.295,84.427,76.926,84.427"/>
<path fill="#7B838F" d="M142.877,109.292H62.069c-0.81,0-1.463-0.655-1.463-1.462c0-0.807,0.653-1.463,1.463-1.463h80.808  c0.809,0,1.463,0.657,1.463,1.463C144.34,108.638,143.686,109.292,142.877,109.292"/>
<path fill="#7B838F" d="M122.978,109.292c-0.342,0-0.687-0.12-0.966-0.365c-0.604-0.531-0.664-1.456-0.131-2.062l12.25-13.94  c0.534-0.606,1.458-0.666,2.065-0.132c0.605,0.533,0.666,1.457,0.132,2.064l-12.25,13.939  C123.787,109.124,123.386,109.292,122.978,109.292"/>
<path fill="#7B838F" d="M108.763,109.292h-14.22c-0.574,0-1.094-0.335-1.332-0.86c-0.235-0.522-0.146-1.135,0.233-1.567  l27.321-31.087c0.451-0.511,1.196-0.646,1.796-0.32l5.569,3.02l5.489-4.706c0.612-0.526,1.538-0.455,2.063,0.158  c0.525,0.614,0.454,1.538-0.159,2.063l-1.166,0.997c0.419-0.067,0.86,0.043,1.202,0.345c0.606,0.535,0.666,1.457,0.134,2.065  l-25.835,29.396C109.582,109.11,109.182,109.292,108.763,109.292 M97.776,106.367H108.1l24.469-27.841l-3.296,2.827  c-0.461,0.394-1.116,0.465-1.649,0.174l-5.431-2.941L97.776,106.367z"/>
<path fill="#7B838F" d="M135.382,108.763c-0.808,0-1.462-0.655-1.462-1.463V74.115c0-0.807,0.654-1.462,1.462-1.462  c0.809,0,1.464,0.655,1.464,1.462V107.3C136.846,108.108,136.19,108.763,135.382,108.763"/>
<path fill="#7B838F" d="M80.325,109.292H66.109c-0.575,0-1.096-0.335-1.333-0.86c-0.236-0.522-0.146-1.135,0.233-1.567  l36.223-41.214c0.276-0.314,0.673-0.495,1.091-0.498h0.007c0.416,0,0.812,0.177,1.088,0.485l7.186,8.001  c0.495,0.551,0.499,1.386,0.012,1.943l-29.19,33.213C81.147,109.11,80.747,109.292,80.325,109.292 M69.341,106.367h10.323  l27.896-31.738l-5.216-5.812L69.341,106.367z"/>
<path fill="#7B838F" d="M61.275,98.615c-0.344,0-0.688-0.12-0.967-0.364c-0.605-0.531-0.665-1.458-0.132-2.063l12.518-14.243  l-4.541-2.969l-5.826,4.559c-0.636,0.499-1.555,0.386-2.052-0.251c-0.498-0.635-0.387-1.556,0.25-2.052l6.649-5.204  c0.494-0.388,1.178-0.416,1.702-0.073l6.83,4.465c0.354,0.232,0.591,0.606,0.647,1.027c0.057,0.42-0.071,0.844-0.351,1.162  l-13.63,15.509C62.083,98.446,61.681,98.615,61.275,98.615"/>
<path fill="#7B838F" d="M108.338,137.436c0.023,0.015,0.048,0.033,0.071,0.055c0,0,0.225,0.188,0.545,0.48  c0.314,0.305,0.738,0.703,1.149,1.115c0.396,0.426,0.803,0.844,1.088,1.172c0.283,0.332,0.473,0.553,0.473,0.553  c0.225,0.265,0.058,0.564-0.335,1.082c0,0-0.446,0.914-0.931,1.785c-0.24,0.436-0.485,0.863-0.675,1.182  c-0.195,0.316-0.324,0.527-0.324,0.527s0.112,0.164,0.281,0.406c0.168,0.241,0.396,0.563,0.598,0.902  c0.433,0.662,0.807,1.355,0.807,1.355s0.087,0.156,0.218,0.39c0.128,0.231,0.278,0.558,0.439,0.875  c0.166,0.315,0.309,0.642,0.414,0.888c0.107,0.244,0.179,0.407,0.179,0.407s0.999-0.007,1.992,0.052  c0.997,0.051,2.016,0.156,2.016,0.156c0.484-0.037,0.768-0.05,0.936,0.053c0.076,0.047,0.128,0.119,0.164,0.221  c0,0,0.088,0.277,0.225,0.691c0.135,0.412,0.28,0.978,0.435,1.536c0.144,0.563,0.262,1.131,0.36,1.554  c0.078,0.43,0.13,0.717,0.13,0.717c0.061,0.34-0.235,0.516-0.834,0.768c0,0-0.208,0.139-0.521,0.348  c-0.318,0.206-0.743,0.475-1.17,0.732c-0.855,0.52-1.72,0.982-1.72,0.982s0.017,0.197,0.039,0.49  c0.018,0.297,0.067,0.688,0.072,1.084c0.008,0.394,0.026,0.788,0.029,1.084c-0.007,0.295-0.01,0.49-0.01,0.49  s-0.004,0.18-0.009,0.447c0.004,0.267-0.029,0.623-0.052,0.979c-0.021,0.355-0.045,0.71-0.083,0.976  c-0.029,0.265-0.051,0.442-0.051,0.442s0.216,0.125,0.539,0.314c0.098,0.059,0.207,0.121,0.319,0.193  c0.263,0.158,0.558,0.342,0.846,0.532c0.838,0.543,1.663,1.142,1.663,1.142c0.214,0.102,0.385,0.185,0.514,0.265  c0.26,0.158,0.354,0.298,0.307,0.524c0,0-0.061,0.283-0.154,0.711c-0.084,0.428-0.24,0.988-0.392,1.549  c-0.142,0.567-0.344,1.113-0.472,1.531c-0.128,0.416-0.239,0.686-0.239,0.686c-0.121,0.324-0.467,0.33-1.113,0.244  c0,0-0.25,0.017-0.625,0.039c-0.374,0.023-0.869,0.044-1.374,0.053c-1.005,0.016-1.988-0.018-1.988-0.018s-0.074,0.183-0.201,0.449  c-0.133,0.264-0.311,0.617-0.485,0.971c-0.177,0.352-0.384,0.689-0.525,0.948c-0.145,0.258-0.244,0.428-0.244,0.428  s-0.38,0.603-0.763,1.204c-0.205,0.291-0.41,0.582-0.566,0.799c-0.077,0.109-0.14,0.199-0.187,0.264  c-0.047,0.063-0.073,0.099-0.073,0.099s0.493,0.851,0.951,1.747c0.229,0.445,0.454,0.902,0.613,1.247  c0.156,0.343,0.26,0.572,0.26,0.572c0.4,0.583,0.542,0.829,0.313,1.091c0.002,0-0.188,0.223-0.48,0.543  c-0.303,0.315-0.7,0.74-1.114,1.15c-0.427,0.395-0.843,0.801-1.173,1.088c-0.332,0.283-0.553,0.472-0.553,0.472  c-0.188,0.159-0.392,0.121-0.679-0.052c-0.117-0.072-0.251-0.168-0.4-0.281c0,0-0.918-0.449-1.788-0.932  c-0.435-0.24-0.863-0.488-1.181-0.676c-0.317-0.195-0.528-0.324-0.528-0.324s-0.161,0.111-0.405,0.281  c-0.242,0.168-0.563,0.397-0.902,0.6c-0.662,0.43-1.355,0.804-1.355,0.806c0,0-0.157,0.087-0.391,0.216  c-0.231,0.131-0.555,0.28-0.873,0.442c-0.316,0.163-0.642,0.306-0.888,0.412c-0.246,0.108-0.409,0.179-0.409,0.179  s0.008,1-0.051,1.992c-0.053,0.999-0.158,2.016-0.158,2.016c0.058,0.708,0.055,0.99-0.273,1.1c0,0-0.275,0.089-0.688,0.227  c-0.414,0.135-0.979,0.276-1.536,0.434c-0.564,0.145-1.133,0.262-1.557,0.36c-0.428,0.078-0.715,0.129-0.715,0.129  c-0.107,0.02-0.2,0.003-0.281-0.047c-0.179-0.109-0.316-0.377-0.485-0.786c0,0-0.141-0.209-0.349-0.521  c-0.208-0.319-0.477-0.745-0.734-1.173c-0.519-0.855-0.981-1.719-0.981-1.719s-0.197,0.016-0.49,0.039  c-0.297,0.018-0.688,0.069-1.081,0.07c-0.396,0.011-0.79,0.029-1.086,0.029c-0.296-0.005-0.492-0.01-0.492-0.01  s-0.178-0.002-0.446-0.007c-0.267,0.005-0.621-0.028-0.978-0.05s-0.712-0.048-0.978-0.083c-0.264-0.031-0.439-0.052-0.439-0.052  s-0.128,0.216-0.316,0.539c-0.19,0.324-0.454,0.75-0.726,1.164c-0.54,0.838-1.142,1.664-1.142,1.664  c-0.304,0.643-0.448,0.895-0.787,0.818c0,0-0.284-0.062-0.711-0.154c-0.431-0.082-0.989-0.242-1.552-0.392  c-0.564-0.14-1.11-0.343-1.527-0.471c-0.417-0.13-0.688-0.239-0.688-0.239c-0.029-0.01-0.057-0.022-0.079-0.037  c-0.246-0.148-0.243-0.488-0.166-1.076c0,0-0.016-0.248-0.04-0.623c-0.021-0.377-0.043-0.87-0.051-1.377  c-0.017-1.005,0.017-1.986,0.017-1.986s-0.182-0.076-0.449-0.202c-0.265-0.134-0.616-0.31-0.97-0.485  c-0.353-0.178-0.689-0.383-0.948-0.523c-0.258-0.146-0.43-0.244-0.43-0.244s-0.602-0.381-1.202-0.764  c-0.29-0.207-0.581-0.412-0.801-0.566c-0.108-0.076-0.199-0.142-0.263-0.186c-0.062-0.049-0.098-0.074-0.098-0.074  s-0.852,0.492-1.746,0.951c-0.447,0.229-0.905,0.451-1.248,0.613c-0.345,0.154-0.574,0.256-0.574,0.256  c-0.527,0.367-0.779,0.517-1.016,0.371c-0.024-0.014-0.048-0.032-0.073-0.055c0,0-0.224-0.186-0.545-0.48  c-0.313-0.305-0.738-0.701-1.146-1.115c-0.397-0.425-0.804-0.842-1.091-1.17c-0.283-0.332-0.471-0.553-0.471-0.553  c-0.226-0.268-0.059-0.565,0.332-1.084c0,0,0.449-0.913,0.932-1.783c0.241-0.438,0.488-0.865,0.677-1.182  c0.194-0.318,0.324-0.527,0.324-0.527s-0.112-0.164-0.281-0.407c-0.168-0.243-0.396-0.563-0.6-0.901  c-0.43-0.662-0.806-1.357-0.806-1.357s-0.086-0.154-0.217-0.389c-0.129-0.234-0.28-0.557-0.442-0.874  c-0.163-0.316-0.307-0.643-0.412-0.888c-0.106-0.245-0.179-0.407-0.179-0.407s-1,0.006-1.992-0.054  c-0.998-0.051-2.016-0.156-2.016-0.156c-0.483,0.038-0.769,0.05-0.935-0.051c-0.076-0.047-0.129-0.119-0.163-0.223  c0,0-0.092-0.276-0.227-0.691c-0.138-0.412-0.278-0.976-0.437-1.535c-0.142-0.563-0.262-1.132-0.356-1.557  c-0.08-0.426-0.131-0.713-0.131-0.713c-0.062-0.34,0.233-0.518,0.832-0.768c0,0,0.209-0.141,0.521-0.35  c0.319-0.205,0.746-0.474,1.173-0.732c0.856-0.519,1.718-0.983,1.718-0.983s-0.015-0.196-0.037-0.491  c-0.019-0.295-0.069-0.686-0.071-1.08c-0.012-0.395-0.029-0.788-0.029-1.084c0.006-0.296,0.01-0.494,0.01-0.494  s0.001-0.178,0.007-0.445c-0.003-0.266,0.029-0.621,0.051-0.977s0.047-0.713,0.083-0.978c0.031-0.265,0.052-0.44,0.052-0.44  s-0.217-0.127-0.539-0.316c-0.093-0.053-0.196-0.115-0.304-0.18c-0.267-0.164-0.565-0.352-0.861-0.545  c-0.837-0.542-1.662-1.141-1.662-1.141c-0.214-0.103-0.385-0.186-0.514-0.264c-0.261-0.159-0.358-0.299-0.307-0.525  c0,0,0.062-0.283,0.154-0.713c0.081-0.428,0.241-0.988,0.393-1.549c0.14-0.565,0.343-1.111,0.469-1.529  c0.132-0.414,0.24-0.686,0.24-0.686c0.123-0.325,0.467-0.328,1.112-0.247c0,0,0.25-0.014,0.626-0.038  c0.375-0.021,0.869-0.043,1.375-0.051c1.005-0.019,1.987,0.018,1.987,0.018s0.076-0.183,0.202-0.451  c0.133-0.264,0.309-0.617,0.485-0.969s0.382-0.69,0.526-0.949c0.145-0.257,0.24-0.429,0.24-0.429s0.383-0.601,0.764-1.202  c0.208-0.291,0.412-0.582,0.566-0.801c0.076-0.109,0.142-0.199,0.188-0.263c0.047-0.062,0.074-0.098,0.074-0.098  s-0.493-0.851-0.951-1.748c-0.229-0.445-0.453-0.903-0.613-1.248l-0.26-0.571c-0.4-0.582-0.543-0.83-0.314-1.09  c0,0,0.186-0.225,0.481-0.545c0.303-0.313,0.7-0.738,1.114-1.148c0.425-0.398,0.842-0.801,1.171-1.088  c0.332-0.285,0.553-0.473,0.553-0.473c0.189-0.16,0.395-0.123,0.679,0.052c0.12,0.073,0.253,0.167,0.403,0.282  c0,0,0.914,0.447,1.785,0.931c0.438,0.239,0.863,0.487,1.181,0.675c0.318,0.197,0.53,0.324,0.53,0.324s0.162-0.111,0.404-0.278  c0.244-0.171,0.564-0.4,0.902-0.601c0.662-0.43,1.356-0.806,1.356-0.806s0.154-0.087,0.388-0.218  c0.234-0.129,0.559-0.279,0.876-0.441c0.315-0.162,0.642-0.307,0.887-0.412c0.245-0.107,0.408-0.18,0.408-0.18  s-0.008-0.999,0.053-1.992c0.051-0.998,0.155-2.014,0.155-2.014c-0.056-0.709-0.054-0.99,0.274-1.1c0,0,0.278-0.09,0.691-0.227  c0.414-0.137,0.977-0.279,1.535-0.436c0.563-0.143,1.132-0.262,1.555-0.357c0.431-0.078,0.715-0.133,0.715-0.133  c0.109-0.017,0.2-0.001,0.281,0.049c0.181,0.109,0.315,0.376,0.489,0.787c0,0,0.136,0.209,0.347,0.521  c0.205,0.318,0.474,0.744,0.732,1.171c0.52,0.855,0.982,1.719,0.982,1.719s0.195-0.016,0.492-0.038  c0.293-0.018,0.686-0.069,1.082-0.071c0.393-0.011,0.787-0.028,1.083-0.028c0.295,0.004,0.494,0.007,0.494,0.007  s0.177,0.004,0.443,0.01c0.266-0.004,0.623,0.029,0.979,0.051s0.71,0.045,0.976,0.083c0.266,0.031,0.443,0.052,0.443,0.052  s0.125-0.217,0.313-0.539c0.192-0.326,0.454-0.75,0.725-1.166c0.544-0.836,1.143-1.663,1.143-1.663  c0.307-0.643,0.45-0.896,0.789-0.818c0,0,0.284,0.062,0.711,0.151c0.429,0.084,0.989,0.244,1.55,0.396  c0.565,0.14,1.113,0.343,1.53,0.47c0.417,0.131,0.686,0.24,0.686,0.24c0.031,0.01,0.055,0.022,0.081,0.037  c0.244,0.148,0.239,0.486,0.165,1.074c0,0,0.015,0.25,0.038,0.625c0.021,0.374,0.047,0.87,0.051,1.376  c0.018,1.004-0.016,1.987-0.016,1.987s0.183,0.074,0.449,0.202c0.264,0.132,0.617,0.31,0.97,0.485  c0.352,0.176,0.688,0.383,0.948,0.523c0.257,0.145,0.43,0.244,0.43,0.244s0.602,0.381,1.202,0.764  c0.292,0.205,0.581,0.412,0.8,0.565c0.109,0.076,0.199,0.142,0.263,0.185c0.063,0.047,0.098,0.076,0.098,0.076  s0.852-0.492,1.748-0.949c0.446-0.23,0.905-0.455,1.248-0.615c0.343-0.154,0.571-0.26,0.571-0.26  C107.847,137.441,108.1,137.291,108.338,137.436 M76.09,180.291c0,0,0.16,0.09,0.439,0.246c0.14,0.08,0.309,0.176,0.503,0.285  c0.196,0.107,0.424,0.213,0.667,0.338c0.981,0.49,2.335,1.052,3.739,1.447c1.403,0.403,2.847,0.652,3.937,0.75  c0.544,0.047,0.999,0.073,1.318,0.09c0.32,0.004,0.503,0.008,0.503,0.008s0.182,0.004,0.501,0.01  c0.318-0.02,0.776-0.012,1.324-0.056c1.094-0.062,2.55-0.259,3.969-0.62c1.419-0.353,2.796-0.864,3.789-1.326  c0.504-0.22,0.902-0.443,1.192-0.576c0.277-0.157,0.437-0.247,0.437-0.247s0.16-0.089,0.439-0.241  c0.273-0.166,0.662-0.406,1.121-0.705c0.916-0.6,2.069-1.5,3.116-2.518c1.05-1.012,1.975-2.148,2.61-3.042  c0.156-0.225,0.31-0.427,0.431-0.612c0.12-0.189,0.222-0.355,0.309-0.488c0.171-0.271,0.272-0.428,0.272-0.428  s0.088-0.158,0.244-0.438c0.079-0.141,0.176-0.309,0.287-0.502c0.105-0.197,0.212-0.426,0.335-0.67  c0.491-0.98,1.055-2.333,1.449-3.738c0.403-1.403,0.651-2.846,0.749-3.936c0.047-0.545,0.076-1,0.091-1.318  c0.005-0.32,0.008-0.503,0.008-0.503s0.002-0.183,0.008-0.501c-0.019-0.32-0.009-0.776-0.055-1.324  c-0.062-1.093-0.259-2.548-0.619-3.966c-0.354-1.421-0.865-2.798-1.328-3.792c-0.22-0.502-0.44-0.902-0.576-1.191  c-0.154-0.279-0.246-0.438-0.246-0.438s-0.088-0.16-0.242-0.44c-0.165-0.273-0.402-0.661-0.702-1.118  c-0.6-0.917-1.503-2.071-2.519-3.115c-1.012-1.054-2.147-1.979-3.043-2.613c-0.225-0.156-0.426-0.308-0.611-0.43  c-0.19-0.12-0.354-0.224-0.49-0.308c-0.271-0.174-0.424-0.271-0.424-0.271s-0.16-0.091-0.439-0.247  c-0.141-0.079-0.31-0.177-0.504-0.287c-0.197-0.104-0.424-0.212-0.668-0.335c-0.982-0.49-2.334-1.053-3.739-1.45  c-1.401-0.401-2.844-0.651-3.934-0.747c-0.546-0.047-1.002-0.074-1.32-0.09c-0.319-0.006-0.502-0.008-0.502-0.008  s-0.183-0.004-0.502-0.01c-0.319,0.019-0.777,0.01-1.323,0.055c-1.094,0.062-2.549,0.26-3.968,0.618  c-1.421,0.354-2.798,0.865-3.791,1.329c-0.502,0.22-0.901,0.442-1.19,0.576c-0.28,0.156-0.438,0.244-0.438,0.244  s-0.161,0.092-0.438,0.245c-0.274,0.165-0.664,0.403-1.121,0.701c-0.917,0.601-2.07,1.503-3.115,2.519  c-1.052,1.014-1.979,2.148-2.612,3.043c-0.157,0.225-0.309,0.426-0.432,0.611c-0.117,0.191-0.221,0.354-0.308,0.49  c-0.173,0.27-0.271,0.426-0.271,0.426s-0.089,0.158-0.247,0.438c-0.078,0.141-0.173,0.311-0.284,0.504  c-0.107,0.197-0.213,0.423-0.338,0.668c-0.487,0.981-1.053,2.332-1.448,3.739c-0.402,1.401-0.653,2.847-0.748,3.935  c-0.048,0.546-0.075,1.002-0.092,1.32c-0.003,0.32-0.007,0.503-0.007,0.503s-0.004,0.181-0.01,0.501  c0.019,0.318,0.011,0.776,0.055,1.322c0.062,1.095,0.26,2.549,0.621,3.969c0.352,1.42,0.862,2.797,1.326,3.789  c0.22,0.502,0.442,0.902,0.577,1.193c0.155,0.278,0.244,0.438,0.244,0.438s0.09,0.16,0.246,0.438c0.162,0.273,0.402,0.665,0.7,1.122  c0.6,0.917,1.502,2.069,2.518,3.115c1.013,1.052,2.148,1.977,3.043,2.612c0.226,0.156,0.426,0.307,0.613,0.43  c0.189,0.119,0.354,0.224,0.488,0.311C75.934,180.192,76.09,180.291,76.09,180.291 M109.835,134.975L109.835,134.975  c-1.66-1.01-3.18-0.185-3.925,0.309l-0.35,0.157l-0.018,0.009l-0.014,0.006c-0.396,0.186-0.887,0.426-1.345,0.66  c-0.084,0.043-0.166,0.086-0.249,0.129l-1.002-0.637l-0.063-0.039l-0.063-0.037l-0.432-0.244l-0.018-0.01l-0.019-0.009  c-0.073-0.04-0.154-0.089-0.241-0.138c-0.175-0.099-0.379-0.217-0.605-0.336c-0.002-0.082-0.002-0.162-0.004-0.243  c-0.006-0.45-0.024-0.952-0.055-1.491v-0.011l-0.002-0.009l-0.021-0.367c0.087-0.862,0.104-2.601-1.559-3.613  c-0.17-0.102-0.347-0.189-0.532-0.26c-0.053-0.023-0.134-0.055-0.241-0.094l-2.022-0.762l-0.06,0.097  c-0.07-0.019-0.143-0.039-0.213-0.057l-0.264-0.071c-0.504-0.137-0.983-0.266-1.431-0.354l-0.677-0.146  c-1.194-0.262-2.388,0.135-3.195,1.063c-0.299,0.345-0.501,0.702-0.692,1.092c-0.24,0.336-0.667,0.944-1.071,1.57  c-0.053,0.08-0.106,0.164-0.16,0.246c-0.275-0.02-0.561-0.038-0.845-0.038l-0.412-0.007l-0.493-0.01h-0.03h-0.029  c-0.232,0.003-0.485,0.01-0.753,0.019c-0.092,0.005-0.188,0.007-0.284,0.01c-0.044-0.073-0.086-0.147-0.132-0.22  c-0.324-0.543-0.628-1.014-0.778-1.247l-0.011-0.016l-0.011-0.015l-0.2-0.301c-0.244-0.553-0.673-1.346-1.532-1.867  c-0.677-0.414-1.487-0.564-2.28-0.425l-0.007,0.002l-0.007,0.001l-0.715,0.131l-0.064,0.012l-0.063,0.014  c-0.12,0.027-0.251,0.057-0.392,0.088c-0.37,0.083-0.79,0.176-1.226,0.286l-0.038,0.009l-0.037,0.012  c-0.169,0.047-0.339,0.092-0.505,0.137c-0.408,0.113-0.798,0.219-1.153,0.336l-0.685,0.223l-0.006,0.004l-0.01,0.002  c-1.137,0.381-1.956,1.313-2.192,2.489c-0.091,0.454-0.089,0.87-0.06,1.306c-0.036,0.384-0.104,1.139-0.142,1.893  c-0.005,0.099-0.011,0.197-0.016,0.292c-0.022,0.014-0.046,0.024-0.067,0.035c-0.223,0.109-0.452,0.222-0.668,0.343l-0.376,0.21  c-0.072,0.04-0.197,0.108-0.358,0.2l-1.051,0.587c-0.061-0.034-0.123-0.069-0.186-0.104c-0.649-0.361-1.314-0.697-1.663-0.872  c-0.127-0.091-0.267-0.188-0.414-0.276c-1.628-0.99-3.155-0.54-4.04,0.213l-0.56,0.476l-0.009,0.009l-0.008,0.007  c-0.277,0.242-0.572,0.521-0.885,0.817c-0.122,0.112-0.243,0.229-0.366,0.344l-0.029,0.027l-0.029,0.027  c-0.321,0.319-0.618,0.631-0.882,0.905c-0.1,0.104-0.192,0.2-0.275,0.287l-0.029,0.028l-0.027,0.029  c-0.295,0.324-0.496,0.559-0.55,0.623c-0.768,0.896-0.996,2.102-0.611,3.228c0.148,0.43,0.355,0.783,0.597,1.146l0.157,0.346  l0.007,0.016l0.007,0.016c0.186,0.395,0.426,0.886,0.662,1.344c0.041,0.085,0.085,0.168,0.128,0.25l-0.638,1l-0.039,0.064  l-0.037,0.063l-0.243,0.432l-0.009,0.019l-0.011,0.018c-0.04,0.074-0.088,0.154-0.138,0.24c-0.099,0.176-0.217,0.379-0.337,0.607  c-0.079,0-0.158,0-0.241,0.004c-0.462,0.005-0.967,0.025-1.495,0.054l-0.009,0.003h-0.007l-0.369,0.021  c-0.416-0.042-0.855-0.057-1.315,0.021c-1.179,0.202-2.132,0.974-2.556,2.067c-0.022,0.053-0.056,0.139-0.095,0.25l-0.762,2.017  l0.097,0.06c-0.019,0.068-0.036,0.141-0.055,0.212l-0.071,0.263c-0.138,0.505-0.267,0.983-0.355,1.434l-0.147,0.676  c-0.243,1.115,0.055,2.645,1.624,3.6c0.175,0.106,0.355,0.201,0.531,0.289c0.316,0.225,0.935,0.658,1.568,1.068  c0.082,0.053,0.166,0.108,0.248,0.16c-0.017,0.275-0.038,0.561-0.036,0.846l-0.009,0.41l-0.008,0.496l-0.001,0.03l0.001,0.029  c0,0.231,0.008,0.485,0.017,0.751c0.004,0.092,0.007,0.188,0.009,0.284c-0.072,0.044-0.146,0.087-0.219,0.134  c-0.543,0.327-1.015,0.627-1.244,0.778l-0.018,0.011l-0.016,0.01l-0.306,0.203c-0.38,0.173-0.771,0.382-1.13,0.681  c-0.933,0.782-1.364,1.95-1.155,3.13l0.133,0.73l0.01,0.062l0.015,0.062c0.027,0.117,0.057,0.248,0.088,0.386  c0.081,0.372,0.175,0.796,0.286,1.234l0.01,0.038l0.01,0.037c0.048,0.17,0.095,0.34,0.141,0.506c0.109,0.41,0.217,0.797,0.333,1.15  l0.224,0.684l0.004,0.009l0.001,0.01c0.254,0.754,0.737,1.366,1.399,1.771c0.857,0.521,1.741,0.523,2.398,0.481  c0.394,0.038,1.14,0.103,1.891,0.14c0.098,0.007,0.195,0.012,0.295,0.018c0.01,0.023,0.022,0.049,0.035,0.072  c0.106,0.22,0.219,0.449,0.34,0.662l0.209,0.375c0.032,0.061,0.103,0.189,0.2,0.36l0.176,0.315l0.01,0.005  c0.124,0.212,0.269,0.448,0.423,0.69c-0.042,0.071-0.082,0.146-0.124,0.223c-0.356,0.643-0.69,1.3-0.874,1.667  c-0.244,0.341-0.479,0.718-0.639,1.159c-0.417,1.148-0.201,2.378,0.574,3.294l0.479,0.559l0.007,0.01l0.007,0.007  c0.242,0.28,0.521,0.576,0.818,0.889c0.112,0.119,0.229,0.241,0.344,0.365l0.027,0.029l0.029,0.027  c0.312,0.316,0.618,0.607,0.89,0.868c0.107,0.104,0.209,0.2,0.3,0.289l0.029,0.029l0.031,0.026c0.322,0.296,0.561,0.5,0.62,0.551  c0.142,0.119,0.29,0.229,0.444,0.321c1.662,1.011,3.179,0.186,3.926-0.306l0.351-0.16l0.014-0.004l0.014-0.008  c0.387-0.181,0.876-0.419,1.344-0.661c0.085-0.042,0.17-0.085,0.251-0.128l1.003,0.637l0.063,0.039l0.063,0.035l0.43,0.244  l0.021,0.012l0.02,0.009c0.074,0.042,0.155,0.089,0.244,0.14c0.171,0.098,0.377,0.216,0.602,0.334  c0.002,0.083,0.004,0.167,0.004,0.25c0.007,0.451,0.024,0.954,0.054,1.486l0.002,0.009v0.007l0.024,0.367  c-0.088,0.863-0.106,2.603,1.558,3.614c0.165,0.099,0.343,0.188,0.526,0.259c0.105,0.043,0.428,0.168,0.882,0.308l0.007,0.002  l0.008,0.003c0.116,0.034,0.243,0.078,0.379,0.122c0.353,0.117,0.79,0.261,1.265,0.382l0.272,0.072  c0.503,0.138,0.978,0.265,1.423,0.353l0.684,0.148c1.19,0.259,2.383-0.139,3.188-1.064c0.3-0.346,0.504-0.703,0.696-1.094  c0.25-0.355,0.671-0.953,1.067-1.567c0.053-0.08,0.107-0.164,0.162-0.248c0.276,0.02,0.561,0.038,0.846,0.038l0.414,0.007  l0.487,0.01l0.028,0.001h0.029c0.235-0.001,0.488-0.009,0.755-0.019c0.095-0.004,0.188-0.008,0.285-0.01  c0.043,0.072,0.087,0.148,0.133,0.221c0.24,0.399,0.524,0.856,0.778,1.246l0.011,0.014l0.011,0.018l0.2,0.302  c0.246,0.55,0.674,1.343,1.532,1.866c0.679,0.413,1.488,0.562,2.278,0.422h0.011l0.007-0.002l0.713-0.13l0.063-0.01l0.063-0.016  c0.118-0.027,0.247-0.056,0.384-0.085c0.373-0.084,0.796-0.179,1.239-0.289l0.034-0.009l0.036-0.011  c0.169-0.048,0.338-0.093,0.501-0.139c0.412-0.112,0.802-0.217,1.158-0.335l0.684-0.224l0.006-0.003l0.01-0.002  c1.136-0.381,1.956-1.312,2.194-2.491c0.091-0.451,0.087-0.868,0.058-1.303c0.037-0.385,0.104-1.137,0.144-1.895  c0.006-0.098,0.011-0.196,0.015-0.295c0.024-0.009,0.045-0.021,0.069-0.031c0.221-0.108,0.45-0.222,0.663-0.342l0.381-0.212  c0.076-0.042,0.214-0.118,0.389-0.219l1.017-0.565c0.063,0.033,0.125,0.067,0.185,0.1c0.652,0.362,1.318,0.701,1.667,0.875  c0.126,0.092,0.268,0.188,0.414,0.276c1.628,0.991,3.154,0.539,4.038-0.213l0.559-0.478l0.01-0.008l0.011-0.006  c0.276-0.241,0.572-0.521,0.884-0.816c0.12-0.112,0.244-0.23,0.366-0.346l0.03-0.025l0.027-0.028  c0.319-0.315,0.616-0.626,0.878-0.899c0.1-0.105,0.194-0.203,0.281-0.293l0.027-0.029l0.026-0.029  c0.18-0.197,0.361-0.395,0.526-0.602l0.004,0.004c0.783-0.9,1.02-2.113,0.632-3.25c-0.148-0.432-0.356-0.785-0.597-1.146  l-0.157-0.35l-0.007-0.014l-0.008-0.014c-0.181-0.391-0.422-0.881-0.66-1.344c-0.042-0.084-0.085-0.168-0.129-0.25l0.638-1.001  l0.039-0.063l0.038-0.065l0.242-0.429l0.008-0.018l0.012-0.02c0.04-0.074,0.087-0.155,0.138-0.242  c0.099-0.172,0.219-0.379,0.338-0.605c0.077-0.003,0.157-0.003,0.239-0.004c0.448-0.005,0.951-0.023,1.493-0.055h0.009l0.011-0.002  l0.368-0.023c0.416,0.044,0.855,0.059,1.316-0.021c1.175-0.2,2.128-0.97,2.555-2.063c0.041-0.105,0.166-0.43,0.308-0.883  c0.041-0.129,0.082-0.256,0.127-0.391c0.116-0.354,0.262-0.792,0.381-1.27l0.075-0.277c0.136-0.498,0.263-0.971,0.351-1.414  l0.148-0.682c0.244-1.106-0.051-2.639-1.624-3.596c-0.175-0.108-0.355-0.202-0.533-0.291c-0.316-0.225-0.935-0.658-1.566-1.068  c-0.082-0.053-0.164-0.107-0.25-0.162c0.021-0.275,0.037-0.559,0.037-0.844l0.009-0.414l0.009-0.488V161.1v-0.031  c0-0.232-0.009-0.488-0.019-0.756c-0.004-0.094-0.006-0.186-0.009-0.279c0.072-0.044,0.147-0.088,0.219-0.133  c0.536-0.32,1.012-0.625,1.246-0.778l0.017-0.011l0.015-0.012l0.307-0.202c0.381-0.173,0.771-0.382,1.129-0.681  c0.933-0.78,1.364-1.949,1.157-3.127l-0.001-0.01l-0.002-0.008l-0.129-0.715l-0.012-0.062l-0.016-0.064  c-0.027-0.12-0.057-0.251-0.087-0.392c-0.082-0.369-0.177-0.789-0.287-1.227l-0.009-0.037l-0.011-0.037  c-0.047-0.17-0.093-0.337-0.138-0.502c-0.113-0.414-0.218-0.801-0.337-1.156l-0.223-0.684l-0.004-0.01l-0.002-0.007  c-0.251-0.755-0.733-1.366-1.398-1.771c-0.857-0.523-1.742-0.524-2.396-0.479c-0.384-0.037-1.136-0.104-1.89-0.143  c-0.1-0.006-0.199-0.01-0.295-0.016c-0.011-0.021-0.021-0.046-0.032-0.067c-0.111-0.222-0.224-0.452-0.343-0.668l-0.212-0.378  c-0.042-0.078-0.122-0.224-0.228-0.406l-0.149-0.267l-0.009-0.005c-0.123-0.211-0.268-0.449-0.421-0.691  c0.041-0.074,0.084-0.148,0.123-0.221c0.351-0.635,0.681-1.281,0.873-1.668c0.245-0.34,0.479-0.717,0.641-1.16  c0.415-1.146,0.2-2.379-0.577-3.292l-0.475-0.558l-0.008-0.011l-0.01-0.009c-0.24-0.278-0.52-0.571-0.816-0.886  c-0.111-0.12-0.229-0.243-0.344-0.366l-0.026-0.029l-0.028-0.027c-0.317-0.32-0.63-0.621-0.906-0.882  c-0.103-0.1-0.198-0.192-0.287-0.277l-0.026-0.027l-0.032-0.028c-0.319-0.291-0.554-0.492-0.617-0.547  C110.142,135.18,109.991,135.07,109.835,134.975 M96.687,143.98l0.476,0.269l0.379,0.214l0.357,0.229l0.272,0.17l0.2,0.129  c0.077,0.052,0.16,0.109,0.246,0.172c0.088,0.063,0.181,0.129,0.274,0.195c0.914,0.65,1.871,1.47,2.626,2.254  c0.804,0.827,1.616,1.831,2.182,2.694c0.266,0.407,0.479,0.755,0.62,0.986l0.221,0.396l0.199,0.36  c0.05,0.106,0.109,0.221,0.172,0.349c0.109,0.211,0.222,0.433,0.326,0.672l0.014,0.032l0.015,0.031  c0.444,0.957,0.873,2.18,1.144,3.27l0.001,0.007l0.002,0.008c0.277,1.092,0.478,2.371,0.537,3.423l0.002,0.034l0.001,0.034  c0.021,0.263,0.028,0.51,0.033,0.749c0.003,0.141,0.009,0.27,0.012,0.387l-0.009,0.408l-0.007,0.459  c-0.012,0.26-0.036,0.662-0.079,1.164c-0.091,1.022-0.333,2.293-0.647,3.391c-0.298,1.057-0.753,2.231-1.252,3.236  c-0.056,0.104-0.104,0.207-0.152,0.305c-0.047,0.096-0.091,0.184-0.135,0.267l-0.268,0.472l-0.004,0.006l-0.004,0.008l-0.207,0.369  l-0.228,0.356l-0.003,0.007l-0.004,0.006l-0.104,0.161l-0.186,0.298c-0.055,0.078-0.111,0.158-0.173,0.243  c-0.064,0.091-0.131,0.183-0.199,0.282c-0.648,0.913-1.47,1.867-2.252,2.62l-0.004,0.007l-0.006,0.004  c-0.818,0.797-1.821,1.607-2.686,2.174c-0.409,0.268-0.756,0.479-0.985,0.617l-0.398,0.221l-0.357,0.202  c-0.105,0.051-0.222,0.109-0.347,0.172c-0.214,0.108-0.436,0.22-0.675,0.325l-0.033,0.015l-0.03,0.015  c-0.956,0.445-2.178,0.873-3.27,1.144l-0.009,0.001l-0.007,0.002c-1.088,0.275-2.366,0.478-3.421,0.535l-0.033,0.002l-0.035,0.003  c-0.259,0.021-0.506,0.026-0.746,0.033c-0.141,0.002-0.273,0.005-0.391,0.013l-0.408-0.01l-0.457-0.006  c-0.269-0.013-0.676-0.039-1.165-0.08c-1.023-0.09-2.294-0.334-3.391-0.647c-1.061-0.3-2.234-0.755-3.237-1.253  c-0.102-0.053-0.202-0.101-0.298-0.148c-0.097-0.049-0.188-0.094-0.273-0.137l-0.307-0.176l-0.169-0.096l-0.38-0.213l-0.354-0.227  l-0.475-0.3c-0.077-0.052-0.161-0.11-0.248-0.175c-0.088-0.063-0.178-0.125-0.271-0.192c-0.917-0.649-1.872-1.472-2.626-2.252  c-0.803-0.827-1.616-1.832-2.185-2.697c-0.211-0.327-0.421-0.659-0.618-0.985l-0.22-0.398l-0.201-0.359  c-0.052-0.104-0.108-0.219-0.173-0.344c-0.108-0.215-0.219-0.436-0.324-0.676l-0.015-0.031l-0.014-0.031  c-0.445-0.957-0.873-2.18-1.145-3.271c-0.279-1.102-0.479-2.379-0.538-3.435l-0.002-0.035l-0.004-0.034  c-0.021-0.262-0.026-0.51-0.032-0.749c-0.002-0.141-0.006-0.269-0.011-0.386l0.007-0.402l0.007-0.463  c0.021-0.381,0.049-0.772,0.083-1.166c0.088-1.025,0.331-2.295,0.646-3.391c0.299-1.059,0.756-2.232,1.254-3.238  c0.052-0.104,0.103-0.207,0.152-0.303c0.045-0.096,0.088-0.186,0.132-0.268l0.271-0.475l0.213-0.381l0.228-0.356l0.174-0.272  l0.124-0.199c0.053-0.078,0.111-0.16,0.175-0.247c0.062-0.087,0.127-0.179,0.193-0.274c0.65-0.915,1.471-1.871,2.254-2.624  l0.005-0.004l0.004-0.005c0.818-0.797,1.822-1.609,2.688-2.176c0.324-0.213,0.666-0.426,0.985-0.617l0.398-0.223l0.358-0.198  c0.103-0.052,0.22-0.109,0.345-0.173c0.214-0.109,0.436-0.219,0.675-0.326l0.033-0.014l0.031-0.014  c0.956-0.445,2.178-0.873,3.269-1.144c1.104-0.28,2.384-0.48,3.437-0.54h0.034l0.034-0.005c0.264-0.022,0.51-0.026,0.749-0.032  c0.14-0.004,0.27-0.008,0.388-0.01l0.405,0.006l0.46,0.007c0.269,0.014,0.676,0.038,1.166,0.08c1.024,0.092,2.294,0.334,3.387,0.647  c1.061,0.299,2.235,0.753,3.24,1.252c0.104,0.056,0.205,0.105,0.305,0.153C96.515,143.894,96.605,143.938,96.687,143.98"/>
<path fill="#7B838F" d="M141.697,177.143c0.019,0.012,0.036,0.025,0.055,0.039c0,0,0.19,0.157,0.477,0.393  c0.071,0.059,0.149,0.121,0.228,0.193c0.077,0.074,0.156,0.152,0.24,0.234c0.163,0.162,0.339,0.339,0.513,0.513  c0.36,0.339,0.657,0.734,0.895,1.02c0.232,0.289,0.388,0.48,0.388,0.48c0.173,0.238,0.015,0.481-0.337,0.879  c0,0-0.413,0.722-0.87,1.376c-0.229,0.334-0.458,0.647-0.653,0.887c-0.191,0.232-0.319,0.389-0.319,0.389s0.069,0.133,0.173,0.331  c0.099,0.198,0.261,0.454,0.357,0.737c0.111,0.275,0.224,0.551,0.308,0.76c0.045,0.102,0.066,0.192,0.085,0.256  c0.018,0.062,0.029,0.098,0.029,0.098s0.036,0.131,0.092,0.324c0.029,0.096,0.063,0.209,0.097,0.329  c0.036,0.122,0.077,0.25,0.096,0.386c0.049,0.265,0.099,0.529,0.135,0.727c0.019,0.101,0.032,0.182,0.043,0.239  c0.01,0.058,0.012,0.094,0.012,0.094s0.759,0.193,1.529,0.467c0.385,0.136,0.77,0.287,1.058,0.407  c0.29,0.119,0.469,0.207,0.472,0.207c0.281,0.072,0.475,0.127,0.601,0.201c0.12,0.075,0.173,0.166,0.171,0.313  c0,0-0.004,0.246-0.01,0.615c0.003,0.186-0.02,0.4-0.043,0.631c-0.027,0.23-0.053,0.475-0.08,0.72  c-0.015,0.122-0.029,0.245-0.044,0.365c-0.023,0.119-0.045,0.235-0.066,0.351c-0.047,0.225-0.091,0.436-0.127,0.616  c-0.04,0.182-0.071,0.332-0.095,0.438c-0.02,0.104-0.042,0.162-0.042,0.162c-0.085,0.283-0.366,0.314-0.896,0.289  c-0.001,0-0.817,0.129-1.612,0.182c-0.395,0.031-0.813,0.036-1.111,0.038c-0.301-0.004-0.5-0.006-0.5-0.006  s-0.059,0.138-0.144,0.345c-0.046,0.103-0.086,0.228-0.154,0.349c-0.067,0.124-0.136,0.256-0.206,0.387  c-0.146,0.261-0.27,0.534-0.403,0.713c-0.124,0.186-0.207,0.31-0.207,0.31s-0.074,0.112-0.187,0.28  c-0.104,0.174-0.279,0.379-0.45,0.586c-0.175,0.207-0.336,0.422-0.474,0.567c-0.145,0.145-0.24,0.238-0.24,0.238  s0.331,0.723,0.602,1.5c0.141,0.393,0.254,0.778,0.334,1.073c0.076,0.297,0.128,0.495,0.128,0.495  c0.237,0.522,0.314,0.743,0.086,0.931c0,0-0.048,0.038-0.133,0.107c-0.084,0.063-0.198,0.171-0.354,0.27  c-0.305,0.207-0.716,0.479-1.128,0.749c-0.422,0.248-0.866,0.467-1.191,0.64c-0.324,0.177-0.556,0.263-0.556,0.263  c-0.121,0.049-0.229,0.038-0.338-0.028c-0.135-0.082-0.273-0.251-0.447-0.49c0,0-0.609-0.556-1.147-1.142  c-0.552-0.604-1.03-1.241-1.03-1.241s-0.145,0.04-0.358,0.104c-0.212,0.072-0.508,0.12-0.801,0.175  c-0.292,0.048-0.584,0.12-0.809,0.129c-0.224,0.018-0.37,0.03-0.37,0.03s-0.134,0.013-0.336,0.029  c-0.2,0.026-0.469,0.015-0.739,0.012c-0.269-0.007-0.54,0.005-0.741-0.018c-0.199-0.022-0.334-0.036-0.334-0.036  s-0.358,0.707-0.799,1.406c-0.218,0.356-0.446,0.675-0.626,0.925c-0.186,0.247-0.308,0.412-0.308,0.412  c-0.261,0.513-0.387,0.714-0.674,0.651c0,0-0.061-0.012-0.167-0.036c-0.105-0.02-0.253-0.059-0.43-0.113  c-0.351-0.111-0.829-0.245-1.291-0.412c-0.456-0.186-0.911-0.378-1.25-0.523c-0.327-0.173-0.547-0.286-0.547-0.286  c-0.007-0.004-0.017-0.009-0.021-0.014c-0.237-0.144-0.204-0.42-0.068-0.914c0,0,0.046-0.807,0.186-1.62  c0.126-0.805,0.321-1.57,0.321-1.57s-0.031-0.021-0.086-0.058c-0.053-0.038-0.136-0.081-0.222-0.156  c-0.171-0.142-0.402-0.329-0.633-0.519c-0.239-0.181-0.436-0.405-0.597-0.559c-0.159-0.158-0.263-0.266-0.263-0.266  s-0.025-0.022-0.068-0.064c-0.039-0.045-0.104-0.097-0.165-0.178c-0.129-0.156-0.3-0.365-0.469-0.573  c-0.084-0.104-0.173-0.207-0.248-0.306c-0.069-0.108-0.135-0.204-0.19-0.29c-0.11-0.168-0.184-0.28-0.184-0.28  s-0.199,0.037-0.496,0.094c-0.294,0.052-0.708,0.12-1.105,0.161c-0.795,0.088-1.626,0.104-1.626,0.104  c-0.417,0.086-0.652,0.122-0.801,0.032c-0.054-0.031-0.097-0.082-0.131-0.149c0,0-0.029-0.054-0.079-0.15  c-0.045-0.099-0.101-0.241-0.172-0.413c-0.068-0.171-0.148-0.372-0.235-0.586c-0.082-0.216-0.187-0.442-0.248-0.681  c-0.143-0.474-0.28-0.949-0.375-1.306c-0.07-0.366-0.116-0.606-0.116-0.606c-0.054-0.293,0.185-0.441,0.67-0.648  c0,0,0.66-0.469,1.383-0.865c0.711-0.404,1.429-0.726,1.429-0.726s-0.003-0.038-0.008-0.102c-0.002-0.065-0.022-0.157-0.014-0.271  c0.001-0.224,0.004-0.521,0.008-0.82c0.003-0.074,0.003-0.149,0.004-0.223c0.004-0.072,0.015-0.143,0.021-0.212  c0.015-0.14,0.029-0.27,0.041-0.382c0.024-0.221,0.041-0.368,0.041-0.368s0.004-0.035,0.009-0.093  c0.004-0.061,0.019-0.141,0.04-0.241c0.042-0.197,0.097-0.461,0.15-0.724c0.043-0.267,0.141-0.521,0.194-0.716  c0.061-0.191,0.1-0.321,0.1-0.321s-0.153-0.131-0.384-0.328c-0.235-0.201-0.521-0.473-0.805-0.758  c-0.568-0.569-1.104-1.211-1.104-1.211c-0.441-0.367-0.625-0.543-0.487-0.801c0,0,0.114-0.218,0.289-0.548  c0.086-0.162,0.19-0.351,0.301-0.554c0.112-0.201,0.258-0.403,0.392-0.61c0.136-0.204,0.273-0.409,0.404-0.603  c0.123-0.195,0.272-0.354,0.385-0.501c0.236-0.287,0.392-0.478,0.392-0.478c0.19-0.226,0.449-0.141,0.92,0.117  c0,0,0.8,0.244,1.549,0.55c0.374,0.148,0.737,0.31,1.004,0.437c0.269,0.126,0.445,0.215,0.445,0.215s0.461-0.375,0.923-0.75  c0.498-0.328,0.994-0.656,0.994-0.656s0.478-0.25,0.954-0.501c0.238-0.125,0.496-0.208,0.681-0.288  c0.188-0.076,0.312-0.126,0.312-0.126s0.008-0.202,0.019-0.505c0.012-0.31,0.046-0.695,0.093-1.1c0.09-0.802,0.261-1.62,0.261-1.62  c0.01-0.577,0.032-0.829,0.323-0.882c0,0,0.241-0.045,0.607-0.113c0.184-0.033,0.395-0.071,0.623-0.111  c0.229-0.036,0.477-0.049,0.72-0.073c0.248-0.021,0.494-0.04,0.725-0.059c0.231-0.024,0.447-0.005,0.632-0.009  c0.37,0.004,0.616,0.007,0.616,0.007c0.071,0.002,0.13,0.018,0.18,0.049c0.159,0.097,0.231,0.341,0.3,0.746  c0,0,0.307,0.776,0.536,1.549c0.115,0.388,0.215,0.771,0.285,1.06c0.068,0.283,0.104,0.487,0.104,0.487s0.146,0.03,0.364,0.073  c0.218,0.053,0.516,0.096,0.8,0.18c0.285,0.09,0.568,0.177,0.782,0.242c0.107,0.033,0.195,0.06,0.256,0.088  c0.06,0.027,0.094,0.041,0.094,0.041s0.127,0.051,0.313,0.128c0.182,0.083,0.439,0.171,0.677,0.297  c0.238,0.127,0.474,0.254,0.654,0.351c0.089,0.047,0.162,0.086,0.212,0.113c0.019,0.01,0.032,0.017,0.044,0.023  c0.025,0.016,0.038,0.026,0.038,0.026s0.624-0.477,1.316-0.908c0.346-0.216,0.702-0.423,0.976-0.573  c0.277-0.154,0.458-0.24,0.458-0.24C141.288,177.145,141.489,177.016,141.697,177.143 M127.795,196.313  c0.384,0.232,0.812,0.452,1.27,0.61c0.855,0.328,1.765,0.475,2.445,0.53c0.344-0.01,0.627,0.014,0.827,0.001  c0.198-0.021,0.311-0.028,0.311-0.028s0.114-0.01,0.312-0.024c0.198-0.019,0.475-0.09,0.812-0.142  c0.66-0.168,1.522-0.463,2.32-0.924c0.791-0.477,1.466-1.091,1.932-1.587c0.207-0.272,0.404-0.478,0.517-0.643  c0.107-0.168,0.169-0.263,0.169-0.263s0.064-0.096,0.178-0.258c0.106-0.167,0.226-0.429,0.395-0.724  c0.283-0.623,0.595-1.49,0.72-2.396c0.151-0.906,0.073-1.826-0.039-2.494c-0.031-0.168-0.058-0.322-0.081-0.459  c-0.03-0.137-0.073-0.248-0.098-0.346c-0.056-0.189-0.086-0.299-0.086-0.299s-0.009-0.026-0.021-0.079  c-0.008-0.024-0.017-0.056-0.028-0.095c-0.014-0.034-0.032-0.076-0.05-0.121c-0.038-0.094-0.084-0.205-0.136-0.334  c-0.057-0.127-0.095-0.281-0.188-0.43c-0.292-0.621-0.803-1.394-1.418-2.057c-0.501-0.561-1.11-1.006-1.64-1.329  c-0.116-0.071-0.227-0.134-0.332-0.192c-0.15-0.082-0.288-0.157-0.409-0.223c-0.128-0.059-0.241-0.099-0.332-0.139  c-0.186-0.078-0.291-0.123-0.291-0.123s-0.103-0.055-0.296-0.104c-0.096-0.028-0.211-0.063-0.346-0.104  c-0.066-0.021-0.137-0.045-0.209-0.068c-0.075-0.02-0.159-0.031-0.242-0.049c-0.167-0.033-0.35-0.071-0.542-0.115  c-0.195-0.018-0.401-0.039-0.612-0.064c-0.054-0.006-0.107-0.014-0.162-0.021h-0.164c-0.109,0-0.222,0-0.334,0  c-0.11,0-0.225-0.014-0.337-0.004l-0.34,0.033c-0.903,0.08-1.796,0.297-2.417,0.588c-0.324,0.107-0.565,0.271-0.747,0.358  c-0.178,0.091-0.28,0.142-0.28,0.142s-0.095,0.065-0.26,0.178c-0.162,0.117-0.423,0.248-0.674,0.482  c-0.554,0.4-1.178,1.076-1.683,1.83l-0.191,0.283c-0.063,0.094-0.106,0.2-0.161,0.299c-0.055,0.098-0.106,0.195-0.16,0.291  l-0.079,0.145c-0.018,0.051-0.041,0.101-0.059,0.15c-0.08,0.199-0.161,0.389-0.241,0.568c-0.053,0.189-0.106,0.367-0.159,0.53  c-0.025,0.081-0.054,0.157-0.075,0.233c-0.014,0.076-0.029,0.149-0.041,0.219c-0.027,0.137-0.053,0.256-0.073,0.354  c-0.051,0.193-0.052,0.309-0.052,0.309s-0.014,0.114-0.032,0.313c-0.01,0.1-0.028,0.219-0.041,0.357  c0,0.139-0.002,0.297-0.002,0.466c0,0.683,0.079,1.601,0.38,2.46c0.286,0.861,0.717,1.685,1.119,2.239  c0.085,0.15,0.202,0.26,0.284,0.368c0.089,0.109,0.165,0.204,0.228,0.279c0.03,0.04,0.058,0.074,0.081,0.105  c0.029,0.027,0.051,0.051,0.072,0.069c0.037,0.037,0.058,0.056,0.058,0.056s0.082,0.08,0.222,0.22  c0.071,0.068,0.15,0.164,0.253,0.255c0.109,0.086,0.23,0.185,0.363,0.292C127.15,195.887,127.454,196.107,127.795,196.313   M143.194,174.682L143.194,174.682c-0.907-0.553-1.998-0.617-2.99-0.183c-0.328,0.146-0.607,0.327-0.862,0.512  c-0.088,0.047-0.197,0.105-0.321,0.173c-0.213,0.117-0.641,0.359-1.115,0.656c-0.002,0.002-0.002,0.002-0.003,0.002  c-0.04-0.016-0.08-0.031-0.114-0.047c-0.042-0.016-0.08-0.031-0.114-0.045l-0.039-0.02l-0.036-0.014l-0.304-0.127l-0.06-0.023  c-0.221-0.098-0.42-0.16-0.564-0.201c-0.122-0.039-0.268-0.084-0.421-0.132c-0.176-0.587-0.384-1.164-0.505-1.491  c-0.135-0.643-0.476-1.745-1.587-2.42c-0.479-0.293-1.036-0.453-1.607-0.469h-0.016h-0.018l-0.614-0.007l-0.047-0.002l-0.049,0.002  c-0.025,0-0.057-0.002-0.09-0.002c-0.172-0.005-0.433-0.007-0.739,0.022c-0.223,0.02-0.462,0.035-0.699,0.056l-0.025,0.001  l-0.024,0.005c-0.064,0.005-0.128,0.011-0.19,0.016c-0.206,0.019-0.437,0.036-0.694,0.077l-0.03,0.004l-0.028,0.006l-0.629,0.113  l-0.013,0.002l-0.012,0.002l-0.598,0.112c-1.204,0.221-2.138,1.054-2.497,2.232c-0.125,0.407-0.162,0.784-0.175,1.162  c-0.07,0.362-0.181,0.988-0.251,1.616c0,0.004,0,0.008-0.002,0.013l-0.529,0.278l-0.13,0.066l-0.121,0.08l-0.724,0.479  c-0.567-0.231-1.157-0.43-1.492-0.539c-0.339-0.169-0.734-0.333-1.188-0.41c-1.156-0.197-2.292,0.214-3.043,1.103l-0.015,0.018  l-0.013,0.016l-0.393,0.477l-0.032,0.041l-0.031,0.039c-0.013,0.018-0.03,0.039-0.049,0.061c-0.114,0.138-0.281,0.34-0.455,0.609  l-0.127,0.187l-0.26,0.39l-0.014,0.021l-0.015,0.021c-0.036,0.052-0.07,0.106-0.105,0.158c-0.111,0.165-0.249,0.372-0.382,0.61  l-0.008,0.016l-0.008,0.014l-0.104,0.195l-0.198,0.363l-0.007,0.012l-0.007,0.012l-0.288,0.548c-0.57,1.082-0.495,2.327,0.198,3.336  c0.239,0.349,0.512,0.614,0.797,0.858c0.226,0.266,0.645,0.738,1.1,1.193c0.003,0.005,0.008,0.008,0.012,0.014l-0.04,0.194  c-0.045,0.205-0.076,0.394-0.093,0.574l-0.004,0.056l-0.043,0.374l-0.039,0.367l-0.002,0.021l-0.004,0.03l-0.002,0.018  c-0.004,0.038-0.009,0.075-0.012,0.114c-0.561,0.31-1.071,0.643-1.371,0.844c-2.272,1.119-2.212,2.936-2.072,3.689l0.12,0.618  l0.019,0.104l0.027,0.102c0.091,0.34,0.221,0.791,0.385,1.344c0.089,0.321,0.193,0.583,0.271,0.776  c0.018,0.044,0.036,0.086,0.051,0.129l0.015,0.037l0.015,0.034l0.132,0.333l0.104,0.253l0.003,0.009l0.004,0.009l0.054,0.13  c0.064,0.153,0.117,0.286,0.161,0.385l0.028,0.06l0.031,0.059l0.071,0.139c0.283,0.552,0.697,0.999,1.2,1.305  c0.989,0.603,1.981,0.499,2.628,0.38c0.349-0.014,0.974-0.044,1.602-0.111c0.012-0.002,0.021-0.004,0.031-0.004  c0.037,0.043,0.071,0.087,0.104,0.126c0.136,0.177,0.264,0.305,0.339,0.378l0.045,0.045l0.07,0.072l0.259,0.255l0.021,0.024  l0.024,0.021c0.025,0.025,0.053,0.053,0.079,0.081c0.077,0.077,0.169,0.171,0.278,0.275c-0.106,0.642-0.166,1.253-0.192,1.6  c-0.495,2.257,0.664,3.356,1.425,3.818c0.052,0.033,0.105,0.063,0.159,0.093l0.015,0.008l0.015,0.007l0.544,0.284l0.097,0.05  l0.1,0.044c0.25,0.108,0.75,0.321,1.306,0.546l0.047,0.021l0.048,0.016c0.414,0.15,0.813,0.272,1.134,0.368  c0.101,0.031,0.197,0.061,0.281,0.087c0.27,0.084,0.507,0.147,0.722,0.189l0.124,0.027h0.007l0.008,0.002  c1.12,0.24,2.258-0.118,3.045-0.953c0.295-0.315,0.502-0.652,0.676-0.981l0.168-0.222l0.015-0.02l0.014-0.02  c0.23-0.319,0.475-0.666,0.729-1.078c0.149-0.003,0.309-0.014,0.472-0.031l0.279-0.023c0.028-0.003,0.145-0.013,0.315-0.027  c0.258-0.013,0.49-0.049,0.695-0.087c0.422,0.462,0.862,0.886,1.116,1.123c0.283,0.367,0.623,0.729,1.1,1.017  c0.88,0.534,1.925,0.625,2.879,0.252c0.138-0.055,0.464-0.187,0.873-0.409c0.078-0.041,0.162-0.084,0.253-0.131  c0.298-0.155,0.668-0.347,1.05-0.574l0.045-0.027l0.042-0.027c0.495-0.319,0.935-0.613,1.163-0.768  c0.227-0.15,0.4-0.293,0.495-0.371l0.013-0.012l0.017-0.01l0.041-0.037l0.13-0.102c0.901-0.732,1.34-1.846,1.18-2.984  c-0.061-0.432-0.193-0.795-0.344-1.146l-0.068-0.263l-0.005-0.017l-0.003-0.014c-0.083-0.308-0.221-0.774-0.396-1.27  c0.091-0.12,0.184-0.25,0.27-0.389l0.156-0.236l0.175-0.26c0.151-0.212,0.269-0.418,0.366-0.601c0.617-0.042,1.23-0.12,1.587-0.17  c2.387-0.012,3.188-1.492,3.44-2.25c0.044-0.131,0.095-0.302,0.135-0.509l0.014-0.059l0.075-0.352l0.001-0.01l0.003-0.01  l0.129-0.622l0.002-0.015l0.004-0.017l0.019-0.102l0.048-0.244l0.022-0.107l0.013-0.107l0.011-0.093l0.032-0.279v-0.01l0.002-0.008  l0.025-0.237l0.053-0.478c0.034-0.314,0.063-0.614,0.061-0.936l0.011-0.585c0.012-1.166-0.568-2.217-1.554-2.816  c-0.382-0.23-0.75-0.359-1.121-0.461c-0.099-0.044-0.215-0.094-0.351-0.148c-0.212-0.091-0.671-0.275-1.2-0.463  c0,0-0.003,0-0.005-0.002c-0.034-0.116-0.065-0.225-0.093-0.318l-0.094-0.324L146,184.82c-0.031-0.105-0.088-0.308-0.192-0.553  c-0.044-0.109-0.094-0.236-0.147-0.367c0.35-0.506,0.667-1.023,0.859-1.348c1.587-1.995,0.751-3.611,0.302-4.23l-0.041-0.059  l-0.046-0.057l-0.389-0.482l-0.019-0.021l-0.018-0.021c-0.047-0.056-0.096-0.117-0.148-0.18c-0.231-0.285-0.543-0.67-0.942-1.051  l-0.096-0.096l-0.393-0.392l-0.008-0.007l-0.008-0.011l-0.108-0.104l-0.128-0.125l-0.047-0.047l-0.049-0.045  c-0.087-0.077-0.173-0.148-0.254-0.217l-0.047-0.039l-0.011-0.008l-0.012-0.01l-0.476-0.394l-0.007-0.005l-0.008-0.006  C143.45,174.85,143.325,174.762,143.194,174.682 M134.22,184.605l0.129,0.07l0.156,0.086c0.062,0.031,0.137,0.076,0.213,0.123  c0.409,0.248,0.75,0.521,0.99,0.79l0.016,0.016l0.016,0.017c0.455,0.492,0.782,1.023,0.927,1.328l0.069,0.148  c0.018,0.049,0.041,0.107,0.069,0.17l0.084,0.211l0.031,0.076l0.005,0.008l0.083,0.294c0.016,0.063,0.036,0.13,0.06,0.2l0.033,0.185  l0.022,0.134c0.095,0.565,0.107,1.108,0.036,1.531l-0.007,0.036l-0.003,0.038c-0.064,0.449-0.224,0.988-0.443,1.501  c-0.078,0.138-0.144,0.264-0.193,0.359c-0.021,0.039-0.039,0.077-0.059,0.11l-0.129,0.191l-0.015,0.021l-0.013,0.019l-0.127,0.197  c-0.024,0.029-0.051,0.058-0.079,0.09c-0.068,0.084-0.156,0.189-0.252,0.311c-0.258,0.264-0.694,0.673-1.214,0.989  c-0.528,0.303-1.099,0.487-1.453,0.585c-0.149,0.023-0.285,0.052-0.39,0.071c-0.042,0.01-0.082,0.017-0.119,0.024l-0.245,0.019  l-0.019,0.001l-0.02,0.002l-0.229,0.021c-0.037,0-0.081-0.002-0.129-0.004c-0.109-0.002-0.247-0.005-0.405-0.005  c-0.551-0.051-1.101-0.172-1.526-0.336l-0.035-0.012l-0.036-0.014c-0.224-0.08-0.47-0.197-0.726-0.354  c-0.201-0.124-0.4-0.264-0.597-0.418l-0.138-0.112l-0.112-0.091c-0.052-0.052-0.099-0.1-0.146-0.145  c-0.142-0.142-0.223-0.222-0.223-0.222l-0.002-0.002l-0.042-0.052l-0.153-0.191c-0.044-0.055-0.083-0.102-0.117-0.142l-0.097-0.133  c-0.197-0.272-0.503-0.815-0.715-1.45l-0.007-0.022l-0.008-0.022c-0.141-0.4-0.217-0.932-0.218-1.5l0.001-0.211v-0.104  c0.002-0.009,0.002-0.019,0.003-0.027c0.01-0.075,0.019-0.145,0.025-0.211c0.013-0.138,0.023-0.235,0.028-0.269l0.009-0.047  l0.072-0.346l0.006-0.029l0.005-0.029c0.003-0.015,0.005-0.03,0.009-0.046c0.009-0.024,0.018-0.052,0.025-0.077  c0.042-0.135,0.086-0.272,0.125-0.412c0.069-0.156,0.133-0.313,0.194-0.466l0.006-0.007l0.038-0.072l0.11-0.205  c0.031-0.057,0.061-0.11,0.09-0.166l0.119-0.178l0.005-0.008l0.006-0.008c0.357-0.531,0.75-0.938,0.981-1.106l0.14-0.102  l0.104-0.095c0.024-0.016,0.067-0.045,0.103-0.065c0.08-0.052,0.178-0.114,0.287-0.189l0.078-0.056  c0.027-0.012,0.056-0.026,0.086-0.042c0.12-0.059,0.222-0.116,0.305-0.16c0.034-0.019,0.078-0.044,0.104-0.058l0.134-0.043  l0.16-0.075c0.258-0.122,0.804-0.271,1.442-0.327h0.009l0.01-0.002l0.212-0.02c0.062,0.002,0.123,0.004,0.186,0.004l0.221,0.001  l0.093,0.003h0.014c0.171,0.02,0.34,0.037,0.503,0.055c0.146,0.032,0.285,0.059,0.416,0.086c0.029,0.006,0.056,0.012,0.083,0.016  l0.054,0.018l0.02,0.008l0.018,0.004l0.319,0.099l0.036,0.011l0.037,0.012l0.264,0.111c0.049,0.022,0.112,0.049,0.183,0.074  C134.204,184.6,134.214,184.602,134.22,184.605"/>
<rect x="30.563" y="32.69" fill="none" stroke="#7B838F" stroke-miterlimit="10" width="242.872" height="189.896"/>
<rect x="174.408" y="62.664" fill="#7B838F" width="2.69" height="140.204"/>
<rect x="192.429" y="62.664" fill="#7B838F" width="2.69" height="140.204"/>
<rect x="210.449" y="62.664" fill="#7B838F" width="2.691" height="140.204"/>
<rect x="228.471" y="62.664" fill="#7B838F" width="2.69" height="140.204"/>
<rect x="246.49" y="62.664" fill="#7B838F" width="2.69" height="140.204"/>
<g>
	<defs>
		<rect id="SVGID_1_" x="-403.204" y="-293.685" width="1110.409" height="1437"/>
	</defs>
	<clipPath id="SVGID_2_">
		<use xlink:href="#SVGID_1_" overflow="visible"/>
	</clipPath>
	<path clip-path="url(#SVGID_2_)" fill="#7B838F" d="M181.93,146.408c0,3.408-2.767,6.175-6.175,6.175   c-3.409,0-6.176-2.767-6.176-6.175c0-3.409,2.767-6.174,6.176-6.174C179.163,140.234,181.93,142.999,181.93,146.408"/>
	<path clip-path="url(#SVGID_2_)" fill="#7B838F" d="M178.888,146.408c0,1.731-1.402,3.133-3.133,3.133   c-1.731,0-3.133-1.401-3.133-3.133c0-1.729,1.401-3.134,3.133-3.134C177.485,143.274,178.888,144.68,178.888,146.408"/>
	<path clip-path="url(#SVGID_2_)" fill="#7B838F" d="M199.949,139.588c0,3.408-2.766,6.173-6.175,6.173s-6.174-2.765-6.174-6.173   c0-3.411,2.765-6.174,6.174-6.174S199.949,136.177,199.949,139.588"/>
	<path clip-path="url(#SVGID_2_)" fill="#7B838F" d="M196.908,139.588c0,1.729-1.402,3.131-3.134,3.131s-3.132-1.402-3.132-3.131   c0-1.732,1.4-3.135,3.132-3.135S196.908,137.855,196.908,139.588"/>
	<path clip-path="url(#SVGID_2_)" fill="#7B838F" d="M217.97,132.766c0,3.409-2.766,6.176-6.174,6.176   c-3.41,0-6.173-2.767-6.173-6.176c0-3.408,2.763-6.174,6.173-6.174C215.204,126.592,217.97,129.357,217.97,132.766"/>
	<path clip-path="url(#SVGID_2_)" fill="#7B838F" d="M214.927,132.766c0,1.73-1.401,3.133-3.131,3.133   c-1.731,0-3.133-1.402-3.133-3.133s1.401-3.133,3.133-3.133C213.525,129.633,214.927,131.035,214.927,132.766"/>
	<path clip-path="url(#SVGID_2_)" fill="#7B838F" d="M235.99,125.944c0,3.41-2.763,6.175-6.175,6.175   c-3.408,0-6.175-2.766-6.175-6.175c0-3.409,2.767-6.174,6.175-6.174C233.228,119.77,235.99,122.535,235.99,125.944"/>
	<path clip-path="url(#SVGID_2_)" fill="#7B838F" d="M232.948,125.944c0,1.732-1.401,3.133-3.133,3.133   c-1.729,0-3.132-1.401-3.132-3.133c0-1.729,1.402-3.131,3.132-3.131C231.547,122.813,232.948,124.215,232.948,125.944"/>
	<path clip-path="url(#SVGID_2_)" fill="#7B838F" d="M254.011,119.123c0,3.41-2.764,6.172-6.175,6.172   c-3.409,0-6.173-2.763-6.173-6.172c0-3.411,2.764-6.174,6.173-6.174C251.247,112.949,254.011,115.712,254.011,119.123"/>
	<path clip-path="url(#SVGID_2_)" fill="#7B838F" d="M250.97,119.123c0,1.729-1.403,3.133-3.134,3.133   c-1.729,0-3.132-1.404-3.132-3.133c0-1.731,1.402-3.133,3.132-3.133C249.566,115.99,250.97,117.392,250.97,119.123"/>
	<path clip-path="url(#SVGID_2_)" fill="#7B838F" d="M61.021,109.292c-0.808,0-1.463-0.655-1.463-1.462V53.883   c0-0.807,0.655-1.463,1.463-1.463s1.461,0.656,1.461,1.463v53.947C62.481,108.638,61.828,109.292,61.021,109.292"/>
	<path clip-path="url(#SVGID_2_)" fill="#7B838F" d="M76.926,84.427c-0.276,0-0.556-0.078-0.8-0.237l-7.973-5.214l-5.825,4.559   c-0.637,0.497-1.555,0.384-2.054-0.25c-0.497-0.637-0.385-1.555,0.251-2.054l6.649-5.204c0.494-0.386,1.18-0.414,1.702-0.073   l7.87,5.148l20.604-19.949c0.285-0.278,0.667-0.432,1.066-0.413c0.398,0.016,0.773,0.191,1.038,0.485l14.263,15.882l5.831-2.623   c0.418-0.188,0.897-0.171,1.298,0.046l8.17,4.423c0.709,0.386,0.973,1.272,0.589,1.983c-0.385,0.709-1.273,0.975-1.983,0.589   l-7.531-4.081l-6.146,2.768c-0.582,0.261-1.264,0.118-1.688-0.356l-13.962-15.55L77.943,84.015   C77.662,84.287,77.295,84.427,76.926,84.427"/>
	<path clip-path="url(#SVGID_2_)" fill="#7B838F" d="M142.877,109.292H62.069c-0.81,0-1.463-0.655-1.463-1.462   c0-0.807,0.653-1.463,1.463-1.463h80.808c0.809,0,1.463,0.657,1.463,1.463C144.34,108.638,143.686,109.292,142.877,109.292"/>
	<path clip-path="url(#SVGID_2_)" fill="#7B838F" d="M122.978,109.292c-0.342,0-0.687-0.12-0.966-0.365   c-0.604-0.531-0.664-1.456-0.131-2.062l12.25-13.94c0.534-0.606,1.458-0.666,2.065-0.132c0.605,0.533,0.666,1.457,0.132,2.064   l-12.25,13.939C123.787,109.124,123.386,109.292,122.978,109.292"/>
	<path clip-path="url(#SVGID_2_)" fill="#7B838F" d="M108.763,109.292h-14.22c-0.574,0-1.094-0.335-1.332-0.86   c-0.235-0.522-0.146-1.135,0.233-1.567l27.321-31.087c0.451-0.511,1.196-0.646,1.796-0.32l5.569,3.02l5.489-4.706   c0.612-0.526,1.538-0.455,2.063,0.158c0.525,0.614,0.454,1.538-0.159,2.063l-1.166,0.997c0.419-0.067,0.86,0.043,1.202,0.345   c0.606,0.535,0.666,1.457,0.134,2.065l-25.835,29.396C109.582,109.11,109.182,109.292,108.763,109.292 M97.776,106.367H108.1   l24.469-27.841l-3.296,2.827c-0.461,0.394-1.116,0.465-1.649,0.174l-5.431-2.941L97.776,106.367z"/>
	<path clip-path="url(#SVGID_2_)" fill="#7B838F" d="M135.382,108.763c-0.808,0-1.462-0.655-1.462-1.463V74.115   c0-0.807,0.654-1.462,1.462-1.462c0.809,0,1.464,0.655,1.464,1.462V107.3C136.846,108.108,136.19,108.763,135.382,108.763"/>
	<path clip-path="url(#SVGID_2_)" fill="#7B838F" d="M80.325,109.292H66.109c-0.575,0-1.096-0.335-1.333-0.86   c-0.236-0.522-0.146-1.135,0.233-1.567l36.223-41.214c0.276-0.314,0.673-0.495,1.091-0.498h0.007c0.416,0,0.812,0.177,1.088,0.485   l7.186,8.001c0.495,0.551,0.499,1.386,0.012,1.943l-29.19,33.213C81.147,109.11,80.747,109.292,80.325,109.292 M69.341,106.367   h10.323l27.896-31.738l-5.216-5.812L69.341,106.367z"/>
	<path clip-path="url(#SVGID_2_)" fill="#7B838F" d="M61.275,98.615c-0.344,0-0.688-0.12-0.967-0.364   c-0.605-0.531-0.665-1.458-0.132-2.063l12.518-14.243l-4.541-2.969l-5.826,4.559c-0.636,0.499-1.555,0.386-2.052-0.251   c-0.498-0.635-0.387-1.556,0.25-2.052l6.649-5.204c0.494-0.388,1.178-0.416,1.702-0.073l6.83,4.465   c0.354,0.232,0.591,0.606,0.647,1.027c0.057,0.42-0.071,0.844-0.351,1.162l-13.63,15.509   C62.083,98.446,61.681,98.615,61.275,98.615"/>
	<path clip-path="url(#SVGID_2_)" fill="#7B838F" d="M108.338,137.436c0.023,0.015,0.048,0.033,0.071,0.055   c0,0,0.225,0.188,0.545,0.48c0.314,0.305,0.738,0.703,1.149,1.115c0.396,0.426,0.803,0.844,1.088,1.172   c0.283,0.332,0.473,0.553,0.473,0.553c0.225,0.265,0.058,0.564-0.335,1.082c0,0-0.446,0.914-0.931,1.785   c-0.24,0.436-0.485,0.863-0.675,1.182c-0.195,0.316-0.324,0.527-0.324,0.527s0.112,0.164,0.281,0.406   c0.168,0.241,0.396,0.563,0.598,0.902c0.433,0.662,0.807,1.355,0.807,1.355s0.087,0.156,0.218,0.39   c0.128,0.231,0.278,0.558,0.439,0.875c0.166,0.315,0.309,0.642,0.414,0.888c0.107,0.244,0.179,0.407,0.179,0.407   s0.999-0.007,1.992,0.052c0.997,0.051,2.016,0.156,2.016,0.156c0.484-0.037,0.768-0.05,0.936,0.053   c0.076,0.047,0.128,0.119,0.164,0.221c0,0,0.088,0.277,0.225,0.691c0.135,0.412,0.28,0.978,0.435,1.536   c0.144,0.563,0.262,1.131,0.36,1.554c0.078,0.43,0.13,0.717,0.13,0.717c0.061,0.34-0.235,0.516-0.834,0.768   c0,0-0.208,0.139-0.521,0.348c-0.318,0.206-0.743,0.475-1.17,0.732c-0.855,0.52-1.72,0.982-1.72,0.982s0.017,0.197,0.039,0.49   c0.018,0.297,0.067,0.688,0.072,1.084c0.008,0.394,0.026,0.788,0.029,1.084c-0.007,0.295-0.01,0.49-0.01,0.49   s-0.004,0.18-0.009,0.447c0.004,0.267-0.029,0.623-0.052,0.979c-0.021,0.355-0.045,0.71-0.083,0.976   c-0.029,0.265-0.051,0.442-0.051,0.442s0.216,0.125,0.539,0.314c0.098,0.059,0.207,0.121,0.319,0.193   c0.263,0.158,0.558,0.342,0.846,0.532c0.838,0.543,1.663,1.142,1.663,1.142c0.214,0.102,0.385,0.185,0.514,0.265   c0.26,0.158,0.354,0.298,0.307,0.524c0,0-0.061,0.283-0.154,0.711c-0.084,0.428-0.24,0.988-0.392,1.549   c-0.142,0.567-0.344,1.113-0.472,1.531c-0.128,0.416-0.239,0.686-0.239,0.686c-0.121,0.324-0.467,0.33-1.113,0.244   c0,0-0.25,0.017-0.625,0.039c-0.374,0.023-0.869,0.044-1.374,0.053c-1.005,0.016-1.988-0.018-1.988-0.018s-0.074,0.183-0.201,0.449   c-0.133,0.264-0.311,0.617-0.485,0.971c-0.177,0.352-0.384,0.689-0.525,0.948c-0.145,0.258-0.244,0.428-0.244,0.428   s-0.38,0.603-0.763,1.204c-0.205,0.291-0.41,0.582-0.566,0.799c-0.077,0.109-0.14,0.199-0.187,0.264   c-0.047,0.063-0.073,0.099-0.073,0.099s0.493,0.851,0.951,1.747c0.229,0.445,0.454,0.902,0.613,1.247   c0.156,0.343,0.26,0.572,0.26,0.572c0.4,0.583,0.542,0.829,0.313,1.091c0.002,0-0.188,0.223-0.48,0.543   c-0.303,0.315-0.7,0.74-1.114,1.15c-0.427,0.395-0.843,0.801-1.173,1.088c-0.332,0.283-0.553,0.472-0.553,0.472   c-0.188,0.159-0.392,0.121-0.679-0.052c-0.117-0.072-0.251-0.168-0.4-0.281c0,0-0.918-0.449-1.788-0.932   c-0.435-0.24-0.863-0.488-1.181-0.676c-0.317-0.195-0.528-0.324-0.528-0.324s-0.161,0.111-0.405,0.281   c-0.242,0.168-0.563,0.397-0.902,0.6c-0.662,0.43-1.355,0.804-1.355,0.806c0,0-0.157,0.087-0.391,0.216   c-0.231,0.131-0.555,0.28-0.873,0.442c-0.316,0.163-0.642,0.306-0.888,0.412c-0.246,0.108-0.409,0.179-0.409,0.179   s0.008,1-0.051,1.992c-0.053,0.999-0.158,2.016-0.158,2.016c0.058,0.708,0.055,0.99-0.273,1.1c0,0-0.275,0.089-0.688,0.227   c-0.414,0.135-0.979,0.276-1.536,0.434c-0.564,0.145-1.133,0.262-1.557,0.36c-0.428,0.078-0.715,0.129-0.715,0.129   c-0.107,0.02-0.2,0.003-0.281-0.047c-0.179-0.109-0.316-0.377-0.485-0.786c0,0-0.141-0.209-0.349-0.521   c-0.208-0.319-0.477-0.745-0.734-1.173c-0.519-0.855-0.981-1.719-0.981-1.719s-0.197,0.016-0.49,0.039   c-0.297,0.018-0.688,0.069-1.081,0.07c-0.396,0.011-0.79,0.029-1.086,0.029c-0.296-0.005-0.492-0.01-0.492-0.01   s-0.178-0.002-0.446-0.007c-0.267,0.005-0.621-0.028-0.978-0.05s-0.712-0.048-0.978-0.083c-0.264-0.031-0.439-0.052-0.439-0.052   s-0.128,0.216-0.316,0.539c-0.19,0.324-0.454,0.75-0.726,1.164c-0.54,0.838-1.142,1.664-1.142,1.664   c-0.304,0.643-0.448,0.895-0.787,0.818c0,0-0.284-0.062-0.711-0.154c-0.431-0.082-0.989-0.242-1.552-0.392   c-0.564-0.14-1.11-0.343-1.527-0.471c-0.417-0.13-0.688-0.239-0.688-0.239c-0.029-0.01-0.057-0.022-0.079-0.037   c-0.246-0.148-0.243-0.488-0.166-1.076c0,0-0.016-0.248-0.04-0.623c-0.021-0.377-0.043-0.87-0.051-1.377   c-0.017-1.005,0.017-1.986,0.017-1.986s-0.182-0.076-0.449-0.202c-0.265-0.134-0.616-0.31-0.97-0.485   c-0.353-0.178-0.689-0.383-0.948-0.523c-0.258-0.146-0.43-0.244-0.43-0.244s-0.602-0.381-1.202-0.764   c-0.29-0.207-0.581-0.412-0.801-0.566c-0.108-0.076-0.199-0.142-0.263-0.186c-0.062-0.049-0.098-0.074-0.098-0.074   s-0.852,0.492-1.746,0.951c-0.447,0.229-0.905,0.451-1.248,0.613c-0.345,0.154-0.574,0.256-0.574,0.256   c-0.527,0.367-0.779,0.517-1.016,0.371c-0.024-0.014-0.048-0.032-0.073-0.055c0,0-0.224-0.186-0.545-0.48   c-0.313-0.305-0.738-0.701-1.146-1.115c-0.397-0.425-0.804-0.842-1.091-1.17c-0.283-0.332-0.471-0.553-0.471-0.553   c-0.226-0.268-0.059-0.565,0.332-1.084c0,0,0.449-0.913,0.932-1.783c0.241-0.438,0.488-0.865,0.677-1.182   c0.194-0.318,0.324-0.527,0.324-0.527s-0.112-0.164-0.281-0.407c-0.168-0.243-0.396-0.563-0.6-0.901   c-0.43-0.662-0.806-1.357-0.806-1.357s-0.086-0.154-0.217-0.389c-0.129-0.234-0.28-0.557-0.442-0.874   c-0.163-0.316-0.307-0.643-0.412-0.888c-0.106-0.245-0.179-0.407-0.179-0.407s-1,0.006-1.992-0.054   c-0.998-0.051-2.016-0.156-2.016-0.156c-0.483,0.038-0.769,0.05-0.935-0.051c-0.076-0.047-0.129-0.119-0.163-0.223   c0,0-0.092-0.276-0.227-0.691c-0.138-0.412-0.278-0.976-0.437-1.535c-0.142-0.563-0.262-1.132-0.356-1.557   c-0.08-0.426-0.131-0.713-0.131-0.713c-0.062-0.34,0.233-0.518,0.832-0.768c0,0,0.209-0.141,0.521-0.35   c0.319-0.205,0.746-0.474,1.173-0.732c0.856-0.519,1.718-0.983,1.718-0.983s-0.015-0.196-0.037-0.491   c-0.019-0.295-0.069-0.686-0.071-1.08c-0.012-0.395-0.029-0.788-0.029-1.084c0.006-0.296,0.01-0.494,0.01-0.494   s0.001-0.178,0.007-0.445c-0.003-0.266,0.029-0.621,0.051-0.977s0.047-0.713,0.083-0.978c0.031-0.265,0.052-0.44,0.052-0.44   s-0.217-0.127-0.539-0.316c-0.093-0.053-0.196-0.115-0.304-0.18c-0.267-0.164-0.565-0.352-0.861-0.545   c-0.837-0.542-1.662-1.141-1.662-1.141c-0.214-0.103-0.385-0.186-0.514-0.264c-0.261-0.159-0.358-0.299-0.307-0.525   c0,0,0.062-0.283,0.154-0.713c0.081-0.428,0.241-0.988,0.393-1.549c0.14-0.565,0.343-1.111,0.469-1.529   c0.132-0.414,0.24-0.686,0.24-0.686c0.123-0.325,0.467-0.328,1.112-0.247c0,0,0.25-0.014,0.626-0.038   c0.375-0.021,0.869-0.043,1.375-0.051c1.005-0.019,1.987,0.018,1.987,0.018s0.076-0.183,0.202-0.451   c0.133-0.264,0.309-0.617,0.485-0.969s0.382-0.69,0.526-0.949c0.145-0.257,0.24-0.429,0.24-0.429s0.383-0.601,0.764-1.202   c0.208-0.291,0.412-0.582,0.566-0.801c0.076-0.109,0.142-0.199,0.188-0.263c0.047-0.062,0.074-0.098,0.074-0.098   s-0.493-0.851-0.951-1.748c-0.229-0.445-0.453-0.903-0.613-1.248l-0.26-0.571c-0.4-0.582-0.543-0.83-0.314-1.09   c0,0,0.186-0.225,0.481-0.545c0.303-0.313,0.7-0.738,1.114-1.148c0.425-0.398,0.842-0.801,1.171-1.088   c0.332-0.285,0.553-0.473,0.553-0.473c0.189-0.16,0.395-0.123,0.679,0.052c0.12,0.073,0.253,0.167,0.403,0.282   c0,0,0.914,0.447,1.785,0.931c0.438,0.239,0.863,0.487,1.181,0.675c0.318,0.197,0.53,0.324,0.53,0.324s0.162-0.111,0.404-0.278   c0.244-0.171,0.564-0.4,0.902-0.601c0.662-0.43,1.356-0.806,1.356-0.806s0.154-0.087,0.388-0.218   c0.234-0.129,0.559-0.279,0.876-0.441c0.315-0.162,0.642-0.307,0.887-0.412c0.245-0.107,0.408-0.18,0.408-0.18   s-0.008-0.999,0.053-1.992c0.051-0.998,0.155-2.014,0.155-2.014c-0.056-0.709-0.054-0.99,0.274-1.1c0,0,0.278-0.09,0.691-0.227   c0.414-0.137,0.977-0.279,1.535-0.436c0.563-0.143,1.132-0.262,1.555-0.357c0.431-0.078,0.715-0.133,0.715-0.133   c0.109-0.017,0.2-0.001,0.281,0.049c0.181,0.109,0.315,0.376,0.489,0.787c0,0,0.136,0.209,0.347,0.521   c0.205,0.318,0.474,0.744,0.732,1.171c0.52,0.855,0.982,1.719,0.982,1.719s0.195-0.016,0.492-0.038   c0.293-0.018,0.686-0.069,1.082-0.071c0.393-0.011,0.787-0.028,1.083-0.028c0.295,0.004,0.494,0.007,0.494,0.007   s0.177,0.004,0.443,0.01c0.266-0.004,0.623,0.029,0.979,0.051s0.71,0.045,0.976,0.083c0.266,0.031,0.443,0.052,0.443,0.052   s0.125-0.217,0.313-0.539c0.192-0.326,0.454-0.75,0.725-1.166c0.544-0.836,1.143-1.663,1.143-1.663   c0.307-0.643,0.45-0.896,0.789-0.818c0,0,0.284,0.062,0.711,0.151c0.429,0.084,0.989,0.244,1.55,0.396   c0.565,0.14,1.113,0.343,1.53,0.47c0.417,0.131,0.686,0.24,0.686,0.24c0.031,0.01,0.055,0.022,0.081,0.037   c0.244,0.148,0.239,0.486,0.165,1.074c0,0,0.015,0.25,0.038,0.625c0.021,0.374,0.047,0.87,0.051,1.376   c0.018,1.004-0.016,1.987-0.016,1.987s0.183,0.074,0.449,0.202c0.264,0.132,0.617,0.31,0.97,0.485   c0.352,0.176,0.688,0.383,0.948,0.523c0.257,0.145,0.43,0.244,0.43,0.244s0.602,0.381,1.202,0.764   c0.292,0.205,0.581,0.412,0.8,0.565c0.109,0.076,0.199,0.142,0.263,0.185c0.063,0.047,0.098,0.076,0.098,0.076   s0.852-0.492,1.748-0.949c0.446-0.23,0.905-0.455,1.248-0.615c0.343-0.154,0.571-0.26,0.571-0.26   C107.847,137.441,108.1,137.291,108.338,137.436 M76.09,180.291c0,0,0.16,0.09,0.439,0.246c0.14,0.08,0.309,0.176,0.503,0.285   c0.196,0.107,0.424,0.213,0.667,0.338c0.981,0.49,2.335,1.052,3.739,1.447c1.403,0.403,2.847,0.652,3.937,0.75   c0.544,0.047,0.999,0.073,1.318,0.09c0.32,0.004,0.503,0.008,0.503,0.008s0.182,0.004,0.501,0.01   c0.318-0.02,0.776-0.012,1.324-0.056c1.094-0.062,2.55-0.259,3.969-0.62c1.419-0.353,2.796-0.864,3.789-1.326   c0.504-0.22,0.902-0.443,1.192-0.576c0.277-0.157,0.437-0.247,0.437-0.247s0.16-0.089,0.439-0.241   c0.273-0.166,0.662-0.406,1.121-0.705c0.916-0.6,2.069-1.5,3.116-2.518c1.05-1.012,1.975-2.148,2.61-3.042   c0.156-0.225,0.31-0.427,0.431-0.612c0.12-0.189,0.222-0.355,0.309-0.488c0.171-0.271,0.272-0.428,0.272-0.428   s0.088-0.158,0.244-0.438c0.079-0.141,0.176-0.309,0.287-0.502c0.105-0.197,0.212-0.426,0.335-0.67   c0.491-0.98,1.055-2.333,1.449-3.738c0.403-1.403,0.651-2.846,0.749-3.936c0.047-0.545,0.076-1,0.091-1.318   c0.005-0.32,0.008-0.503,0.008-0.503s0.002-0.183,0.008-0.501c-0.019-0.32-0.009-0.776-0.055-1.324   c-0.062-1.093-0.259-2.548-0.619-3.966c-0.354-1.421-0.865-2.798-1.328-3.792c-0.22-0.502-0.44-0.902-0.576-1.191   c-0.154-0.279-0.246-0.438-0.246-0.438s-0.088-0.16-0.242-0.44c-0.165-0.273-0.402-0.661-0.702-1.118   c-0.6-0.917-1.503-2.071-2.519-3.115c-1.012-1.054-2.147-1.979-3.043-2.613c-0.225-0.156-0.426-0.308-0.611-0.43   c-0.19-0.12-0.354-0.224-0.49-0.308c-0.271-0.174-0.424-0.271-0.424-0.271s-0.16-0.091-0.439-0.247   c-0.141-0.079-0.31-0.177-0.504-0.287c-0.197-0.104-0.424-0.212-0.668-0.335c-0.982-0.49-2.334-1.053-3.739-1.45   c-1.401-0.401-2.844-0.651-3.934-0.747c-0.546-0.047-1.002-0.074-1.32-0.09c-0.319-0.006-0.502-0.008-0.502-0.008   s-0.183-0.004-0.502-0.01c-0.319,0.019-0.777,0.01-1.323,0.055c-1.094,0.062-2.549,0.26-3.968,0.618   c-1.421,0.354-2.798,0.865-3.791,1.329c-0.502,0.22-0.901,0.442-1.19,0.576c-0.28,0.156-0.438,0.244-0.438,0.244   s-0.161,0.092-0.438,0.245c-0.274,0.165-0.664,0.403-1.121,0.701c-0.917,0.601-2.07,1.503-3.115,2.519   c-1.052,1.014-1.979,2.148-2.612,3.043c-0.157,0.225-0.309,0.426-0.432,0.611c-0.117,0.191-0.221,0.354-0.308,0.49   c-0.173,0.27-0.271,0.426-0.271,0.426s-0.089,0.158-0.247,0.438c-0.078,0.141-0.173,0.311-0.284,0.504   c-0.107,0.197-0.213,0.423-0.338,0.668c-0.487,0.981-1.053,2.332-1.448,3.739c-0.402,1.401-0.653,2.847-0.748,3.935   c-0.048,0.546-0.075,1.002-0.092,1.32c-0.003,0.32-0.007,0.503-0.007,0.503s-0.004,0.181-0.01,0.501   c0.019,0.318,0.011,0.776,0.055,1.322c0.062,1.095,0.26,2.549,0.621,3.969c0.352,1.42,0.862,2.797,1.326,3.789   c0.22,0.502,0.442,0.902,0.577,1.193c0.155,0.278,0.244,0.438,0.244,0.438s0.09,0.16,0.246,0.438   c0.162,0.273,0.402,0.665,0.7,1.122c0.6,0.917,1.502,2.069,2.518,3.115c1.013,1.052,2.148,1.977,3.043,2.612   c0.226,0.156,0.426,0.307,0.613,0.43c0.189,0.119,0.354,0.224,0.488,0.311C75.934,180.192,76.09,180.291,76.09,180.291    M109.835,134.975L109.835,134.975c-1.66-1.01-3.18-0.185-3.925,0.309l-0.35,0.157l-0.018,0.009l-0.014,0.006   c-0.396,0.186-0.887,0.426-1.345,0.66c-0.084,0.043-0.166,0.086-0.249,0.129l-1.002-0.637l-0.063-0.039l-0.063-0.037l-0.432-0.244   l-0.018-0.01l-0.019-0.009c-0.073-0.04-0.154-0.089-0.241-0.138c-0.175-0.099-0.379-0.217-0.605-0.336   c-0.002-0.082-0.002-0.162-0.004-0.243c-0.006-0.45-0.024-0.952-0.055-1.491v-0.011l-0.002-0.009l-0.021-0.367   c0.087-0.862,0.104-2.601-1.559-3.613c-0.17-0.102-0.347-0.189-0.532-0.26c-0.053-0.023-0.134-0.055-0.241-0.094l-2.022-0.762   l-0.06,0.097c-0.07-0.019-0.143-0.039-0.213-0.057l-0.264-0.071c-0.504-0.137-0.983-0.266-1.431-0.354l-0.677-0.146   c-1.194-0.262-2.388,0.135-3.195,1.063c-0.299,0.345-0.501,0.702-0.692,1.092c-0.24,0.336-0.667,0.944-1.071,1.57   c-0.053,0.08-0.106,0.164-0.16,0.246c-0.275-0.02-0.561-0.038-0.845-0.038l-0.412-0.007l-0.493-0.01h-0.03h-0.029   c-0.232,0.003-0.485,0.01-0.753,0.019c-0.092,0.005-0.188,0.007-0.284,0.01c-0.044-0.073-0.086-0.147-0.132-0.22   c-0.324-0.543-0.628-1.014-0.778-1.247l-0.011-0.016l-0.011-0.015l-0.2-0.301c-0.244-0.553-0.673-1.346-1.532-1.867   c-0.677-0.414-1.487-0.564-2.28-0.425l-0.007,0.002l-0.007,0.001l-0.715,0.131l-0.064,0.012l-0.063,0.014   c-0.12,0.027-0.251,0.057-0.392,0.088c-0.37,0.083-0.79,0.176-1.226,0.286l-0.038,0.009l-0.037,0.012   c-0.169,0.047-0.339,0.092-0.505,0.137c-0.408,0.113-0.798,0.219-1.153,0.336l-0.685,0.223l-0.006,0.004l-0.01,0.002   c-1.137,0.381-1.956,1.313-2.192,2.489c-0.091,0.454-0.089,0.87-0.06,1.306c-0.036,0.384-0.104,1.139-0.142,1.893   c-0.005,0.099-0.011,0.197-0.016,0.292c-0.022,0.014-0.046,0.024-0.067,0.035c-0.223,0.109-0.452,0.222-0.668,0.343l-0.376,0.21   c-0.072,0.04-0.197,0.108-0.358,0.2l-1.051,0.587c-0.061-0.034-0.123-0.069-0.186-0.104c-0.649-0.361-1.314-0.697-1.663-0.872   c-0.127-0.091-0.267-0.188-0.414-0.276c-1.628-0.99-3.155-0.54-4.04,0.213l-0.56,0.476l-0.009,0.009l-0.008,0.007   c-0.277,0.242-0.572,0.521-0.885,0.817c-0.122,0.112-0.243,0.229-0.366,0.344l-0.029,0.027l-0.029,0.027   c-0.321,0.319-0.618,0.631-0.882,0.905c-0.1,0.104-0.192,0.2-0.275,0.287l-0.029,0.028l-0.027,0.029   c-0.295,0.324-0.496,0.559-0.55,0.623c-0.768,0.896-0.996,2.102-0.611,3.228c0.148,0.43,0.355,0.783,0.597,1.146l0.157,0.346   l0.007,0.016l0.007,0.016c0.186,0.395,0.426,0.886,0.662,1.344c0.041,0.085,0.085,0.168,0.128,0.25l-0.638,1l-0.039,0.064   l-0.037,0.063l-0.243,0.432l-0.009,0.019l-0.011,0.018c-0.04,0.074-0.088,0.154-0.138,0.24c-0.099,0.176-0.217,0.379-0.337,0.607   c-0.079,0-0.158,0-0.241,0.004c-0.462,0.005-0.967,0.025-1.495,0.054l-0.009,0.003h-0.007l-0.369,0.021   c-0.416-0.042-0.855-0.057-1.315,0.021c-1.179,0.202-2.132,0.974-2.556,2.067c-0.022,0.053-0.056,0.139-0.095,0.25l-0.762,2.017   l0.097,0.06c-0.019,0.068-0.036,0.141-0.055,0.212l-0.071,0.263c-0.138,0.505-0.267,0.983-0.355,1.434l-0.147,0.676   c-0.243,1.115,0.055,2.645,1.624,3.6c0.175,0.106,0.355,0.201,0.531,0.289c0.316,0.225,0.935,0.658,1.568,1.068   c0.082,0.053,0.166,0.108,0.248,0.16c-0.017,0.275-0.038,0.561-0.036,0.846l-0.009,0.41l-0.008,0.496l-0.001,0.03l0.001,0.029   c0,0.231,0.008,0.485,0.017,0.751c0.004,0.092,0.007,0.188,0.009,0.284c-0.072,0.044-0.146,0.087-0.219,0.134   c-0.543,0.327-1.015,0.627-1.244,0.778l-0.018,0.011l-0.016,0.01l-0.306,0.203c-0.38,0.173-0.771,0.382-1.13,0.681   c-0.933,0.782-1.364,1.95-1.155,3.13l0.133,0.73l0.01,0.062l0.015,0.062c0.027,0.117,0.057,0.248,0.088,0.386   c0.081,0.372,0.175,0.796,0.286,1.234l0.01,0.038l0.01,0.037c0.048,0.17,0.095,0.34,0.141,0.506c0.109,0.41,0.217,0.797,0.333,1.15   l0.224,0.684l0.004,0.009l0.001,0.01c0.254,0.754,0.737,1.366,1.399,1.771c0.857,0.521,1.741,0.523,2.398,0.481   c0.394,0.038,1.14,0.103,1.891,0.14c0.098,0.007,0.195,0.012,0.295,0.018c0.01,0.023,0.022,0.049,0.035,0.072   c0.106,0.22,0.219,0.449,0.34,0.662l0.209,0.375c0.032,0.061,0.103,0.189,0.2,0.36l0.176,0.315l0.01,0.005   c0.124,0.212,0.269,0.448,0.423,0.69c-0.042,0.071-0.082,0.146-0.124,0.223c-0.356,0.643-0.69,1.3-0.874,1.667   c-0.244,0.341-0.479,0.718-0.639,1.159c-0.417,1.148-0.201,2.378,0.574,3.294l0.479,0.559l0.007,0.01l0.007,0.007   c0.242,0.28,0.521,0.576,0.818,0.889c0.112,0.119,0.229,0.241,0.344,0.365l0.027,0.029l0.029,0.027   c0.312,0.316,0.618,0.607,0.89,0.868c0.107,0.104,0.209,0.2,0.3,0.289l0.029,0.029l0.031,0.026c0.322,0.296,0.561,0.5,0.62,0.551   c0.142,0.119,0.29,0.229,0.444,0.321c1.662,1.011,3.179,0.186,3.926-0.306l0.351-0.16l0.014-0.004l0.014-0.008   c0.387-0.181,0.876-0.419,1.344-0.661c0.085-0.042,0.17-0.085,0.251-0.128l1.003,0.637l0.063,0.039l0.063,0.035l0.43,0.244   l0.021,0.012l0.02,0.009c0.074,0.042,0.155,0.089,0.244,0.14c0.171,0.098,0.377,0.216,0.602,0.334   c0.002,0.083,0.004,0.167,0.004,0.25c0.007,0.451,0.024,0.954,0.054,1.486l0.002,0.009v0.007l0.024,0.367   c-0.088,0.863-0.106,2.603,1.558,3.614c0.165,0.099,0.343,0.188,0.526,0.259c0.105,0.043,0.428,0.168,0.882,0.308l0.007,0.002   l0.008,0.003c0.116,0.034,0.243,0.078,0.379,0.122c0.353,0.117,0.79,0.261,1.265,0.382l0.272,0.072   c0.503,0.138,0.978,0.265,1.423,0.353l0.684,0.148c1.19,0.259,2.383-0.139,3.188-1.064c0.3-0.346,0.504-0.703,0.696-1.094   c0.25-0.355,0.671-0.953,1.067-1.567c0.053-0.08,0.107-0.164,0.162-0.248c0.276,0.02,0.561,0.038,0.846,0.038l0.414,0.007   l0.487,0.01l0.028,0.001h0.029c0.235-0.001,0.488-0.009,0.755-0.019c0.095-0.004,0.188-0.008,0.285-0.01   c0.043,0.072,0.087,0.148,0.133,0.221c0.24,0.399,0.524,0.856,0.778,1.246l0.011,0.014l0.011,0.018l0.2,0.302   c0.246,0.55,0.674,1.343,1.532,1.866c0.679,0.413,1.488,0.562,2.278,0.422h0.011l0.007-0.002l0.713-0.13l0.063-0.01l0.063-0.016   c0.118-0.027,0.247-0.056,0.384-0.085c0.373-0.084,0.796-0.179,1.239-0.289l0.034-0.009l0.036-0.011   c0.169-0.048,0.338-0.093,0.501-0.139c0.412-0.112,0.802-0.217,1.158-0.335l0.684-0.224l0.006-0.003l0.01-0.002   c1.136-0.381,1.956-1.312,2.194-2.491c0.091-0.451,0.087-0.868,0.058-1.303c0.037-0.385,0.104-1.137,0.144-1.895   c0.006-0.098,0.011-0.196,0.015-0.295c0.024-0.009,0.045-0.021,0.069-0.031c0.221-0.108,0.45-0.222,0.663-0.342l0.381-0.212   c0.076-0.042,0.214-0.118,0.389-0.219l1.017-0.565c0.063,0.033,0.125,0.067,0.185,0.1c0.652,0.362,1.318,0.701,1.667,0.875   c0.126,0.092,0.268,0.188,0.414,0.276c1.628,0.991,3.154,0.539,4.038-0.213l0.559-0.478l0.01-0.008l0.011-0.006   c0.276-0.241,0.572-0.521,0.884-0.816c0.12-0.112,0.244-0.23,0.366-0.346l0.03-0.025l0.027-0.028   c0.319-0.315,0.616-0.626,0.878-0.899c0.1-0.105,0.194-0.203,0.281-0.293l0.027-0.029l0.026-0.029   c0.18-0.197,0.361-0.395,0.526-0.602l0.004,0.004c0.783-0.9,1.02-2.113,0.632-3.25c-0.148-0.432-0.356-0.785-0.597-1.146   l-0.157-0.35l-0.007-0.014l-0.008-0.014c-0.181-0.391-0.422-0.881-0.66-1.344c-0.042-0.084-0.085-0.168-0.129-0.25l0.638-1.001   l0.039-0.063l0.038-0.065l0.242-0.429l0.008-0.018l0.012-0.02c0.04-0.074,0.087-0.155,0.138-0.242   c0.099-0.172,0.219-0.379,0.338-0.605c0.077-0.003,0.157-0.003,0.239-0.004c0.448-0.005,0.951-0.023,1.493-0.055h0.009l0.011-0.002   l0.368-0.023c0.416,0.044,0.855,0.059,1.316-0.021c1.175-0.2,2.128-0.97,2.555-2.063c0.041-0.105,0.166-0.43,0.308-0.883   c0.041-0.129,0.082-0.256,0.127-0.391c0.116-0.354,0.262-0.792,0.381-1.27l0.075-0.277c0.136-0.498,0.263-0.971,0.351-1.414   l0.148-0.682c0.244-1.106-0.051-2.639-1.624-3.596c-0.175-0.108-0.355-0.202-0.533-0.291c-0.316-0.225-0.935-0.658-1.566-1.068   c-0.082-0.053-0.164-0.107-0.25-0.162c0.021-0.275,0.037-0.559,0.037-0.844l0.009-0.414l0.009-0.488V161.1v-0.031   c0-0.232-0.009-0.488-0.019-0.756c-0.004-0.094-0.006-0.186-0.009-0.279c0.072-0.044,0.147-0.088,0.219-0.133   c0.536-0.32,1.012-0.625,1.246-0.778l0.017-0.011l0.015-0.012l0.307-0.202c0.381-0.173,0.771-0.382,1.129-0.681   c0.933-0.78,1.364-1.949,1.157-3.127l-0.001-0.01l-0.002-0.008l-0.129-0.715l-0.012-0.062l-0.016-0.064   c-0.027-0.12-0.057-0.251-0.087-0.392c-0.082-0.369-0.177-0.789-0.287-1.227l-0.009-0.037l-0.011-0.037   c-0.047-0.17-0.093-0.337-0.138-0.502c-0.113-0.414-0.218-0.801-0.337-1.156l-0.223-0.684l-0.004-0.01l-0.002-0.007   c-0.251-0.755-0.733-1.366-1.398-1.771c-0.857-0.523-1.742-0.524-2.396-0.479c-0.384-0.037-1.136-0.104-1.89-0.143   c-0.1-0.006-0.199-0.01-0.295-0.016c-0.011-0.021-0.021-0.046-0.032-0.067c-0.111-0.222-0.224-0.452-0.343-0.668l-0.212-0.378   c-0.042-0.078-0.122-0.224-0.228-0.406l-0.149-0.267l-0.009-0.005c-0.123-0.211-0.268-0.449-0.421-0.691   c0.041-0.074,0.084-0.148,0.123-0.221c0.351-0.635,0.681-1.281,0.873-1.668c0.245-0.34,0.479-0.717,0.641-1.16   c0.415-1.146,0.2-2.379-0.577-3.292l-0.475-0.558l-0.008-0.011l-0.01-0.009c-0.24-0.278-0.52-0.571-0.816-0.886   c-0.111-0.12-0.229-0.243-0.344-0.366l-0.026-0.029l-0.028-0.027c-0.317-0.32-0.63-0.621-0.906-0.882   c-0.103-0.1-0.198-0.192-0.287-0.277l-0.026-0.027l-0.032-0.028c-0.319-0.291-0.554-0.492-0.617-0.547   C110.142,135.18,109.991,135.07,109.835,134.975 M96.687,143.98l0.476,0.269l0.379,0.214l0.357,0.229l0.272,0.17l0.2,0.129   c0.077,0.052,0.16,0.109,0.246,0.172c0.088,0.063,0.181,0.129,0.274,0.195c0.914,0.65,1.871,1.47,2.626,2.254   c0.804,0.827,1.616,1.831,2.182,2.694c0.266,0.407,0.479,0.755,0.62,0.986l0.221,0.396l0.199,0.36   c0.05,0.106,0.109,0.221,0.172,0.349c0.109,0.211,0.222,0.433,0.326,0.672l0.014,0.032l0.015,0.031   c0.444,0.957,0.873,2.18,1.144,3.27l0.001,0.007l0.002,0.008c0.277,1.092,0.478,2.371,0.537,3.423l0.002,0.034l0.001,0.034   c0.021,0.263,0.028,0.51,0.033,0.749c0.003,0.141,0.009,0.27,0.012,0.387l-0.009,0.408l-0.007,0.459   c-0.012,0.26-0.036,0.662-0.079,1.164c-0.091,1.022-0.333,2.293-0.647,3.391c-0.298,1.057-0.753,2.231-1.252,3.236   c-0.056,0.104-0.104,0.207-0.152,0.305c-0.047,0.096-0.091,0.184-0.135,0.267l-0.268,0.472l-0.004,0.006l-0.004,0.008l-0.207,0.369   l-0.228,0.356l-0.003,0.007l-0.004,0.006l-0.104,0.161l-0.186,0.298c-0.055,0.078-0.111,0.158-0.173,0.243   c-0.064,0.091-0.131,0.183-0.199,0.282c-0.648,0.913-1.47,1.867-2.252,2.62l-0.004,0.007l-0.006,0.004   c-0.818,0.797-1.821,1.607-2.686,2.174c-0.409,0.268-0.756,0.479-0.985,0.617l-0.398,0.221l-0.357,0.202   c-0.105,0.051-0.222,0.109-0.347,0.172c-0.214,0.108-0.436,0.22-0.675,0.325l-0.033,0.015l-0.03,0.015   c-0.956,0.445-2.178,0.873-3.27,1.144l-0.009,0.001l-0.007,0.002c-1.088,0.275-2.366,0.478-3.421,0.535l-0.033,0.002l-0.035,0.003   c-0.259,0.021-0.506,0.026-0.746,0.033c-0.141,0.002-0.273,0.005-0.391,0.013l-0.408-0.01l-0.457-0.006   c-0.269-0.013-0.676-0.039-1.165-0.08c-1.023-0.09-2.294-0.334-3.391-0.647c-1.061-0.3-2.234-0.755-3.237-1.253   c-0.102-0.053-0.202-0.101-0.298-0.148c-0.097-0.049-0.188-0.094-0.273-0.137l-0.307-0.176l-0.169-0.096l-0.38-0.213l-0.354-0.227   l-0.475-0.3c-0.077-0.052-0.161-0.11-0.248-0.175c-0.088-0.063-0.178-0.125-0.271-0.192c-0.917-0.649-1.872-1.472-2.626-2.252   c-0.803-0.827-1.616-1.832-2.185-2.697c-0.211-0.327-0.421-0.659-0.618-0.985l-0.22-0.398l-0.201-0.359   c-0.052-0.104-0.108-0.219-0.173-0.344c-0.108-0.215-0.219-0.436-0.324-0.676l-0.015-0.031l-0.014-0.031   c-0.445-0.957-0.873-2.18-1.145-3.271c-0.279-1.102-0.479-2.379-0.538-3.435l-0.002-0.035l-0.004-0.034   c-0.021-0.262-0.026-0.51-0.032-0.749c-0.002-0.141-0.006-0.269-0.011-0.386l0.007-0.402l0.007-0.463   c0.021-0.381,0.049-0.772,0.083-1.166c0.088-1.025,0.331-2.295,0.646-3.391c0.299-1.059,0.756-2.232,1.254-3.238   c0.052-0.104,0.103-0.207,0.152-0.303c0.045-0.096,0.088-0.186,0.132-0.268l0.271-0.475l0.213-0.381l0.228-0.356l0.174-0.272   l0.124-0.199c0.053-0.078,0.111-0.16,0.175-0.247c0.062-0.087,0.127-0.179,0.193-0.274c0.65-0.915,1.471-1.871,2.254-2.624   l0.005-0.004l0.004-0.005c0.818-0.797,1.822-1.609,2.688-2.176c0.324-0.213,0.666-0.426,0.985-0.617l0.398-0.223l0.358-0.198   c0.103-0.052,0.22-0.109,0.345-0.173c0.214-0.109,0.436-0.219,0.675-0.326l0.033-0.014l0.031-0.014   c0.956-0.445,2.178-0.873,3.269-1.144c1.104-0.28,2.384-0.48,3.437-0.54h0.034l0.034-0.005c0.264-0.022,0.51-0.026,0.749-0.032   c0.14-0.004,0.27-0.008,0.388-0.01l0.405,0.006l0.46,0.007c0.269,0.014,0.676,0.038,1.166,0.08   c1.024,0.092,2.294,0.334,3.387,0.647c1.061,0.299,2.235,0.753,3.24,1.252c0.104,0.056,0.205,0.105,0.305,0.153   C96.515,143.894,96.605,143.938,96.687,143.98"/>
	<path clip-path="url(#SVGID_2_)" fill="#7B838F" d="M141.697,177.143c0.019,0.012,0.036,0.025,0.055,0.039   c0,0,0.19,0.157,0.477,0.393c0.071,0.059,0.149,0.121,0.228,0.193c0.077,0.074,0.156,0.152,0.24,0.234   c0.163,0.162,0.339,0.339,0.513,0.513c0.36,0.339,0.657,0.734,0.895,1.02c0.232,0.289,0.388,0.48,0.388,0.48   c0.173,0.238,0.015,0.481-0.337,0.879c0,0-0.413,0.722-0.87,1.376c-0.229,0.334-0.458,0.647-0.653,0.887   c-0.191,0.232-0.319,0.389-0.319,0.389s0.069,0.133,0.173,0.331c0.099,0.198,0.261,0.454,0.357,0.737   c0.111,0.275,0.224,0.551,0.308,0.76c0.045,0.102,0.066,0.192,0.085,0.256c0.018,0.062,0.029,0.098,0.029,0.098   s0.036,0.131,0.092,0.324c0.029,0.096,0.063,0.209,0.097,0.329c0.036,0.122,0.077,0.25,0.096,0.386   c0.049,0.265,0.099,0.529,0.135,0.727c0.019,0.101,0.032,0.182,0.043,0.239c0.01,0.058,0.012,0.094,0.012,0.094   s0.759,0.193,1.529,0.467c0.385,0.136,0.77,0.287,1.058,0.407c0.29,0.119,0.469,0.207,0.472,0.207   c0.281,0.072,0.475,0.127,0.601,0.201c0.12,0.075,0.173,0.166,0.171,0.313c0,0-0.004,0.246-0.01,0.615   c0.003,0.186-0.02,0.4-0.043,0.631c-0.027,0.23-0.053,0.475-0.08,0.72c-0.015,0.122-0.029,0.245-0.044,0.365   c-0.023,0.119-0.045,0.235-0.066,0.351c-0.047,0.225-0.091,0.436-0.127,0.616c-0.04,0.182-0.071,0.332-0.095,0.438   c-0.02,0.104-0.042,0.162-0.042,0.162c-0.085,0.283-0.366,0.314-0.896,0.289c-0.001,0-0.817,0.129-1.612,0.182   c-0.395,0.031-0.813,0.036-1.111,0.038c-0.301-0.004-0.5-0.006-0.5-0.006s-0.059,0.138-0.144,0.345   c-0.046,0.103-0.086,0.228-0.154,0.349c-0.067,0.124-0.136,0.256-0.206,0.387c-0.146,0.261-0.27,0.534-0.403,0.713   c-0.124,0.186-0.207,0.31-0.207,0.31s-0.074,0.112-0.187,0.28c-0.104,0.174-0.279,0.379-0.45,0.586   c-0.175,0.207-0.336,0.422-0.474,0.567c-0.145,0.145-0.24,0.238-0.24,0.238s0.331,0.723,0.602,1.5   c0.141,0.393,0.254,0.778,0.334,1.073c0.076,0.297,0.128,0.495,0.128,0.495c0.237,0.522,0.314,0.743,0.086,0.931   c0,0-0.048,0.038-0.133,0.107c-0.084,0.063-0.198,0.171-0.354,0.27c-0.305,0.207-0.716,0.479-1.128,0.749   c-0.422,0.248-0.866,0.467-1.191,0.64c-0.324,0.177-0.556,0.263-0.556,0.263c-0.121,0.049-0.229,0.038-0.338-0.028   c-0.135-0.082-0.273-0.251-0.447-0.49c0,0-0.609-0.556-1.147-1.142c-0.552-0.604-1.03-1.241-1.03-1.241s-0.145,0.04-0.358,0.104   c-0.212,0.072-0.508,0.12-0.801,0.175c-0.292,0.048-0.584,0.12-0.809,0.129c-0.224,0.018-0.37,0.03-0.37,0.03   s-0.134,0.013-0.336,0.029c-0.2,0.026-0.469,0.015-0.739,0.012c-0.269-0.007-0.54,0.005-0.741-0.018   c-0.199-0.022-0.334-0.036-0.334-0.036s-0.358,0.707-0.799,1.406c-0.218,0.356-0.446,0.675-0.626,0.925   c-0.186,0.247-0.308,0.412-0.308,0.412c-0.261,0.513-0.387,0.714-0.674,0.651c0,0-0.061-0.012-0.167-0.036   c-0.105-0.02-0.253-0.059-0.43-0.113c-0.351-0.111-0.829-0.245-1.291-0.412c-0.456-0.186-0.911-0.378-1.25-0.523   c-0.327-0.173-0.547-0.286-0.547-0.286c-0.007-0.004-0.017-0.009-0.021-0.014c-0.237-0.144-0.204-0.42-0.068-0.914   c0,0,0.046-0.807,0.186-1.62c0.126-0.805,0.321-1.57,0.321-1.57s-0.031-0.021-0.086-0.058c-0.053-0.038-0.136-0.081-0.222-0.156   c-0.171-0.142-0.402-0.329-0.633-0.519c-0.239-0.181-0.436-0.405-0.597-0.559c-0.159-0.158-0.263-0.266-0.263-0.266   s-0.025-0.022-0.068-0.064c-0.039-0.045-0.104-0.097-0.165-0.178c-0.129-0.156-0.3-0.365-0.469-0.573   c-0.084-0.104-0.173-0.207-0.248-0.306c-0.069-0.108-0.135-0.204-0.19-0.29c-0.11-0.168-0.184-0.28-0.184-0.28   s-0.199,0.037-0.496,0.094c-0.294,0.052-0.708,0.12-1.105,0.161c-0.795,0.088-1.626,0.104-1.626,0.104   c-0.417,0.086-0.652,0.122-0.801,0.032c-0.054-0.031-0.097-0.082-0.131-0.149c0,0-0.029-0.054-0.079-0.15   c-0.045-0.099-0.101-0.241-0.172-0.413c-0.068-0.171-0.148-0.372-0.235-0.586c-0.082-0.216-0.187-0.442-0.248-0.681   c-0.143-0.474-0.28-0.949-0.375-1.306c-0.07-0.366-0.116-0.606-0.116-0.606c-0.054-0.293,0.185-0.441,0.67-0.648   c0,0,0.66-0.469,1.383-0.865c0.711-0.404,1.429-0.726,1.429-0.726s-0.003-0.038-0.008-0.102c-0.002-0.065-0.022-0.157-0.014-0.271   c0.001-0.224,0.004-0.521,0.008-0.82c0.003-0.074,0.003-0.149,0.004-0.223c0.004-0.072,0.015-0.143,0.021-0.212   c0.015-0.14,0.029-0.27,0.041-0.382c0.024-0.221,0.041-0.368,0.041-0.368s0.004-0.035,0.009-0.093   c0.004-0.061,0.019-0.141,0.04-0.241c0.042-0.197,0.097-0.461,0.15-0.724c0.043-0.267,0.141-0.521,0.194-0.716   c0.061-0.191,0.1-0.321,0.1-0.321s-0.153-0.131-0.384-0.328c-0.235-0.201-0.521-0.473-0.805-0.758   c-0.568-0.569-1.104-1.211-1.104-1.211c-0.441-0.367-0.625-0.543-0.487-0.801c0,0,0.114-0.218,0.289-0.548   c0.086-0.162,0.19-0.351,0.301-0.554c0.112-0.201,0.258-0.403,0.392-0.61c0.136-0.204,0.273-0.409,0.404-0.603   c0.123-0.195,0.272-0.354,0.385-0.501c0.236-0.287,0.392-0.478,0.392-0.478c0.19-0.226,0.449-0.141,0.92,0.117   c0,0,0.8,0.244,1.549,0.55c0.374,0.148,0.737,0.31,1.004,0.437c0.269,0.126,0.445,0.215,0.445,0.215s0.461-0.375,0.923-0.75   c0.498-0.328,0.994-0.656,0.994-0.656s0.478-0.25,0.954-0.501c0.238-0.125,0.496-0.208,0.681-0.288   c0.188-0.076,0.312-0.126,0.312-0.126s0.008-0.202,0.019-0.505c0.012-0.31,0.046-0.695,0.093-1.1c0.09-0.802,0.261-1.62,0.261-1.62   c0.01-0.577,0.032-0.829,0.323-0.882c0,0,0.241-0.045,0.607-0.113c0.184-0.033,0.395-0.071,0.623-0.111   c0.229-0.036,0.477-0.049,0.72-0.073c0.248-0.021,0.494-0.04,0.725-0.059c0.231-0.024,0.447-0.005,0.632-0.009   c0.37,0.004,0.616,0.007,0.616,0.007c0.071,0.002,0.13,0.018,0.18,0.049c0.159,0.097,0.231,0.341,0.3,0.746   c0,0,0.307,0.776,0.536,1.549c0.115,0.388,0.215,0.771,0.285,1.06c0.068,0.283,0.104,0.487,0.104,0.487s0.146,0.03,0.364,0.073   c0.218,0.053,0.516,0.096,0.8,0.18c0.285,0.09,0.568,0.177,0.782,0.242c0.107,0.033,0.195,0.06,0.256,0.088   c0.06,0.027,0.094,0.041,0.094,0.041s0.127,0.051,0.313,0.128c0.182,0.083,0.439,0.171,0.677,0.297   c0.238,0.127,0.474,0.254,0.654,0.351c0.089,0.047,0.162,0.086,0.212,0.113c0.019,0.01,0.032,0.017,0.044,0.023   c0.025,0.016,0.038,0.026,0.038,0.026s0.624-0.477,1.316-0.908c0.346-0.216,0.702-0.423,0.976-0.573   c0.277-0.154,0.458-0.24,0.458-0.24C141.288,177.145,141.489,177.016,141.697,177.143 M127.795,196.313   c0.384,0.232,0.812,0.452,1.27,0.61c0.855,0.328,1.765,0.475,2.445,0.53c0.344-0.01,0.627,0.014,0.827,0.001   c0.198-0.021,0.311-0.028,0.311-0.028s0.114-0.01,0.312-0.024c0.198-0.019,0.475-0.09,0.812-0.142   c0.66-0.168,1.522-0.463,2.32-0.924c0.791-0.477,1.466-1.091,1.932-1.587c0.207-0.272,0.404-0.478,0.517-0.643   c0.107-0.168,0.169-0.263,0.169-0.263s0.064-0.096,0.178-0.258c0.106-0.167,0.226-0.429,0.395-0.724   c0.283-0.623,0.595-1.49,0.72-2.396c0.151-0.906,0.073-1.826-0.039-2.494c-0.031-0.168-0.058-0.322-0.081-0.459   c-0.03-0.137-0.073-0.248-0.098-0.346c-0.056-0.189-0.086-0.299-0.086-0.299s-0.009-0.026-0.021-0.079   c-0.008-0.024-0.017-0.056-0.028-0.095c-0.014-0.034-0.032-0.076-0.05-0.121c-0.038-0.094-0.084-0.205-0.136-0.334   c-0.057-0.127-0.095-0.281-0.188-0.43c-0.292-0.621-0.803-1.394-1.418-2.057c-0.501-0.561-1.11-1.006-1.64-1.329   c-0.116-0.071-0.227-0.134-0.332-0.192c-0.15-0.082-0.288-0.157-0.409-0.223c-0.128-0.059-0.241-0.099-0.332-0.139   c-0.186-0.078-0.291-0.123-0.291-0.123s-0.103-0.055-0.296-0.104c-0.096-0.028-0.211-0.063-0.346-0.104   c-0.066-0.021-0.137-0.045-0.209-0.068c-0.075-0.02-0.159-0.031-0.242-0.049c-0.167-0.033-0.35-0.071-0.542-0.115   c-0.195-0.018-0.401-0.039-0.612-0.064c-0.054-0.006-0.107-0.014-0.162-0.021h-0.164c-0.109,0-0.222,0-0.334,0   c-0.11,0-0.225-0.014-0.337-0.004l-0.34,0.033c-0.903,0.08-1.796,0.297-2.417,0.588c-0.324,0.107-0.565,0.271-0.747,0.358   c-0.178,0.091-0.28,0.142-0.28,0.142s-0.095,0.065-0.26,0.178c-0.162,0.117-0.423,0.248-0.674,0.482   c-0.554,0.4-1.178,1.076-1.683,1.83l-0.191,0.283c-0.063,0.094-0.106,0.2-0.161,0.299c-0.055,0.098-0.106,0.195-0.16,0.291   l-0.079,0.145c-0.018,0.051-0.041,0.101-0.059,0.15c-0.08,0.199-0.161,0.389-0.241,0.568c-0.053,0.189-0.106,0.367-0.159,0.53   c-0.025,0.081-0.054,0.157-0.075,0.233c-0.014,0.076-0.029,0.149-0.041,0.219c-0.027,0.137-0.053,0.256-0.073,0.354   c-0.051,0.193-0.052,0.309-0.052,0.309s-0.014,0.114-0.032,0.313c-0.01,0.1-0.028,0.219-0.041,0.357   c0,0.139-0.002,0.297-0.002,0.466c0,0.683,0.079,1.601,0.38,2.46c0.286,0.861,0.717,1.685,1.119,2.239   c0.085,0.15,0.202,0.26,0.284,0.368c0.089,0.109,0.165,0.204,0.228,0.279c0.03,0.04,0.058,0.074,0.081,0.105   c0.029,0.027,0.051,0.051,0.072,0.069c0.037,0.037,0.058,0.056,0.058,0.056s0.082,0.08,0.222,0.22   c0.071,0.068,0.15,0.164,0.253,0.255c0.109,0.086,0.23,0.185,0.363,0.292C127.15,195.887,127.454,196.107,127.795,196.313    M143.194,174.682L143.194,174.682c-0.907-0.553-1.998-0.617-2.99-0.183c-0.328,0.146-0.607,0.327-0.862,0.512   c-0.088,0.047-0.197,0.105-0.321,0.173c-0.213,0.117-0.641,0.359-1.115,0.656c-0.002,0.002-0.002,0.002-0.003,0.002   c-0.04-0.016-0.08-0.031-0.114-0.047c-0.042-0.016-0.08-0.031-0.114-0.045l-0.039-0.02l-0.036-0.014l-0.304-0.127l-0.06-0.023   c-0.221-0.098-0.42-0.16-0.564-0.201c-0.122-0.039-0.268-0.084-0.421-0.132c-0.176-0.587-0.384-1.164-0.505-1.491   c-0.135-0.643-0.476-1.745-1.587-2.42c-0.479-0.293-1.036-0.453-1.607-0.469h-0.016h-0.018l-0.614-0.007l-0.047-0.002l-0.049,0.002   c-0.025,0-0.057-0.002-0.09-0.002c-0.172-0.005-0.433-0.007-0.739,0.022c-0.223,0.02-0.462,0.035-0.699,0.056l-0.025,0.001   l-0.024,0.005c-0.064,0.005-0.128,0.011-0.19,0.016c-0.206,0.019-0.437,0.036-0.694,0.077l-0.03,0.004l-0.028,0.006l-0.629,0.113   l-0.013,0.002l-0.012,0.002l-0.598,0.112c-1.204,0.221-2.138,1.054-2.497,2.232c-0.125,0.407-0.162,0.784-0.175,1.162   c-0.07,0.362-0.181,0.988-0.251,1.616c0,0.004,0,0.008-0.002,0.013l-0.529,0.278l-0.13,0.066l-0.121,0.08l-0.724,0.479   c-0.567-0.231-1.157-0.43-1.492-0.539c-0.339-0.169-0.734-0.333-1.188-0.41c-1.156-0.197-2.292,0.214-3.043,1.103l-0.015,0.018   l-0.013,0.016l-0.393,0.477l-0.032,0.041l-0.031,0.039c-0.013,0.018-0.03,0.039-0.049,0.061c-0.114,0.138-0.281,0.34-0.455,0.609   l-0.127,0.187l-0.26,0.39l-0.014,0.021l-0.015,0.021c-0.036,0.052-0.07,0.106-0.105,0.158c-0.111,0.165-0.249,0.372-0.382,0.61   l-0.008,0.016l-0.008,0.014l-0.104,0.195l-0.198,0.363l-0.007,0.012l-0.007,0.012l-0.288,0.548   c-0.57,1.082-0.495,2.327,0.198,3.336c0.239,0.349,0.512,0.614,0.797,0.858c0.226,0.266,0.645,0.738,1.1,1.193   c0.003,0.005,0.008,0.008,0.012,0.014l-0.04,0.194c-0.045,0.205-0.076,0.394-0.093,0.574l-0.004,0.056l-0.043,0.374l-0.039,0.367   l-0.002,0.021l-0.004,0.03l-0.002,0.018c-0.004,0.038-0.009,0.075-0.012,0.114c-0.561,0.31-1.071,0.643-1.371,0.844   c-2.272,1.119-2.212,2.936-2.072,3.689l0.12,0.618l0.019,0.104l0.027,0.102c0.091,0.34,0.221,0.791,0.385,1.344   c0.089,0.321,0.193,0.583,0.271,0.776c0.018,0.044,0.036,0.086,0.051,0.129l0.015,0.037l0.015,0.034l0.132,0.333l0.104,0.253   l0.003,0.009l0.004,0.009l0.054,0.13c0.064,0.153,0.117,0.286,0.161,0.385l0.028,0.06l0.031,0.059l0.071,0.139   c0.283,0.552,0.697,0.999,1.2,1.305c0.989,0.603,1.981,0.499,2.628,0.38c0.349-0.014,0.974-0.044,1.602-0.111   c0.012-0.002,0.021-0.004,0.031-0.004c0.037,0.043,0.071,0.087,0.104,0.126c0.136,0.177,0.264,0.305,0.339,0.378l0.045,0.045   l0.07,0.072l0.259,0.255l0.021,0.024l0.024,0.021c0.025,0.025,0.053,0.053,0.079,0.081c0.077,0.077,0.169,0.171,0.278,0.275   c-0.106,0.642-0.166,1.253-0.192,1.6c-0.495,2.257,0.664,3.356,1.425,3.818c0.052,0.033,0.105,0.063,0.159,0.093l0.015,0.008   l0.015,0.007l0.544,0.284l0.097,0.05l0.1,0.044c0.25,0.108,0.75,0.321,1.306,0.546l0.047,0.021l0.048,0.016   c0.414,0.15,0.813,0.272,1.134,0.368c0.101,0.031,0.197,0.061,0.281,0.087c0.27,0.084,0.507,0.147,0.722,0.189l0.124,0.027h0.007   l0.008,0.002c1.12,0.24,2.258-0.118,3.045-0.953c0.295-0.315,0.502-0.652,0.676-0.981l0.168-0.222l0.015-0.02l0.014-0.02   c0.23-0.319,0.475-0.666,0.729-1.078c0.149-0.003,0.309-0.014,0.472-0.031l0.279-0.023c0.028-0.003,0.145-0.013,0.315-0.027   c0.258-0.013,0.49-0.049,0.695-0.087c0.422,0.462,0.862,0.886,1.116,1.123c0.283,0.367,0.623,0.729,1.1,1.017   c0.88,0.534,1.925,0.625,2.879,0.252c0.138-0.055,0.464-0.187,0.873-0.409c0.078-0.041,0.162-0.084,0.253-0.131   c0.298-0.155,0.668-0.347,1.05-0.574l0.045-0.027l0.042-0.027c0.495-0.319,0.935-0.613,1.163-0.768   c0.227-0.15,0.4-0.293,0.495-0.371l0.013-0.012l0.017-0.01l0.041-0.037l0.13-0.102c0.901-0.732,1.34-1.846,1.18-2.984   c-0.061-0.432-0.193-0.795-0.344-1.146l-0.068-0.263l-0.005-0.017l-0.003-0.014c-0.083-0.308-0.221-0.774-0.396-1.27   c0.091-0.12,0.184-0.25,0.27-0.389l0.156-0.236l0.175-0.26c0.151-0.212,0.269-0.418,0.366-0.601c0.617-0.042,1.23-0.12,1.587-0.17   c2.387-0.012,3.188-1.492,3.44-2.25c0.044-0.131,0.095-0.302,0.135-0.509l0.014-0.059l0.075-0.352l0.001-0.01l0.003-0.01   l0.129-0.622l0.002-0.015l0.004-0.017l0.019-0.102l0.048-0.244l0.022-0.107l0.013-0.107l0.011-0.093l0.032-0.279v-0.01l0.002-0.008   l0.025-0.237l0.053-0.478c0.034-0.314,0.063-0.614,0.061-0.936l0.011-0.585c0.012-1.166-0.568-2.217-1.554-2.816   c-0.382-0.23-0.75-0.359-1.121-0.461c-0.099-0.044-0.215-0.094-0.351-0.148c-0.212-0.091-0.671-0.275-1.2-0.463   c0,0-0.003,0-0.005-0.002c-0.034-0.116-0.065-0.225-0.093-0.318l-0.094-0.324L146,184.82c-0.031-0.105-0.088-0.308-0.192-0.553   c-0.044-0.109-0.094-0.236-0.147-0.367c0.35-0.506,0.667-1.023,0.859-1.348c1.587-1.995,0.751-3.611,0.302-4.23l-0.041-0.059   l-0.046-0.057l-0.389-0.482l-0.019-0.021l-0.018-0.021c-0.047-0.056-0.096-0.117-0.148-0.18c-0.231-0.285-0.543-0.67-0.942-1.051   l-0.096-0.096l-0.393-0.392l-0.008-0.007l-0.008-0.011l-0.108-0.104l-0.128-0.125l-0.047-0.047l-0.049-0.045   c-0.087-0.077-0.173-0.148-0.254-0.217l-0.047-0.039l-0.011-0.008l-0.012-0.01l-0.476-0.394l-0.007-0.005l-0.008-0.006   C143.45,174.85,143.325,174.762,143.194,174.682 M134.22,184.605l0.129,0.07l0.156,0.086c0.062,0.031,0.137,0.076,0.213,0.123   c0.409,0.248,0.75,0.521,0.99,0.79l0.016,0.016l0.016,0.017c0.455,0.492,0.782,1.023,0.927,1.328l0.069,0.148   c0.018,0.049,0.041,0.107,0.069,0.17l0.084,0.211l0.031,0.076l0.005,0.008l0.083,0.294c0.016,0.063,0.036,0.13,0.06,0.2   l0.033,0.185l0.022,0.134c0.095,0.565,0.107,1.108,0.036,1.531l-0.007,0.036l-0.003,0.038c-0.064,0.449-0.224,0.988-0.443,1.501   c-0.078,0.138-0.144,0.264-0.193,0.359c-0.021,0.039-0.039,0.077-0.059,0.11l-0.129,0.191l-0.015,0.021l-0.013,0.019l-0.127,0.197   c-0.024,0.029-0.051,0.058-0.079,0.09c-0.068,0.084-0.156,0.189-0.252,0.311c-0.258,0.264-0.694,0.673-1.214,0.989   c-0.528,0.303-1.099,0.487-1.453,0.585c-0.149,0.023-0.285,0.052-0.39,0.071c-0.042,0.01-0.082,0.017-0.119,0.024l-0.245,0.019   l-0.019,0.001l-0.02,0.002l-0.229,0.021c-0.037,0-0.081-0.002-0.129-0.004c-0.109-0.002-0.247-0.005-0.405-0.005   c-0.551-0.051-1.101-0.172-1.526-0.336l-0.035-0.012l-0.036-0.014c-0.224-0.08-0.47-0.197-0.726-0.354   c-0.201-0.124-0.4-0.264-0.597-0.418l-0.138-0.112l-0.112-0.091c-0.052-0.052-0.099-0.1-0.146-0.145   c-0.142-0.142-0.223-0.222-0.223-0.222l-0.002-0.002l-0.042-0.052l-0.153-0.191c-0.044-0.055-0.083-0.102-0.117-0.142l-0.097-0.133   c-0.197-0.272-0.503-0.815-0.715-1.45l-0.007-0.022l-0.008-0.022c-0.141-0.4-0.217-0.932-0.218-1.5l0.001-0.211v-0.104   c0.002-0.009,0.002-0.019,0.003-0.027c0.01-0.075,0.019-0.145,0.025-0.211c0.013-0.138,0.023-0.235,0.028-0.269l0.009-0.047   l0.072-0.346l0.006-0.029l0.005-0.029c0.003-0.015,0.005-0.03,0.009-0.046c0.009-0.024,0.018-0.052,0.025-0.077   c0.042-0.135,0.086-0.272,0.125-0.412c0.069-0.156,0.133-0.313,0.194-0.466l0.006-0.007l0.038-0.072l0.11-0.205   c0.031-0.057,0.061-0.11,0.09-0.166l0.119-0.178l0.005-0.008l0.006-0.008c0.357-0.531,0.75-0.938,0.981-1.106l0.14-0.102   l0.104-0.095c0.024-0.016,0.067-0.045,0.103-0.065c0.08-0.052,0.178-0.114,0.287-0.189l0.078-0.056   c0.027-0.012,0.056-0.026,0.086-0.042c0.12-0.059,0.222-0.116,0.305-0.16c0.034-0.019,0.078-0.044,0.104-0.058l0.134-0.043   l0.16-0.075c0.258-0.122,0.804-0.271,1.442-0.327h0.009l0.01-0.002l0.212-0.02c0.062,0.002,0.123,0.004,0.186,0.004l0.221,0.001   l0.093,0.003h0.014c0.171,0.02,0.34,0.037,0.503,0.055c0.146,0.032,0.285,0.059,0.416,0.086c0.029,0.006,0.056,0.012,0.083,0.016   l0.054,0.018l0.02,0.008l0.018,0.004l0.319,0.099l0.036,0.011l0.037,0.012l0.264,0.111c0.049,0.022,0.112,0.049,0.183,0.074   C134.204,184.6,134.214,184.602,134.22,184.605"/>
</g>
</svg>