<svg xmlns="http://www.w3.org/2000/svg" width="636" height="154">
  <g fill="none" fill-rule="evenodd">
    <path stroke="#4990E2" d="M2 32.5h302.5M2 73.5h302.5m-31-66v85.006M32.5 7.5v85.006" stroke-linecap="round" stroke-linejoin="round" stroke-dasharray="2 4"/>
    <circle cx="33" cy="33" r="2" fill="#FFF" stroke="#4990E2"/>
    <circle cx="33" cy="73" r="2" fill="#FFF" stroke="#4990E2"/>
    <circle cx="273" cy="33" r="2" fill="#FFF" stroke="#4990E2"/>
    <circle cx="274" cy="73" r="2" fill="#FFF" stroke="#4990E2"/>
    <circle cx="362" cy="42" r="9" fill="#EE6723" stroke="#574751" stroke-opacity=".4"/>
    <circle cx="498" cy="42" r="9" fill="#BCB5B9" stroke="#574751" stroke-opacity=".4"/>
    <path fill="#BCB5B9" d="M516.908 72.943l-.61-.023c-.277 0-.508.06-.694.176-.185.117-.33.283-.43.498V78h-1.424v-6.34h1.3l.095.92c.16-.324.366-.578.618-.762.252-.183.542-.275.87-.275.086 0 .166.007.24.02.074.014.143.03.205.05l-.17 1.33zm.738 1.975c0-1.008.22-1.822.663-2.443.44-.62 1.05-.932 1.83-.932.38 0 .71.08 1 .243.28.162.53.396.73.7l.14-.826h1.18V78c0 .816-.25 1.447-.76 1.893-.51.445-1.22.668-2.15.668-.31 0-.64-.04-1-.13s-.68-.2-.97-.35l.3-1.12c.23.13.49.22.77.29.28.07.58.11.88.11.51 0 .89-.11 1.13-.33.23-.22.35-.56.35-1.02v-.65c-.2.26-.44.45-.71.58-.27.13-.58.2-.93.2-.78 0-1.39-.28-1.83-.85-.45-.56-.67-1.31-.67-2.23v-.12zm1.424.123c0 .59.117 1.05.35 1.4.23.35.592.53 1.08.53.305 0 .562-.06.77-.19.21-.12.378-.31.507-.55v-2.78c-.132-.23-.303-.41-.512-.54-.21-.13-.46-.19-.753-.19-.49 0-.85.21-1.087.62-.237.41-.355.95-.355 1.6v.13zm11.198 0c0 .93-.216 1.68-.648 2.24-.432.57-1.04.85-1.825.85-.395 0-.737-.08-1.028-.24-.29-.16-.535-.39-.73-.7l-.14.82H524.7v-9.14h1.425v3.52c.195-.27.43-.47.703-.62.274-.14.592-.21.955-.21.793 0 1.405.31 1.837.93.432.62.648 1.43.648 2.45v.13zm-1.424-.12c0-.66-.114-1.19-.34-1.6-.227-.4-.586-.61-1.078-.61-.317 0-.58.07-.794.21-.213.14-.382.34-.507.59v2.66c.12.26.29.45.504.59.21.14.48.21.8.21.49 0 .85-.17 1.07-.52.22-.34.33-.81.33-1.4v-.12zm9.1 3.08h-1.424v-7.17h-1.735v-1.05l3.158-.3V78zm8.642-6.28c0 .43-.117.81-.352 1.14-.234.34-.552.59-.955.77.46.18.83.45 1.11.81.27.36.41.77.41 1.24 0 .8-.26 1.4-.79 1.82-.53.42-1.21.63-2.05.63-.85 0-1.54-.21-2.07-.63-.53-.42-.79-1.02-.79-1.82 0-.47.13-.88.4-1.24s.64-.63 1.11-.81c-.41-.17-.73-.42-.96-.75-.23-.33-.35-.71-.35-1.14 0-.76.24-1.34.72-1.75.48-.41 1.11-.61 1.89-.61.77 0 1.41.21 1.89.62.49.42.73 1 .73 1.76zm-1.2 3.89c0-.42-.135-.76-.403-1.02-.267-.26-.608-.39-1.022-.39-.42 0-.76.13-1.02.39s-.39.6-.39 1.03c0 .43.13.77.39 1.02s.61.37 1.04.37c.42 0 .76-.12 1.02-.37s.39-.58.39-1.01zm-.224-3.83c0-.37-.11-.68-.334-.92-.223-.24-.512-.36-.867-.36-.36 0-.65.12-.87.35-.21.23-.32.55-.32.94 0 .39.11.7.33.93.22.24.51.35.88.35.36 0 .65-.11.87-.35.22-.23.33-.54.33-.93zm8.244-.05c0 .43-.117.81-.35 1.14-.236.34-.554.59-.956.77.464.18.835.45 1.11.81.275.36.413.77.413 1.24 0 .8-.262 1.4-.785 1.82-.524.42-1.205.63-2.045.63-.852 0-1.54-.21-2.063-.63-.523-.42-.785-1.02-.785-1.82 0-.47.136-.88.408-1.24.27-.36.643-.63 1.116-.81-.41-.17-.73-.42-.96-.75-.23-.33-.35-.71-.35-1.14 0-.76.24-1.34.72-1.75.48-.41 1.11-.61 1.89-.61.78 0 1.41.21 1.89.62.48.42.73 1 .73 1.76zm-1.2 3.89c0-.42-.135-.76-.402-1.02-.268-.26-.61-.39-1.023-.39-.42 0-.76.13-1.02.39s-.39.6-.39 1.03c0 .43.13.77.39 1.02s.61.37 1.04.37c.42 0 .76-.12 1.02-.37.26-.24.39-.58.39-1.01zm-.224-3.83c0-.37-.11-.68-.334-.92-.222-.24-.51-.36-.867-.36-.36 0-.65.12-.87.35-.21.23-.31.55-.31.94s.11.7.33.93c.22.24.51.35.88.35.36 0 .65-.11.87-.35.22-.23.33-.54.33-.93zm4.342 6.05l-.908 1.83h-.902l.41-1.88v-1.16h1.4v1.21zm4.787.19h-1.42v-7.18h-1.73V69.8l3.16-.304V78zm8.65-6.28c0 .43-.11.81-.35 1.14-.23.34-.55.59-.95.77.47.18.84.45 1.11.81.28.36.42.77.42 1.24 0 .8-.26 1.4-.78 1.82-.52.42-1.21.63-2.04.63-.85 0-1.54-.21-2.06-.63-.52-.42-.78-1.02-.78-1.82 0-.47.14-.88.41-1.24.28-.36.65-.63 1.12-.81-.4-.17-.72-.42-.95-.75-.23-.33-.34-.71-.34-1.14 0-.76.24-1.34.72-1.75.48-.41 1.11-.62 1.9-.62.78 0 1.41.21 1.9.62.49.41.73 1 .73 1.76zm-1.2 3.89c0-.42-.13-.76-.4-1.02s-.6-.39-1.02-.39c-.42 0-.76.13-1.02.39s-.39.61-.39 1.03c0 .43.13.77.39 1.02s.61.37 1.04.37c.42 0 .76-.12 1.02-.37s.4-.58.4-1.01zm-.22-3.83c0-.37-.11-.68-.33-.92-.22-.24-.51-.36-.86-.36-.37 0-.66.12-.87.35-.21.23-.32.55-.32.94 0 .39.11.7.33.93.22.23.51.35.88.35.36 0 .65-.12.87-.35.22-.23.33-.54.33-.93zm6.43 6.23h-1.42v-7.18h-1.74V69.8l3.16-.303V78zm4.74-.18l-.91 1.83h-.9l.41-1.88v-1.16h1.4v1.21zm4.79.19h-1.42v-7.18h-1.73V69.8l3.16-.305V78zm8.64-6.28c0 .43-.11.81-.35 1.14-.23.33-.55.59-.95.76.47.18.84.45 1.11.81.28.36.42.77.42 1.24 0 .8-.26 1.4-.78 1.82-.52.42-1.2.63-2.04.63-.85 0-1.54-.21-2.06-.63-.52-.42-.78-1.02-.78-1.82 0-.47.14-.88.41-1.24.28-.36.65-.63 1.12-.81-.4-.17-.72-.42-.95-.75-.23-.33-.34-.71-.34-1.14 0-.76.24-1.34.72-1.75.48-.41 1.11-.62 1.9-.62.78 0 1.41.21 1.9.62.49.41.73.99.73 1.75zm-1.2 3.88c0-.41-.13-.75-.4-1.02s-.61-.39-1.02-.39c-.42 0-.76.13-1.02.39s-.39.6-.39 1.03c0 .43.13.77.39 1.02s.61.37 1.04.37c.42 0 .76-.13 1.02-.37s.39-.59.39-1.01zm-.22-3.83c0-.37-.11-.68-.33-.92-.22-.24-.51-.36-.86-.36-.36 0-.65.12-.87.35-.21.23-.32.54-.32.93s.11.7.33.93c.22.24.51.35.88.35.36 0 .65-.11.87-.35.22-.23.33-.54.33-.93zm3.13 2.42l.49-4.71h4.51v1.23h-3.32l-.26 2.14c.17-.12.37-.23.59-.31.22-.08.47-.12.75-.13.8 0 1.43.25 1.88.77.46.52.68 1.22.68 2.12 0 .84-.24 1.52-.71 2.05-.47.53-1.16.8-2.06.8-.75 0-1.38-.21-1.9-.62-.52-.41-.77-1-.75-1.76l.01-.03 1.33-.04c0 .41.12.74.37.97.24.23.56.35.94.35.45 0 .78-.15 1.01-.46.24-.31.35-.72.35-1.233s-.12-.933-.35-1.26c-.23-.32-.57-.482-1.02-.482-.39 0-.68.06-.87.19-.19.127-.32.31-.41.548l-1.22-.1zm-77.63-14.6h-1.32l-.44 2.4h-.98l.45-2.4h-1.35v-.93h1.53l.34-1.83h-1.43v-.93h1.6l.46-2.43h.98l-.45 2.43h1.31l.46-2.44h.98l-.46 2.44h1.22v.93h-1.4l-.34 1.83h1.3v.93H518l-.448 2.41h-.98l.45-2.41zm-1.14-.92h1.32l.34-1.83h-1.32l-.34 1.84zm5.39 3.32V53.5h2.84c.95 0 1.68.192 2.22.58.53.39.8.97.8 1.743 0 .384-.11.73-.33 1.034-.22.302-.53.53-.93.68.51.11.9.354 1.17.73.28.373.41.81.41 1.305 0 .81-.26 1.41-.78 1.83-.52.42-1.24.63-2.17.63h-3.22zm1.43-3.88v2.74h1.8c.49 0 .87-.11 1.14-.33.27-.22.4-.55.4-.97 0-.45-.11-.8-.33-1.05-.22-.25-.57-.37-1.04-.37h-1.95zm0-1.06h1.57c.44 0 .79-.1 1.05-.31s.39-.51.39-.89c0-.43-.13-.74-.4-.94-.27-.21-.66-.31-1.18-.31h-1.41v2.45zm12.49 2.11l.02.04c.02.87-.26 1.57-.84 2.11-.58.54-1.36.81-2.34.81-1 0-1.81-.33-2.43-1-.62-.67-.93-1.52-.93-2.57v-1.63c0-1.04.31-1.89.92-2.57.62-.67 1.42-1.01 2.4-1.01 1.01 0 1.8.27 2.38.8.58.53.86 1.24.85 2.14l-.01.04h-1.38c0-.57-.15-1.02-.46-1.34-.31-.32-.77-.48-1.37-.48-.59 0-1.05.23-1.39.69-.34.46-.51 1.04-.51 1.74v1.64c0 .71.17 1.29.52 1.75.35.46.82.69 1.41.69s1.04-.16 1.35-.48c.31-.31.46-.76.46-1.34h1.37zm1.41 2.83V53.5h2.84c.95 0 1.69.192 2.22.58.53.39.8.97.8 1.743 0 .384-.11.73-.34 1.034-.22.302-.53.53-.92.68.51.11.9.354 1.17.73.28.373.41.81.41 1.305 0 .81-.26 1.41-.78 1.83-.52.42-1.24.63-2.17.63h-3.22zm1.43-3.88v2.74h1.8c.49 0 .87-.11 1.14-.33.27-.22.4-.55.4-.97 0-.45-.11-.8-.33-1.05-.22-.25-.57-.37-1.05-.37H538zm0-1.06h1.57c.44 0 .79-.1 1.05-.31s.39-.51.39-.89c0-.43-.13-.74-.4-.94-.27-.21-.66-.31-1.18-.31H538v2.45zm6.25 1.13l.5-4.71h4.51v1.23h-3.32l-.26 2.13c.17-.12.36-.23.58-.31.22-.08.47-.12.75-.13.8-.01 1.43.25 1.88.76.46.52.68 1.22.68 2.12 0 .84-.23 1.52-.71 2.05-.47.53-1.16.8-2.06.8-.75 0-1.38-.21-1.9-.62-.52-.41-.76-1-.75-1.75l.01-.03 1.33-.04c0 .41.13.73.37.97.25.23.56.35.95.35.44 0 .78-.15 1.01-.46.24-.31.35-.72.35-1.23s-.12-.93-.36-1.26c-.24-.32-.58-.48-1.02-.48-.39 0-.68.07-.87.19-.19.13-.32.31-.41.55l-1.22-.1zm6.83 3.8V53.5h2.84c.95 0 1.69.195 2.22.58.54.39.8.97.8 1.747 0 .388-.11.733-.33 1.038-.22.31-.53.53-.92.68.51.117.9.36 1.17.736.28.38.41.81.41 1.31 0 .81-.26 1.41-.78 1.83-.52.42-1.24.63-2.17.63h-3.21zm1.43-3.88v2.75h1.79c.5 0 .87-.11 1.14-.33.27-.22.4-.55.4-.97 0-.45-.11-.8-.33-1.05-.22-.25-.57-.37-1.04-.37h-1.95zm0-1.06h1.57c.44 0 .79-.1 1.05-.31s.39-.5.39-.89c0-.43-.13-.74-.4-.94-.27-.21-.66-.31-1.18-.31h-1.41v2.45zm8.35 3.93c.51 0 .92-.18 1.23-.56.31-.37.47-.92.47-1.65v-.39c-.19.26-.42.46-.7.6-.28.14-.58.2-.91.2-.81 0-1.45-.25-1.92-.77-.47-.51-.71-1.22-.71-2.11 0-.85.27-1.55.79-2.11.53-.55 1.18-.83 1.96-.83.89 0 1.59.29 2.12.87.53.58.79 1.42.79 2.51v2c0 1.08-.29 1.92-.87 2.51-.58.6-1.33.9-2.24.9-.29 0-.59-.03-.91-.08-.31-.06-.6-.15-.86-.27l.19-1.09c.24.11.49.19.74.24.25.05.54.07.85.07zm.23-2.91c.36 0 .66-.07.91-.21.25-.14.44-.32.57-.55v-.76c0-.67-.13-1.18-.38-1.53-.25-.35-.62-.52-1.08-.52-.38 0-.7.17-.96.52-.26.34-.39.77-.39 1.29 0 .53.12.96.36 1.29.24.33.57.49.99.49z"/>
    <path fill="#574751" d="M516.81 43.098h-1.126l-.416 2.402h-1.08l.423-2.402h-1.33v-.99h1.5l.3-1.7h-1.36v-1.002h1.54l.43-2.437h1.07l-.43 2.43h1.13l.44-2.44h1.07l-.43 2.43h1.29v1.01h-1.46l-.3 1.7h1.32v.99h-1.49l-.42 2.4h-1.08l.43-2.4zm-.95-.99h1.12l.297-1.7h-1.125l-.293 1.7zm10.452 1.124h.036l.826-4.072h1.605l-1.62 6.34h-1.43l-1.18-3.773h-.04l-1.17 3.773h-1.43l-1.61-6.34h1.6l.84 4.06h.04l1.18-4.06h1.14l1.19 4.072zm7.038 2.268c-.063-.145-.117-.297-.162-.457-.044-.16-.077-.324-.096-.492-.176.31-.407.57-.695.77-.287.21-.63.31-1.028.31-.67 0-1.18-.17-1.54-.51-.36-.34-.54-.8-.54-1.39 0-.62.24-1.1.72-1.44.47-.34 1.17-.51 2.09-.51h.95v-.5c0-.3-.08-.54-.24-.71-.16-.16-.4-.25-.71-.25-.28 0-.49.07-.64.2-.15.14-.23.32-.23.56h-1.65l-.01-.03c-.03-.53.2-1 .69-1.38.49-.39 1.14-.58 1.94-.58.76 0 1.37.19 1.84.58.47.39.71.93.71 1.65v2.62c0 .3.02.58.06.84.04.26.12.52.21.78h-1.71zm-1.565-1.143c.3 0 .57-.074.803-.222.234-.15.392-.32.475-.516v-.9h-.956c-.363 0-.638.09-.826.27-.18.18-.28.4-.28.66 0 .21.07.38.21.51.15.13.34.19.58.19zm7.623-3.726l-.627-.01c-.25 0-.46.06-.62.16-.16.11-.29.26-.37.45v4.28h-1.7v-6.34h1.59l.08.94c.15-.33.34-.59.58-.78.24-.18.51-.27.82-.27.09 0 .17.01.24.02.07.02.15.03.22.05l-.18 1.52zm2.455-1.47l.07.84c.204-.3.46-.54.765-.7.307-.16.66-.25 1.064-.25.406 0 .754.09 1.043.27.29.18.507.45.656.82.2-.34.45-.6.77-.79.31-.19.68-.28 1.1-.28.63 0 1.12.22 1.48.65.36.44.55 1.09.55 1.98v3.83h-1.71v-3.85c0-.48-.08-.81-.23-1-.15-.19-.38-.28-.69-.28-.24 0-.45.05-.63.16-.17.11-.32.26-.42.45 0 .08 0 .14.01.19 0 .06.01.11.01.17v4.16H544v-3.84c0-.47-.072-.8-.23-.99-.155-.19-.39-.29-.7-.29-.23 0-.433.05-.607.13-.174.09-.317.21-.43.37v4.62h-1.71v-6.34h1.586zm15.487 5.18c-.254.34-.65.64-1.187.9s-1.216.4-2.036.4c-1.043 0-1.895-.32-2.555-.97-.66-.64-.99-1.49-.99-2.52v-1.78c0-1.03.317-1.87.952-2.52.635-.65 1.452-.97 2.452-.97 1.04 0 1.835.26 2.388.76.553.51.835 1.17.847 2l-.01.04h-1.61c-.03-.45-.17-.81-.43-1.07s-.63-.39-1.13-.39c-.52 0-.94.2-1.26.61-.32.41-.48.93-.48 1.56v1.8c0 .65.17 1.18.5 1.58.33.41.78.61 1.34.61.4 0 .72-.04.96-.12.25-.08.43-.18.55-.3v-1.6h-1.51v-1.19h3.23v3.22zm4.664-3.7l-.627-.01c-.254 0-.463.06-.627.16-.164.11-.29.26-.375.45v4.28h-1.705v-6.34h1.588l.076.94c.148-.33.34-.59.577-.77.24-.18.51-.27.82-.27.09 0 .17.01.24.02.07.02.15.03.22.05l-.18 1.52zm4.588 4.87c-.063-.14-.117-.29-.162-.45-.044-.16-.077-.32-.096-.49-.176.31-.407.57-.695.77-.29.21-.63.31-1.03.31-.67 0-1.18-.17-1.54-.51-.36-.34-.54-.8-.54-1.39 0-.62.24-1.1.72-1.44.47-.34 1.17-.51 2.09-.51h.95v-.5c0-.3-.08-.54-.24-.71-.16-.16-.4-.25-.71-.25-.28 0-.49.07-.64.2-.15.14-.23.32-.23.56h-1.65l-.01-.03c-.03-.53.2-.99.69-1.38.49-.39 1.14-.58 1.94-.58.75 0 1.37.19 1.84.58.47.39.71.94.71 1.65v2.62c0 .3.02.58.06.84s.12.53.21.78h-1.71zm-1.565-1.14c.3 0 .568-.07.803-.22.234-.15.392-.32.474-.51v-.89h-.955c-.37 0-.64.09-.83.27-.19.18-.28.4-.28.66 0 .21.07.38.21.51.14.13.33.19.57.19zm6.475-1.51l.07.35h.035l1.213-4.03h1.84l-2.572 7.29c-.18.45-.424.84-.733 1.15-.308.31-.77.47-1.388.47-.145 0-.28-.01-.402-.03-.123-.02-.272-.05-.448-.1l.2-1.24.163.03c.06.01.112.02.158.02.282 0 .498-.07.65-.2.153-.14.27-.31.352-.52l.2-.49-2.25-6.33h1.84l1.072 3.68z"/>
    <path fill="#BCB5B9" d="M545.582 21.002c0 1.043-.327 1.907-.98 2.593-.656.685-1.504 1.028-2.547 1.028-1.024 0-1.855-.343-2.493-1.028-.64-.686-.958-1.55-.958-2.593v-1.535c0-1.04.32-1.903.958-2.59.638-.688 1.467-1.03 2.487-1.03 1.04 0 1.89.342 2.54 1.03.65.687.98 1.55.98 2.59v1.535zm-1.418-1.547c0-.71-.19-1.295-.57-1.752-.382-.457-.897-.685-1.545-.685-.63 0-1.12.228-1.49.685-.37.457-.55 1.04-.55 1.752v1.547c0 .72.18 1.308.54 1.767.36.45.86.68 1.49.68.65 0 1.16-.23 1.54-.69.37-.46.56-1.05.56-1.77v-1.54zm6.727 4.12c-.2.335-.45.594-.75.776-.3.19-.65.28-1.05.28-.68 0-1.21-.21-1.59-.65-.38-.43-.57-1.11-.57-2.02v-3.79h1.42v3.81c0 .56.09.95.27 1.17.18.23.45.34.82.34.35 0 .63-.06.87-.18.23-.12.42-.3.55-.53v-4.59h1.42v6.34h-1.24l-.12-.92zm4.62-6.956v1.54h1.14v1.05h-1.13v3.5c0 .26.06.44.17.56.12.11.27.16.45.16.08 0 .16-.01.23-.02.08-.02.15-.03.21-.06l.16 1.04c-.12.06-.26.11-.43.15-.17.04-.34.06-.52.06-.52 0-.93-.16-1.23-.46-.29-.31-.44-.79-.44-1.45v-3.5h-.96v-1.05h.97V16.6h1.42zm5.12 8c-.9 0-1.61-.3-2.14-.88-.53-.59-.8-1.35-.8-2.27v-.24c0-.92.27-1.69.8-2.3.53-.61 1.19-.91 1.99-.91.86 0 1.51.26 1.97.77.46.51.69 1.21.69 2.08v.84h-3.95l-.01.03c.02.5.17.91.44 1.23.27.32.65.48 1.13.48.39 0 .71-.05.99-.14.28-.1.54-.23.79-.41l.46.93c-.24.21-.55.39-.95.53-.39.14-.85.21-1.37.21zm-.16-5.44c-.35 0-.64.14-.86.42-.22.28-.37.63-.42 1.06l.01.03h2.52v-.15c0-.41-.1-.73-.3-.99s-.51-.38-.93-.38zm6.96.25l-.61-.03c-.27 0-.5.06-.69.17-.18.11-.33.28-.43.49v4.41h-1.42v-6.34h1.3l.1.92c.16-.33.37-.58.62-.76.25-.19.54-.28.87-.28.09 0 .17.01.24.02.08.01.14.03.21.05l-.17 1.33zm1.44 4.87l-.91 1.83h-.9l.41-1.88V23.1h1.4v1.213zm6.42-2.36l.14.63h.04l1.39-4.43h1.56l-2.62 7.3c-.17.44-.4.82-.71 1.13-.3.31-.73.47-1.29.47-.11 0-.24-.02-.37-.04-.14-.03-.27-.05-.39-.08l.16-1.1.22.01c.1.01.17.01.21.01.26 0 .47-.09.62-.26.16-.18.28-.38.38-.61l.23-.58-2.3-6.27h1.55l1.21 3.8zm8.54 2.54h-1.42v-1.36h1.42v1.37zm0-5.14h-1.42V18h1.42v1.366zm6.18.22h.99c.47 0 .8-.12 1-.35.21-.23.31-.56.31-.97 0-.41-.11-.73-.33-.96-.21-.22-.54-.34-.96-.34-.38 0-.7.11-.94.33-.24.22-.37.51-.37.87h-1.37l-.01-.04c-.02-.65.22-1.2.73-1.64.51-.45 1.16-.67 1.95-.67.83 0 1.5.21 1.99.63.5.42.74 1.02.74 1.79 0 .36-.11.71-.33 1.05-.22.34-.54.6-.95.79.49.17.84.43 1.07.79.23.35.34.75.34 1.2 0 .78-.26 1.4-.8 1.84-.54.45-1.22.67-2.06.67-.79 0-1.45-.21-1.99-.63-.53-.42-.79-1-.77-1.74l.01-.04h1.38c0 .38.13.68.38.92.26.23.59.35 1.01.35.44 0 .79-.12 1.05-.36.25-.24.38-.57.38-1.01 0-.48-.11-.83-.35-1.06-.23-.23-.59-.35-1.08-.35h-1v-1.12zm6.67 4.72l-.91 1.83h-.9l.41-1.88V23.1h1.4v1.213zm9.89-2.78c0 .93-.21 1.67-.64 2.23-.43.57-1.04.85-1.82.85-.39 0-.74-.08-1.03-.24-.29-.16-.53-.4-.73-.7l-.14.82H601v-9.14h1.42v3.52c.193-.27.427-.48.7-.62.274-.15.593-.22.956-.22.79 0 1.404.31 1.836.92.43.61.646 1.43.646 2.44v.13zm-1.42-.12c0-.66-.11-1.2-.34-1.6-.22-.41-.58-.61-1.07-.61-.31 0-.58.07-.79.21-.21.14-.38.33-.5.58v2.66c.12.26.29.45.5.59.22.14.49.21.81.21.5 0 .85-.17 1.08-.52.22-.35.33-.81.33-1.4v-.12zm4.18 3.08h-1.42v-9.14h1.43v9.14zm5.54-.93c-.2.33-.45.59-.75.78-.3.18-.65.27-1.05.27-.68 0-1.21-.22-1.59-.65-.38-.44-.57-1.11-.57-2.02v-3.79h1.42v3.8c0 .55.09.94.27 1.16.18.22.45.33.82.33.34 0 .63-.07.86-.19.23-.13.42-.3.55-.54V18.1h1.42v6.34H615l-.12-.922zm6.01-4.13l-.61-.03c-.27 0-.5.06-.69.17-.18.12-.33.28-.43.5v4.41h-1.43v-6.34h1.3l.1.92c.16-.32.37-.58.62-.76.25-.19.54-.28.87-.28.08 0 .16 0 .24.02.07.01.14.03.2.05l-.17 1.33zm5.55 5.05H625V23.1h1.42v1.37zm0-5.13H625V18h1.42v1.364zm7.2-2.26c-.98 1.15-1.64 2.19-1.98 3.12-.34.92-.59 2.04-.75 3.37l-.08.9h-1.42l.09-.9c.15-1.29.46-2.46.91-3.51s1.08-2.04 1.87-2.98h-4.52v-1.14h5.9v1.14z"/>
    <path fill="#574751" d="M494.402 22.273c0-.328-.116-.59-.348-.79-.233-.2-.64-.387-1.222-.563-1.016-.293-1.783-.64-2.303-1.043-.52-.402-.78-.953-.78-1.652 0-.7.29-1.27.89-1.714.59-.44 1.35-.66 2.28-.66.93 0 1.7.25 2.29.75.59.5.87 1.11.85 1.85l-.01.04h-1.66c0-.39-.13-.71-.4-.95s-.64-.36-1.11-.36c-.46 0-.81.1-1.06.31s-.38.47-.38.78c0 .29.13.53.4.71.27.19.73.39 1.38.59.94.26 1.65.61 2.14 1.04.48.43.72 1 .72 1.7 0 .73-.29 1.31-.87 1.73-.58.42-1.34.63-2.29.63-.93 0-1.74-.24-2.43-.72-.69-.47-1.03-1.15-1.01-2.01l.01-.03h1.66c0 .51.15.88.46 1.12.31.24.74.35 1.3.35.46 0 .82-.09 1.06-.28.24-.19.37-.44.37-.76zm4.536-3.31c.2-.29.443-.515.732-.677.29-.162.61-.243.96-.243.66 0 1.18.22 1.557.66.376.44.565 1.117.565 2.035V24.5h-1.71v-3.773c0-.493-.088-.84-.262-1.046-.174-.2-.432-.3-.776-.3-.234 0-.44.04-.62.13s-.33.2-.447.36v4.64h-1.71v-9.14h1.71v3.61zm8.824 5.537c-.063-.145-.116-.297-.16-.457-.046-.16-.08-.324-.098-.492-.176.31-.407.57-.694.77-.288.21-.63.31-1.03.31-.663 0-1.175-.17-1.534-.51-.36-.34-.54-.8-.54-1.39 0-.62.24-1.1.72-1.44.477-.34 1.176-.51 2.094-.51h.955v-.5c0-.3-.08-.54-.24-.71-.16-.16-.397-.25-.71-.25-.277 0-.49.07-.64.2-.152.14-.227.32-.227.56h-1.652l-.006-.03c-.027-.53.205-1 .697-1.38.492-.39 1.14-.58 1.94-.58.758 0 1.373.19 1.845.58.473.39.71.93.71 1.65v2.62c0 .3.022.58.067.84.04.26.11.52.21.78h-1.71zm-1.565-1.143c.3 0 .57-.074.803-.222.234-.15.393-.32.475-.516v-.9h-.955c-.364 0-.64.09-.827.27-.187.18-.28.4-.28.66 0 .21.07.38.21.51.14.13.332.19.574.19zm4.026-1.974c0-1 .215-1.807.647-2.42.432-.613 1.04-.92 1.825-.92.317 0 .602.068.856.205.26.137.48.332.67.586V15.36h1.72v9.14h-1.47l-.14-.773c-.2.293-.43.515-.7.668-.27.152-.58.228-.93.228-.78 0-1.38-.285-1.81-.855-.43-.57-.64-1.325-.64-2.262v-.123zm1.705.123c0 .555.093.99.28 1.31.188.318.493.477.915.477.246 0 .46-.05.645-.15.183-.1.334-.245.45-.436v-2.7c-.116-.2-.266-.356-.447-.467-.18-.11-.39-.167-.63-.167-.42 0-.72.186-.91.557-.19.37-.29.855-.29 1.453v.123zm5.068-.235c0-.94.264-1.71.79-2.32.528-.6 1.26-.9 2.193-.9s1.67.3 2.2.9c.53.6.79 1.38.79 2.33v.13c0 .96-.27 1.73-.8 2.33-.53.6-1.26.9-2.2.9s-1.67-.3-2.2-.9c-.53-.6-.8-1.37-.8-2.32v-.12zm1.705.13c0 .58.11 1.04.31 1.39.21.35.53.53.99.53.45 0 .77-.17.97-.52.21-.35.31-.81.31-1.39v-.12c0-.56-.1-1.02-.31-1.37s-.53-.53-.98-.53c-.44 0-.76.18-.97.54-.2.36-.31.82-.31 1.38v.13zm10.85.84h.04l.83-4.07h1.61l-1.61 6.34h-1.43l-1.17-3.77h-.03l-1.18 3.78h-1.42l-1.61-6.34h1.61l.84 4.06h.04l1.19-4.06h1.14l1.19 4.08zm4.8 2.27h-1.71V23h1.71v1.5zm0-5.13h-1.71v-1.5h1.71v1.5z"/>
    <path fill="#BCB5B9" d="M386.355 102.46V106h-1.423v-8.53h3.152c.953 0 1.69.214 2.21.643.52.43.778 1.043.778 1.84 0 .442-.114.82-.343 1.14-.23.318-.57.573-1 .764.48.153.82.402 1.03.747.21.346.31.77.31 1.275v.7c0 .25.03.49.09.73s.17.42.31.54v.14H390c-.157-.13-.258-.34-.3-.61-.046-.28-.07-.55-.07-.82v-.69c0-.44-.124-.78-.374-1.04s-.595-.39-1.03-.39h-1.9zm0-1.142h1.653c.57 0 .986-.11 1.248-.328.262-.22.392-.552.392-1.002 0-.43-.128-.766-.386-1.01-.258-.245-.65-.367-1.178-.367h-1.73v2.71zm6.077 1.453c0-.94.257-1.71.773-2.32.524-.6 1.232-.9 2.127-.9.91 0 1.623.31 2.14.91.518.61.778 1.38.778 2.32v.13c0 .96-.26 1.73-.78 2.33-.515.6-1.224.9-2.126.9-.907 0-1.62-.3-2.14-.9-.515-.6-.772-1.37-.772-2.32v-.12zm1.423.13c0 .62.122 1.12.364 1.51.23.39.61.58 1.12.58.49 0 .86-.19 1.11-.58.25-.39.37-.89.37-1.51v-.12c0-.6-.13-1.1-.38-1.49-.25-.39-.62-.59-1.13-.59-.5 0-.87.2-1.11.59-.25.4-.37.9-.37 1.5v.13zm11.204.15c0 .93-.22 1.67-.65 2.24-.43.57-1.04.85-1.83.85-.4 0-.74-.08-1.03-.24-.29-.16-.54-.39-.73-.7l-.14.82h-1.2v-9.14h1.42v3.52c.19-.27.43-.47.7-.62.27-.14.59-.21.95-.21.79 0 1.4.31 1.83.93.43.62.65 1.44.65 2.45v.12zm-1.43-.12c0-.66-.12-1.19-.34-1.6-.23-.4-.59-.61-1.08-.61-.32 0-.58.07-.8.22-.22.14-.38.34-.51.59v2.66c.12.26.29.45.5.59.21.14.48.21.81.21.49 0 .84-.17 1.07-.52.22-.34.33-.81.33-1.4v-.12zm2.39-.14c0-.94.26-1.71.77-2.32.52-.6 1.23-.9 2.12-.9.91 0 1.62.31 2.14.91s.78 1.38.78 2.32v.13c0 .95-.26 1.73-.78 2.33-.52.6-1.23.9-2.13.9-.91 0-1.62-.3-2.14-.9-.52-.6-.78-1.38-.78-2.32v-.12zm1.42.13c0 .62.12 1.12.36 1.51.24.39.61.58 1.12.58.49 0 .86-.19 1.11-.58.25-.39.37-.89.37-1.51v-.12c0-.6-.13-1.1-.38-1.49-.25-.39-.62-.59-1.13-.59-.5 0-.87.2-1.12.59-.25.4-.37.9-.37 1.5v.13zm7.4-4.77v1.54h1.13v1.06h-1.14v3.51c0 .26.05.45.17.56.11.11.26.17.45.17.08 0 .15-.01.23-.02.07-.02.14-.03.21-.06l.15 1.04c-.12.07-.27.12-.44.16-.17.04-.34.06-.52.06-.52 0-.93-.15-1.23-.46-.3-.31-.45-.79-.45-1.44v-3.5h-.97V99.7h.96v-1.54h1.42zm2.14 4.65c0-.94.25-1.71.77-2.32.52-.6 1.23-.9 2.12-.9.91 0 1.62.31 2.14.91.52.6.78 1.38.78 2.32v.13c0 .95-.26 1.73-.78 2.33-.52.6-1.23.9-2.13.9-.91 0-1.62-.3-2.14-.9-.52-.6-.78-1.37-.78-2.32v-.12zm1.42.13c0 .62.12 1.12.36 1.51.24.39.61.58 1.12.58.49 0 .86-.19 1.11-.58.25-.39.37-.89.37-1.51v-.12c0-.6-.13-1.1-.38-1.49-.25-.39-.63-.59-1.13-.59-.5 0-.87.2-1.12.59-.24.4-.36.9-.36 1.5v.13zm11.78-1.95l-.61-.02c-.28 0-.51.06-.7.18-.19.12-.33.29-.43.5v4.4h-1.43V99.7h1.3l.09.92c.16-.325.36-.58.62-.763.25-.18.54-.27.87-.27.08 0 .16.007.24.02.07.014.14.03.2.05l-.17 1.33zm3.71 5.18c-.9 0-1.62-.29-2.15-.88-.54-.58-.8-1.34-.8-2.26v-.23c0-.92.26-1.68.79-2.29.53-.6 1.19-.91 1.99-.9.85 0 1.51.26 1.96.78.45.52.68 1.21.68 2.08v.84h-3.96l-.01.03c.02.5.17.92.44 1.24.27.32.65.48 1.13.48.38 0 .71-.05.98-.14.27-.09.54-.23.79-.4l.46.94c-.24.21-.55.39-.95.53-.39.15-.85.22-1.37.22zm-.17-5.43c-.35 0-.64.14-.87.42-.23.28-.37.64-.42 1.07l.01.03h2.51v-.14c0-.4-.1-.73-.31-.98s-.52-.38-.93-.38zm3.54 2.23c0-1 .22-1.82.66-2.44.44-.62 1.06-.93 1.84-.93.38 0 .71.08 1 .25.29.16.53.4.73.7l.14-.83h1.18v6.3c0 .82-.25 1.45-.76 1.9-.51.45-1.22.67-2.15.67-.31 0-.64-.04-1-.13s-.68-.2-.97-.35l.3-1.12c.23.13.49.22.77.29.28.07.57.11.87.11.51 0 .89-.11 1.13-.33.24-.22.36-.56.36-1.02v-.65c-.2.26-.44.45-.71.58-.27.13-.58.2-.93.2-.78 0-1.39-.28-1.83-.85-.44-.56-.67-1.31-.67-2.23v-.12zm1.42.13c0 .58.12 1.05.35 1.4.23.35.59.53 1.08.53.3 0 .56-.06.77-.19.21-.13.38-.31.5-.55v-2.78c-.13-.23-.31-.41-.51-.54-.21-.13-.46-.19-.76-.19-.49 0-.85.21-1.09.62s-.36.94-.36 1.6v.13zm9.58 2.03c-.2.34-.45.6-.76.78-.31.18-.66.27-1.06.27-.68 0-1.21-.21-1.59-.65-.38-.43-.58-1.11-.58-2.02v-3.8h1.42v3.8c0 .56.09.94.27 1.17.18.22.45.33.81.33.34 0 .63-.06.86-.18.23-.12.41-.3.55-.54v-4.59h1.42V106h-1.24l-.12-.926zm4.37.93h-1.43V96.9h1.42v9.1zm5.41 0c-.05-.16-.09-.31-.13-.47-.03-.15-.06-.3-.07-.45-.2.3-.45.55-.77.75-.32.2-.68.3-1.07.3-.66 0-1.17-.17-1.52-.51-.35-.34-.53-.8-.53-1.4 0-.61.24-1.09.73-1.43.48-.34 1.17-.51 2.04-.51h1.11v-.55c0-.33-.1-.59-.29-.78-.2-.19-.48-.28-.84-.28-.33 0-.58.08-.78.24-.19.16-.29.36-.29.61h-1.37v-.03c-.03-.5.19-.94.67-1.33.47-.38 1.09-.58 1.85-.58.74 0 1.33.19 1.79.56.45.38.68.92.68 1.62v2.82c0 .26.02.52.05.76s.09.48.17.71h-1.44zm-1.74-1.03c.36 0 .68-.09.97-.27.28-.18.48-.38.57-.61v-.94h-1.13c-.42 0-.74.11-.97.31-.24.21-.36.45-.36.73 0 .24.08.44.24.58.16.14.38.21.67.21zm7.61-4.03l-.61-.02c-.28 0-.51.06-.69.18-.19.12-.33.28-.43.5v4.4h-1.43V99.7h1.3l.09.92c.16-.33.36-.58.62-.767.25-.185.54-.277.87-.277.08 0 .16.01.24.02.07.017.14.03.2.05l-.17 1.33zm1.43 4.88l-.91 1.83h-.91l.41-1.88v-1.16h1.4v1.21zm7.77.18h-1.42v-7.18h-1.74V97.8l3.16-.303V106zm8.64-6.28c0 .43-.12.81-.35 1.14-.23.33-.55.59-.96.76.46.18.83.45 1.11.81.27.36.41.77.41 1.24 0 .8-.27 1.4-.79 1.82-.53.42-1.21.63-2.05.63-.86 0-1.54-.21-2.07-.63-.53-.42-.79-1.02-.79-1.82 0-.47.13-.88.4-1.24s.64-.63 1.12-.81c-.41-.18-.73-.43-.96-.76-.23-.33-.35-.71-.35-1.15 0-.76.24-1.34.71-1.75.48-.41 1.11-.62 1.89-.62.776 0 1.41.21 1.894.62.49.41.73 1 .73 1.75zm-1.2 3.88c0-.42-.13-.76-.4-1.02s-.61-.39-1.02-.39c-.42 0-.77.13-1.02.39-.26.26-.39.6-.39 1.03 0 .43.13.77.39 1.01.26.25.6.37 1.04.37.41 0 .75-.12 1.02-.37.26-.25.39-.58.39-1.01zm-.22-3.83c0-.37-.11-.68-.34-.92-.23-.24-.52-.36-.87-.36-.37 0-.66.12-.87.35-.21.23-.32.54-.32.93s.11.7.33.93c.22.23.51.35.88.35.36 0 .64-.12.86-.35.22-.23.32-.54.32-.93zm8.52 3.27c0 .92-.22 1.67-.65 2.23-.43.57-1.03.85-1.81.85-.36 0-.67-.06-.95-.19-.28-.13-.51-.32-.71-.57v3.08h-1.42V99.7h1.2l.14.794c.2-.3.45-.53.74-.68.28-.16.62-.24 1-.24.78 0 1.39.31 1.82.93.44.62.66 1.43.66 2.44v.12zm-1.42-.12c0-.65-.12-1.18-.37-1.59-.25-.41-.61-.62-1.09-.62-.3 0-.55.06-.76.19-.21.13-.37.3-.5.53v2.87c.13.23.29.4.5.52.21.12.46.18.77.18.49 0 .85-.17 1.09-.53.24-.35.36-.82.36-1.41v-.12zm4.84-1.08l1.17-2.17h1.63l-2 3.13 2.05 3.21h-1.62l-1.23-2.22-1.22 2.22h-1.63l2.05-3.2-1.99-3.13h1.61l1.15 2.18z"/>
    <path fill="#574751" d="M359.082 102.455h-3.574V106h-1.71v-8.53h5.882v1.317h-4.172v2.35h3.574v1.318zm.92.316c0-.94.264-1.71.79-2.32.528-.6 1.26-.9 2.192-.9.938 0 1.672.3 2.204.9.53.6.796 1.38.796 2.33v.13c0 .96-.264 1.73-.794 2.33-.53.6-1.26.9-2.194.9-.937 0-1.67-.3-2.2-.9-.53-.6-.794-1.37-.794-2.32v-.12zm1.705.13c0 .58.102 1.04.305 1.39.203.35.53.53.984.53.442 0 .765-.17.97-.52.205-.35.307-.81.307-1.39v-.12c0-.56-.103-1.02-.31-1.37-.207-.35-.533-.53-.98-.53-.44 0-.763.18-.968.54-.205.36-.308.82-.308 1.38v.13zm6.897-3.23l.076.91c.21-.32.47-.57.78-.75.308-.18.653-.27 1.036-.27.64 0 1.14.2 1.5.61.36.41.54 1.04.54 1.9V106h-1.718v-3.955c0-.426-.086-.728-.257-.905-.17-.178-.43-.267-.78-.267-.22 0-.42.046-.6.138-.18.1-.33.23-.45.39v4.6h-1.71v-6.34h1.6zm7.242-1.55v1.56h1.066v1.2h-1.066v3.23c0 .25.05.43.152.53.102.11.238.16.41.16.09 0 .167 0 .232-.01.064-.01.14-.02.225-.05l.147 1.24c-.172.06-.34.1-.504.13-.164.03-.342.04-.533.04-.59 0-1.044-.16-1.363-.48-.318-.32-.477-.84-.477-1.54v-3.23h-.926v-1.2h.92v-1.56h1.71zM379.9 106h-1.71v-1.5h1.71v1.5zm0-5.133h-1.71v-1.5h1.71v1.5z"/>
    <path fill="#BCB5B9" d="M380.908 72.943l-.61-.023c-.277 0-.508.06-.694.176-.185.117-.33.283-.43.498V78h-1.424v-6.34h1.3l.095.92c.16-.324.366-.578.618-.762.252-.183.542-.275.87-.275.086 0 .166.007.24.02.074.014.143.03.205.05l-.17 1.33zm.738 1.975c0-1.008.22-1.822.663-2.443.44-.62 1.05-.932 1.83-.932.38 0 .71.08 1 .243.28.162.53.396.73.7l.14-.826h1.18V78c0 .816-.25 1.447-.76 1.893-.51.445-1.22.668-2.15.668-.31 0-.64-.04-1-.13s-.68-.2-.97-.35l.3-1.12c.23.13.49.22.77.29.28.07.58.11.88.11.51 0 .89-.11 1.13-.33.23-.22.35-.56.35-1.02v-.65c-.2.26-.44.45-.71.58-.27.13-.58.2-.93.2-.78 0-1.39-.28-1.83-.85-.45-.56-.67-1.31-.67-2.23v-.12zm1.424.123c0 .59.117 1.05.35 1.4.23.35.592.53 1.08.53.305 0 .562-.06.77-.19.21-.12.378-.31.507-.55v-2.78c-.132-.23-.303-.41-.512-.54-.21-.13-.46-.19-.753-.19-.49 0-.85.21-1.087.62-.237.41-.355.95-.355 1.6v.13zm11.198 0c0 .93-.216 1.68-.648 2.24-.432.57-1.04.85-1.825.85-.395 0-.737-.08-1.028-.24-.29-.16-.535-.39-.73-.7l-.14.82H388.7v-9.14h1.425v3.52c.195-.27.43-.47.703-.62.274-.14.592-.21.955-.21.793 0 1.405.31 1.837.93.432.62.648 1.43.648 2.45v.13zm-1.424-.12c0-.66-.114-1.19-.34-1.6-.227-.4-.586-.61-1.078-.61-.317 0-.58.07-.794.21-.213.14-.382.34-.507.59v2.66c.12.26.29.45.504.59.21.14.48.21.8.21.49 0 .85-.17 1.07-.52.22-.34.33-.81.33-1.4v-.12zM404.04 78h-5.665v-.98l2.777-3.028c.453-.496.766-.903.938-1.22.172-.32.258-.63.258-.936 0-.383-.112-.703-.334-.96-.223-.26-.524-.388-.903-.388-.5 0-.87.14-1.11.422-.24.28-.36.668-.36 1.16h-1.37l-.01-.035c-.02-.758.23-1.395.75-1.913s1.23-.776 2.12-.776c.83 0 1.47.226 1.95.68.48.453.72 1.044.72 1.775 0 .49-.13.96-.41 1.4-.27.45-.7.99-1.28 1.63l-1.9 2.01.02.04h3.85V78zm2.802-4.91h.99c.46 0 .793-.114.996-.343.203-.228.305-.552.305-.97 0-.41-.11-.727-.328-.952-.22-.224-.54-.337-.967-.337-.387 0-.702.11-.946.33-.245.222-.367.512-.367.87h-1.37l-.012-.034c-.024-.652.22-1.2.73-1.643.51-.44 1.158-.66 1.947-.66.832 0 1.496.21 1.993.64.496.42.744 1.02.744 1.8 0 .37-.112.72-.334 1.06-.223.34-.54.61-.95.79.485.18.84.44 1.07.79.228.35.343.75.343 1.2 0 .79-.27 1.4-.806 1.85-.537.45-1.224.67-2.06.67-.79 0-1.452-.21-1.99-.63-.536-.42-.793-1-.77-1.74l.012-.03h1.37c0 .38.128.69.382.92.254.23.592.35 1.014.35.44 0 .79-.12 1.043-.36.26-.24.39-.58.39-1.01 0-.48-.11-.83-.35-1.06-.23-.23-.59-.34-1.08-.34h-.99V73.1zm10.564-1.37c0 .428-.117.81-.35 1.14-.236.333-.554.587-.956.763.464.18.835.45 1.11.81.275.358.413.772.413 1.24 0 .794-.262 1.4-.785 1.82-.524.42-1.205.63-2.045.63-.852 0-1.54-.21-2.063-.63-.523-.42-.785-1.026-.785-1.82 0-.468.136-.882.408-1.24.27-.36.643-.632 1.116-.816-.41-.172-.73-.423-.96-.753-.23-.33-.35-.712-.35-1.145 0-.76.24-1.35.72-1.76.48-.41 1.11-.62 1.89-.62.78 0 1.41.2 1.89.62.48.41.73.99.73 1.75zm-1.2 3.884c0-.418-.135-.758-.402-1.02-.268-.262-.61-.393-1.023-.393-.42 0-.76.13-1.02.39s-.39.61-.39 1.03c0 .43.13.77.39 1.02s.61.37 1.04.37c.42 0 .76-.12 1.02-.37s.39-.58.39-1.01zm-.224-3.833c0-.37-.11-.68-.334-.92-.222-.24-.51-.36-.867-.36-.36 0-.65.12-.87.35-.21.23-.31.55-.31.94 0 .39.11.7.33.93.22.24.51.35.88.35.36 0 .65-.11.87-.35.22-.23.33-.54.33-.93zm4.342 6.05l-.908 1.83h-.902l.41-1.88v-1.16h1.4v1.21zm4.787.18h-1.42v-7.17h-1.73v-1.05l3.16-.3V78zm8.82-3.28c0 1.11-.25 1.96-.75 2.54-.5.59-1.18.88-2.04.88-.86 0-1.54-.29-2.05-.87-.5-.58-.75-1.42-.75-2.53v-1.95c0-1.1.25-1.95.75-2.54.5-.58 1.18-.88 2.05-.88.86 0 1.54.3 2.05.88.51.59.76 1.43.76 2.54v1.95zm-1.42-2.17c0-.7-.11-1.21-.35-1.55-.23-.33-.57-.5-1.02-.5-.45 0-.79.17-1.02.51-.23.34-.35.86-.35 1.56v2.37c0 .7.12 1.23.36 1.56.24.34.58.51 1.03.51.45 0 .79-.16 1.02-.5.23-.33.35-.85.35-1.56v-2.38zm4.33.55h.99c.46 0 .8-.11 1-.34.21-.22.31-.55.31-.97 0-.41-.11-.72-.32-.95-.22-.22-.54-.34-.96-.34-.38 0-.7.11-.94.33-.24.22-.36.51-.36.87h-1.37l-.02-.03c-.02-.65.22-1.2.73-1.64.51-.44 1.16-.66 1.95-.66.83 0 1.5.21 1.99.64.5.42.75 1.02.75 1.8 0 .36-.11.72-.33 1.06-.22.34-.53.61-.94.79.48.17.84.44 1.07.79.23.35.34.75.34 1.2 0 .79-.27 1.4-.8 1.85-.53.45-1.22.67-2.06.67-.79 0-1.45-.21-1.99-.63-.53-.42-.79-1-.77-1.74l.02-.03h1.37c0 .38.13.69.38.92.26.24.59.35 1.02.35.45 0 .79-.12 1.05-.35.25-.24.38-.58.38-1.01 0-.48-.12-.83-.35-1.06-.23-.23-.59-.35-1.08-.35h-.99V73.1zm6.67 4.73l-.91 1.83h-.9l.41-1.88v-1.16h1.4v1.21zm2.87-4.73h.99c.47 0 .8-.11 1-.34.21-.22.31-.55.31-.97 0-.41-.11-.72-.33-.95-.21-.22-.54-.34-.96-.34-.39 0-.7.11-.95.33-.24.22-.36.51-.36.87h-1.37l-.01-.03c-.02-.65.22-1.2.73-1.64.51-.44 1.16-.66 1.95-.66.83 0 1.5.21 1.99.64.5.42.75 1.02.75 1.8 0 .36-.11.72-.33 1.06-.22.34-.54.61-.95.79.49.17.85.44 1.07.79.23.35.35.75.35 1.2 0 .79-.26 1.4-.8 1.85-.54.45-1.22.67-2.06.67-.79 0-1.45-.21-1.99-.63-.54-.42-.79-1-.77-1.74l.01-.03H446c0 .38.13.69.38.92.253.24.59.35 1.013.35.44 0 .79-.12 1.043-.35.25-.24.38-.58.38-1.01 0-.48-.117-.83-.35-1.06-.233-.23-.593-.35-1.08-.35h-.99V73.1zm5.45 1.1l.5-4.71h4.51v1.23h-3.33l-.25 2.14c.17-.12.37-.22.59-.3.22-.08.47-.12.75-.13.8 0 1.42.25 1.88.77.45.52.68 1.22.68 2.12 0 .84-.24 1.52-.72 2.05-.48.54-1.17.8-2.07.8-.75 0-1.38-.2-1.9-.62-.52-.41-.77-.99-.75-1.75l.01-.03 1.33-.04c0 .42.12.74.37.97.24.23.56.35.94.35.44 0 .78-.15 1.01-.46.24-.31.35-.72.35-1.23 0-.52-.12-.93-.36-1.26-.24-.32-.58-.48-1.02-.48-.39 0-.68.06-.87.19-.19.13-.32.31-.41.55l-1.22-.1zm-70.82-14.6h-1.32l-.45 2.4h-.98l.44-2.4h-1.35v-.92h1.53l.34-1.83h-1.42v-.93h1.6l.46-2.43h.98l-.45 2.43h1.31l.46-2.44h.99l-.46 2.44h1.22v.93h-1.4l-.34 1.84h1.3v.93H382l-.44 2.41h-.98l.446-2.41zm-1.14-.92h1.32l.34-1.83h-1.32l-.34 1.84zm10.55-.51h-3.73v2.7h4.33V62h-5.75v-8.53h5.71v1.14h-4.29v2.41h3.73v1.142zm6.96 0h-3.73v2.7h4.33V62h-5.75v-8.53h5.72v1.14h-4.29v2.41h3.73v1.142zm4.85-4.81c.31 0 .6.03.88.1s.53.15.75.26l-.27 1.1c-.22-.1-.43-.17-.64-.22-.21-.06-.45-.08-.72-.08-.57 0-1.03.22-1.37.66-.34.44-.52 1.03-.52 1.77v.04c.24-.21.51-.38.82-.5.31-.12.65-.17 1.02-.17.76 0 1.37.27 1.81.8.45.54.67 1.21.67 2.04 0 .87-.25 1.59-.76 2.14-.51.56-1.17.84-2 .84-.86 0-1.58-.3-2.13-.91-.56-.61-.83-1.46-.83-2.55v-1.63c0-1.1.32-2 .94-2.67.63-.67 1.42-1 2.37-1zm-.4 4.07c-.36 0-.66.07-.91.19-.25.13-.44.3-.57.52v.61c0 .73.15 1.28.44 1.67.29.39.66.59 1.12.59.42 0 .74-.18.98-.53.24-.35.36-.79.36-1.31 0-.51-.12-.92-.37-1.24-.25-.32-.59-.48-1.02-.48zm9.54-2.8c-.98 1.15-1.64 2.19-1.98 3.12-.34.93-.59 2.05-.75 3.37l-.08.9h-1.42l.09-.9c.15-1.29.46-2.46.92-3.5.45-1.04 1.08-2.04 1.87-2.98h-4.52V53.5h5.89v1.14zm6.81 7.37h-5.66v-.98L415.3 58c.46-.496.77-.903.94-1.22.17-.32.26-.63.26-.936 0-.383-.11-.703-.33-.96-.22-.26-.52-.39-.9-.39-.5 0-.87.14-1.11.42-.24.28-.36.67-.36 1.16h-1.38l-.01-.032c-.02-.758.23-1.395.75-1.913s1.22-.78 2.12-.78c.82 0 1.47.22 1.95.68.48.45.72 1.04.72 1.77 0 .49-.14.96-.412 1.4-.28.45-.704.99-1.28 1.63l-1.9 2.01.02.04h3.84V62zm2.8-4.91h.99c.47 0 .8-.11 1-.34.21-.23.31-.55.31-.97 0-.41-.1-.72-.32-.95-.22-.22-.54-.33-.96-.33-.38 0-.7.11-.94.33-.24.22-.36.51-.36.87h-1.37l-.01-.03c-.02-.65.22-1.2.73-1.64.51-.44 1.16-.66 1.95-.66.83 0 1.5.21 1.99.64.5.42.75 1.02.75 1.8 0 .37-.11.72-.33 1.06-.22.34-.54.61-.95.79.49.18.84.44 1.07.79.23.35.34.75.34 1.2 0 .79-.27 1.4-.8 1.85-.54.45-1.22.67-2.06.67-.79 0-1.45-.21-1.99-.63-.53-.42-.79-1-.77-1.74l.01-.03h1.37c0 .38.13.69.38.92.26.23.6.35 1.02.35.44 0 .79-.12 1.04-.36.26-.24.38-.58.38-1.01 0-.48-.11-.83-.35-1.06-.24-.23-.6-.34-1.08-.34h-1V57.1z"/>
    <path fill="#574751" d="M380.81 41.598h-1.126L379.268 44h-1.08l.423-2.402h-1.33v-.99h1.5l.3-1.7h-1.36v-1.002h1.54l.43-2.437h1.07l-.43 2.43h1.13l.44-2.44h1.07l-.43 2.43h1.29v1.01h-1.46l-.3 1.7h1.32v.99h-1.49l-.43 2.41h-1.08l.42-2.41zm-.95-.99h1.12l.297-1.7h-1.125l-.293 1.7zm10.658.398c0 .937-.217 1.69-.65 2.262-.434.57-1.04.855-1.817.855-.33 0-.62-.06-.88-.185-.26-.123-.48-.303-.66-.542v3.04l-1.7.002V37.66h1.54l.1.75c.19-.277.42-.49.68-.64.27-.152.57-.227.93-.227.79 0 1.4.307 1.83.92.44.613.65 1.42.65 2.42v.123zm-1.71-.123c0-.598-.1-1.082-.3-1.453-.2-.37-.504-.557-.914-.557-.258 0-.478.053-.66.158-.18.11-.325.26-.43.46v2.78c.105.18.25.32.43.41.182.1.406.14.67.14.416 0 .72-.16.913-.48.193-.32.29-.76.29-1.32v-.12zm5.57 3.24c-.913 0-1.644-.293-2.19-.88-.547-.585-.82-1.33-.82-2.23v-.236c0-.94.258-1.716.776-2.326.517-.6 1.21-.91 2.083-.9.855 0 1.52.26 1.992.78.47.52.7 1.22.7 2.09v.93h-3.79l-.01.04c.03.42.17.77.42 1.03.24.27.58.41 1.01.41.38 0 .69-.04.94-.11.25-.08.52-.2.82-.36l.46 1.06c-.26.21-.6.39-1.02.53-.42.14-.88.21-1.4.21zm-.15-5.262c-.318 0-.568.13-.75.37-.185.24-.298.56-.34.96l.016.03h2.098v-.15c0-.36-.085-.65-.255-.87-.17-.21-.427-.32-.77-.32zm7.417 5.14c-.063-.14-.117-.29-.162-.45-.045-.16-.077-.32-.096-.49-.176.31-.408.57-.695.77-.287.21-.63.31-1.028.31-.664 0-1.176-.17-1.535-.51-.36-.34-.54-.8-.54-1.39 0-.62.24-1.1.71-1.44.48-.34 1.17-.51 2.09-.51h.95v-.5c0-.3-.08-.54-.24-.71-.16-.16-.4-.25-.71-.25-.28 0-.49.07-.64.2-.15.14-.23.33-.23.56h-1.65l-.01-.03c-.03-.53.2-1 .69-1.39.49-.39 1.14-.58 1.94-.58.75 0 1.37.19 1.84.58.47.39.71.94.71 1.65v2.62c0 .3.02.58.06.84s.11.52.21.78h-1.71zm-1.565-1.14c.3 0 .568-.07.803-.22.234-.15.392-.32.474-.51v-.89h-.955c-.363 0-.638.09-.826.27-.187.18-.28.4-.28.66 0 .21.07.38.21.51.14.13.332.19.574.19zm6.95-.04c.304 0 .548-.09.732-.26.183-.18.275-.41.275-.71h1.553l.017.04c.016.64-.225 1.18-.723 1.61-.498.43-1.116.65-1.855.65-.95 0-1.68-.3-2.19-.89-.51-.6-.77-1.37-.77-2.3v-.17c0-.93.25-1.7.76-2.3.51-.6 1.23-.9 2.18-.9.78 0 1.41.22 1.89.67.48.45.71 1.04.69 1.76l-.01.04h-1.56c0-.32-.09-.6-.27-.81-.18-.22-.43-.33-.75-.33-.46 0-.78.18-.96.53-.19.35-.28.81-.28 1.36v.18c0 .56.09 1.02.27 1.37.19.35.51.52.96.52zm5.22-4.34c.2-.29.443-.51.732-.67.29-.16.61-.24.96-.24.662 0 1.18.22 1.557.66.37.44.56 1.12.56 2.04V44h-1.71v-3.773c0-.493-.09-.84-.26-1.046-.18-.2-.44-.3-.78-.3-.24 0-.44.04-.62.13s-.33.2-.45.36V44h-1.71v-9.14h1.71v3.603zM353.797 24v-8.53h2.883c1.004 0 1.787.194 2.35.585.562.39.843.974.843 1.752 0 .394-.104.747-.313 1.057-.21.31-.513.544-.912.7.512.11.896.344 1.152.704.256.36.384.775.384 1.248 0 .816-.27 1.434-.81 1.854-.538.42-1.302.63-2.29.63h-3.287zm1.71-3.773v2.46h1.577c.453 0 .8-.098 1.037-.295.24-.198.36-.49.36-.876 0-.418-.1-.738-.3-.958-.2-.22-.52-.33-.96-.33h-1.7zm0-1.184h1.23c.458 0 .81-.094 1.056-.28.246-.19.37-.462.37-.822 0-.39-.125-.68-.373-.87-.248-.18-.618-.28-1.11-.28h-1.172v2.26zm9.722 4.043c-.2.332-.45.588-.75.768-.3.18-.65.27-1.04.27-.67 0-1.19-.215-1.57-.643-.38-.42-.57-1.09-.57-1.99v-3.83h1.7v3.84c0 .46.07.79.23 1 .15.21.38.31.69.31.27 0 .51-.04.7-.13.19-.08.35-.21.48-.39v-4.61h1.71V24h-1.46l-.15-.914zm4.93-6.98v1.554h1.06v1.2h-1.07v3.23c0 .246.05.422.15.527.1.106.24.158.41.158.09 0 .17-.004.23-.014s.14-.02.22-.05l.14 1.24c-.17.06-.34.11-.51.13-.17.03-.34.05-.53.05-.59 0-1.05-.16-1.36-.48-.32-.32-.48-.84-.48-1.54v-3.24h-.93v-1.2h.92v-1.56h1.71zm4.19 0v1.554h1.06v1.2h-1.07v3.23c0 .246.05.422.15.527.1.106.23.158.41.158.09 0 .16-.004.23-.014.06-.01.14-.02.22-.05l.14 1.24c-.17.06-.34.11-.51.13-.17.03-.35.05-.54.05-.59 0-1.05-.16-1.37-.48-.32-.32-.48-.84-.48-1.54v-3.24h-.92v-1.2h.92v-1.56h1.71zm1.89 4.665c0-.94.26-1.71.79-2.32.53-.6 1.26-.9 2.19-.9.93 0 1.67.3 2.2.9.53.6.79 1.38.79 2.33v.13c0 .96-.27 1.73-.8 2.33-.53.6-1.26.9-2.2.9-.94 0-1.67-.3-2.2-.9-.53-.6-.79-1.37-.79-2.32v-.12zm1.7.13c0 .58.1 1.04.3 1.39.2.35.53.53.98.53.44 0 .76-.17.97-.52.2-.35.31-.81.31-1.39v-.12c0-.56-.11-1.02-.31-1.37-.21-.35-.54-.53-.98-.53-.44 0-.77.18-.97.54-.21.36-.31.82-.31 1.38v.13zm6.89-3.23l.07.91c.21-.32.47-.57.78-.75.3-.18.65-.27 1.03-.27.64 0 1.14.2 1.5.61.36.41.54 1.04.54 1.9V24h-1.72v-3.955c0-.426-.09-.728-.26-.905-.17-.178-.43-.267-.78-.267-.23 0-.43.046-.61.138-.18.1-.33.23-.45.39V24h-1.71v-6.34h1.59zm7.12 6.33h-1.71v-1.5h1.71V24zm0-5.13h-1.71v-1.5h1.71v1.5z"/>
    <path fill="#4990E2" d="M291.35 54.452h1.258v1.34h-1.257V58h-1.65v-2.208h-4.27l-.04-1.02 4.26-6.725h1.71v6.405zm-4.327 0h2.673v-4.04l-.04-.014-.137.294-2.5 3.76zm13.173-.287c0 1.294-.29 2.28-.875 2.96-.58.68-1.37 1.02-2.37 1.02s-1.8-.34-2.39-1.02c-.58-.68-.88-1.666-.88-2.96V51.89c0-1.29.29-2.278.88-2.96.59-.685 1.38-1.027 2.39-1.027 1 0 1.8.342 2.39 1.026.59.68.88 1.67.88 2.96v2.27zm-1.66-2.53c0-.815-.138-1.42-.41-1.81-.274-.393-.673-.59-1.197-.59-.53 0-.93.197-1.2.59-.27.39-.41.995-.41 1.81v2.77c0 .82.13 1.427.41 1.82.27.395.67.592 1.2.592.52 0 .92-.196 1.19-.588.27-.4.4-1 .4-1.83v-2.77zm13.22 2.913c0 1.075-.253 1.944-.76 2.604-.505.66-1.21.992-2.11.992-.42 0-.792-.076-1.115-.226-.32-.15-.6-.37-.83-.663v3.59h-1.66v-10.24h1.4l.17.928c.24-.346.53-.61.86-.793.34-.182.72-.273 1.17-.273.91 0 1.62.36 2.13 1.083.51.723.76 1.674.76 2.854v.144zm-1.654-.144c0-.756-.143-1.375-.428-1.856-.285-.48-.71-.72-1.275-.72-.35 0-.64.073-.89.22-.24.15-.44.356-.58.62v3.343c.14.26.34.46.58.6.24.14.54.21.89.21.56 0 .99-.21 1.27-.62.28-.41.42-.96.42-1.64v-.14zm5.646-1.264l1.367-2.536h1.907l-2.324 3.657L319.09 58h-1.886l-1.43-2.598L314.348 58h-1.9l2.392-3.74-2.325-3.656h1.886l1.35 2.536zM139.355 24h-6.61v-1.142l3.24-3.534c.53-.58.894-1.054 1.094-1.425.2-.38.3-.74.3-1.09 0-.45-.13-.83-.39-1.13-.26-.3-.61-.45-1.06-.45-.59 0-1.02.16-1.3.49-.29.32-.43.78-.43 1.35h-1.6l-.02-.04c-.02-.89.27-1.63.87-2.24.6-.61 1.42-.91 2.47-.91.95 0 1.71.26 2.27.79s.83 1.22.83 2.07c0 .57-.16 1.11-.48 1.63-.33.52-.82 1.15-1.5 1.89l-2.21 2.33.02.04h4.48V24zm6.953-3.548h1.257v1.34h-1.257V24h-1.655v-2.208h-4.272l-.04-1.02 4.26-6.725h1.71v6.405zm-4.328 0h2.673v-4.04l-.04-.014-.137.294-2.496 3.76zm13.173-.287c0 1.294-.29 2.28-.875 2.96-.583.68-1.376 1.02-2.38 1.02-1.006 0-1.803-.34-2.39-1.02-.59-.68-.883-1.666-.883-2.96V17.89c0-1.29.292-2.278.875-2.96.583-.685 1.38-1.027 2.386-1.027 1.002 0 1.798.342 2.385 1.026.59.68.89 1.67.89 2.96v2.27zm-1.66-2.53c0-.815-.138-1.42-.41-1.81-.274-.393-.673-.59-1.197-.59s-.922.197-1.193.59c-.27.39-.407.995-.407 1.81v2.77c0 .82.138 1.427.414 1.82.275.395.675.592 1.2.592.524 0 .92-.196 1.19-.588.268-.4.402-1 .402-1.83v-2.77zm13.22 2.913c0 1.075-.253 1.944-.76 2.604-.505.66-1.21.992-2.11.992-.42 0-.792-.076-1.115-.226-.324-.15-.602-.37-.834-.663v3.59h-1.662v-10.24h1.402l.164.928c.237-.346.523-.61.858-.793.335-.182.723-.273 1.165-.273.92 0 1.63.36 2.13 1.083.51.723.77 1.674.77 2.854v.144zm-1.654-.144c0-.756-.15-1.375-.43-1.856-.29-.48-.71-.72-1.28-.72-.35 0-.64.073-.88.22-.25.15-.44.356-.58.62v3.343c.14.26.34.46.58.6.24.14.54.21.89.21.56 0 .98-.21 1.26-.62.28-.41.42-.96.42-1.64v-.14zm5.64-1.264l1.36-2.536h1.9l-2.33 3.657 2.4 3.74h-1.89l-1.43-2.59-1.42 2.6h-1.9l2.39-3.74-2.33-3.65h1.88l1.34 2.54z"/>
  </g>
</svg>
