<?xml version="1.0" encoding="UTF-8" standalone="no"?>
<svg width="16px" height="16px" viewBox="0 0 16 16" version="1.1" xmlns="http://www.w3.org/2000/svg" xmlns:xlink="http://www.w3.org/1999/xlink">
    <title>icClose</title>
    <defs></defs>
    <g id="main" stroke="none" stroke-width="1" fill="none" fill-rule="evenodd">
        <path d="M11.045875,7.9246875 L15.702875,2.2676875 C15.898125,2.0724375 15.898125,1.7559375 15.702875,1.5606875 L14.288625,0.1464375 C14.093375,-0.0488125 13.776875,-0.0488125 13.581625,0.1464375 L7.924625,4.8031875 L2.267875,0.1464375 C2.072625,-0.0488125 1.755875,-0.0488125 1.560625,0.1464375 L0.146625,1.5606875 C-0.048875,1.7559375 -0.048875,2.0724375 0.146625,2.2676875 L4.803375,7.9246875 L0.146625,13.5814375 C-0.048875,13.7766875 -0.048875,14.0931875 0.146625,14.2886875 L1.560625,15.7026875 C1.755875,15.8979375 2.072625,15.8979375 2.267875,15.7026875 L7.924625,11.0459375 L13.581625,15.7026875 C13.776875,15.8979375 14.093375,15.8979375 14.288625,15.7026875 L15.702875,14.2886875 C15.898125,14.0931875 15.898125,13.7766875 15.702875,13.5814375 L11.045875,7.9246875" id="icClose" fill="#FFFFFF"></path>
    </g>
</svg>