<svg xmlns="http://www.w3.org/2000/svg" width="16" height="16">
  <path fill="#574751" fill-rule="evenodd" d="M9.333 15.89C8.9 15.96 8.453 16 8 16c-.454 0-.9-.038-1.333-.11v-2.04c-.68-.153-1.318-.423-1.89-.788l-1.44 1.44c-.708-.51-1.33-1.13-1.84-1.84l1.44-1.44c-.364-.57-.634-1.208-.788-1.89H.11C.04 8.9 0 8.455 0 8c0-.454.038-.9.11-1.333h2.04c.153-.68.423-1.318.788-1.89l-1.44-1.44c.51-.708 1.13-1.33 1.84-1.84l1.44 1.44c.57-.364 1.208-.634 1.89-.788V.11C7.1.04 7.545 0 8 0c.454 0 .9.038 1.333.11v2.04c.68.153 1.318.423 1.89.788l1.44-1.44c.707.51 1.33 1.13 1.838 1.84L13.06 4.77c.366.574.638 1.213.793 1.897h2.037c.072.433.11.88.11 1.333 0 .454-.038.9-.11 1.333h-2.04c-.154.684-.426 1.323-.792 1.896l1.442 1.43c-.507.71-1.13 1.33-1.837 1.84l-1.44-1.44c-.57.364-1.208.634-1.89.788v2.04zM8 12c2.21 0 4-1.79 4-4s-1.79-4-4-4-4 1.79-4 4 1.79 4 4 4z"/>
</svg>
