<svg xmlns="http://www.w3.org/2000/svg" width="52" height="60">
  <path fill="#FFF" fill-rule="evenodd" d="M44.16 30.885C42.216 38.428 35.367 44 27.216 44c-9.665 0-17.5-7.835-17.5-17.5 0-.708.042-1.407.124-2.093-1.153-1.397-4.322-6.04.72-9.89.938-1.216 2.353-1.898 3.65-2.28-.28-.145-.566-.293-.852-.438-5.646-2.85-8.134 3.21-6.035 13.42 1.303 12.21-6.075 17.28-3.474 12 2.6-5.28-1.67-16.78-2.04-23.49C2.41.35 15.07 3.8 18.97 8.04c.67-1.46 2.503-1.65 3.584-.39 1.91 2.233 5.735-.28 10.006-2.72C39.7 1.415 44.502 9 42.034 12.288c-.815 1.086-1.19 2.117-1.45 2.924 1.865 2.205 3.19 4.878 3.783 7.817-5.518-.27-8.79 1.21-8.79 1.21h-.823v1.48c.148.027.682 1.033.7 1.11 1.895 3.44 3.086 4.13 6.945 4.156.7 0 1.27-.04 1.75-.116zm-10.224-6.637s-4.514-2.047-11.88-.898c.05 1.17.148 4.1.744 5.528.596 1.427 1.324 2.122 4.314 2.122 3.858-.026 5.05-.717 6.945-4.155.01-.078.55-1.084.7-1.11v-1.487h-.83zm-1.328 1.403c-.025-.19.194-1.4-2.824-1.76s-5.312-.16-5.944.18c-.632.34-1.09.7-.836 2.52.385 2.29.745 3.63 4.128 3.62 2.2 0 3.465-.6 4.18-1.265.716-.67 1.296-2.372 1.296-3.28zm4.303 0c.03-.19-.19-1.4 2.83-1.76s5.31-.16 5.95.18c.63.34 1.09.7.84 2.52-.385 2.29-.746 3.63-4.13 3.62-2.2 0-3.463-.6-4.18-1.265-.714-.67-1.294-2.372-1.294-3.28zm.91 19.56c-3.02 1.56-6.46 2.4-10.1 2.4-3.53 0-6.86-.77-9.81-2.23-7.66.777-13.704 6.68-14.185 14.63h48c-.43-7.95-6.35-13.926-13.895-14.795z"/>
</svg>
