<svg xmlns="http://www.w3.org/2000/svg" width="48" height="60">
  <path fill="#FFF" fill-rule="evenodd" d="M34.1 44.84c-3.02 1.62-6.46 2.52-10.1 2.52-3.53 0-6.86-.84-9.82-2.36C6.52 45.8.48 52.2 0 60.18h48c-.43-7.98-6.35-14.43-13.9-15.34zm8.8-20.58s5.02-7.72-1.5-12.23c-6.53-4.52-9.32-5.46-9.32-5.46l2.05-3L30.4 1.1l-1.5 3.6S7.5-6.05 8.8 14.1l34.1 10.16zM24 43.8c10 0 18.1-8.3 18.1-18.52v-.08l-33.26-10c-1.84 2.9-2.9 6.36-2.9 10.08 0 10.22 8.08 18.5 18.06 18.5zm-1.07-8.1h.02c.2 0 1.92-.1 3.6 2.36 1.25 1.7 4.48 3.34 7.33.3-1.25 1.58-4.1 2.87-6.48 2.1-1.38-.44-2.2-2-4.52-2.26-.68-.02-1.22-.6-1.2-1.28 0-.7.57-1.24 1.25-1.23zM9.4 33.3c1.44 3.93 5.04 3.74 6.85 2.67 2.5-1.6 4.05-.82 4.23-.73.64.26.94 1 .7 1.63-.26.64-.98.95-1.6.7-2.25-.7-3.6.4-5.04.27-2.5-.26-4.6-2.6-5.14-4.54z"/>
</svg>
