<svg xmlns="http://www.w3.org/2000/svg" width="22" height="16">
  <path fill="#FFF" fill-rule="evenodd" d="M11.001383 4.657482c-.0013746-.089035-.0018938-.1485198-.001383-.1746327-.7705484-1.4692466-1.464235-2.5836868-2.390513-3.343354C7.6832092.3798278 6.5526818 0 5.217871 0 3.6565466 0 2.396585.494611 1.437948 1.483848.4793112 2.4730853 0 3.7816135 0 5.409472 0 6.8536743.329653 8.00568.9889686 8.865523c.6593156.8598433 1.9354566 1.698804 3.828461 2.516907.0647182.025044.1537042.0626095.266961.1126974C8.1504106 12.830806 10.0191176 14.333422 11 16c.0000018-.000004.000001-.000002 0 0 .9808822-1.666578 2.8495894-3.169194 5.9156095-4.5048726.1132567-.050088.2022427-.0876533.2669608-.1126973 1.8930045-.818103 3.1691455-1.6570635 3.828461-2.516907C21.6703473 8.00568 22 6.8536746 22 5.409472c0-1.6278584-.4793113-2.9363865-1.4379482-3.9256236C19.603415.494611 18.3434533 0 16.782129 0c-1.3348108 0-2.4653382.379828-3.391616 1.1394952-.926278.7596673-1.6199646 1.8741075-2.390513 3.343354.0004978.025447.0009583.084972.001383.1746327z"/>
</svg>
