<svg xmlns="http://www.w3.org/2000/svg" width="20" height="20">
  <g fill="none" fill-rule="evenodd">
    <circle cx="10" cy="10" r="10" fill="#C8CF2D"/>
    <g fill="#FFF">
      <path d="M5.455 11.136l7.386-6.818 2.847 3.41-6.818 6.817-3.41-3.41z"/>
      <path d="M13.06 3.952c-.173-.173-.45-.177-.62-.007l-6.903 6.902c-.042.042-.074.092-.096.146l-1.23 4.22c-.062.164-.022.352.1.478.13.13.318.17.48.107l4.22-1.233c.056-.022.106-.054.148-.096l6.902-6.902c.17-.17.165-.446-.01-.62L13.06 3.95zM6.59 14.545L5.456 13.41l.62-1.895 6.67-6.672 1.093 1.092.42.432.895.887-6.673 6.67-1.894.62z"/>
    </g>
  </g>
</svg>
