<svg xmlns="http://www.w3.org/2000/svg" width="48" height="34">
  <g fill="#BCB5B9" fill-rule="evenodd">
    <path d="M13.8 1C8.94 1 5 4.87 5 9.64c0 4.77 3.94 8.64 8.8 8.64 4.87 0 8.8-3.87 8.8-8.64C22.6 4.87 18.68 1 13.8 1zm12.44 24c-1.46-3-4.02-5.4-7.17-6.67-1.53.88-3.3 1.4-5.22 1.4-1.9 0-3.68-.52-5.2-1.4C5.47 19.6 2.9 22 1.45 25h24.78zM36.26 4.1C31.7 4.1 28 7.8 28 12.36s3.7 8.26 8.26 8.26 8.26-3.7 8.26-8.26c0-4.57-3.7-8.26-8.26-8.26zm11.66 22.94c-1.37-2.87-3.77-5.16-6.73-6.38-1.46.85-3.1 1.33-4.9 1.33-1.8 0-3.47-.5-4.9-1.36-2.96 1.22-5.36 3.5-6.7 6.38h23.2z"/>
    <path stroke="#FFF" stroke-width="1.5" d="M24 6c-4.97 0-9 4.03-9 9s4.03 9 9 9 9-4.03 9-9-4.03-9-9-9zm5.47 17c-1.6.94-3.47 1.48-5.47 1.48-2 0-3.87-.54-5.47-1.48-3.3 1.36-6 3.9-7.53 7.1h26c-1.53-3.2-4.22-5.74-7.53-7.1z"/>
  </g>
</svg>
