<?xml version="1.0" encoding="UTF-8" standalone="no"?>
<svg width="46px" height="44px" viewBox="0 0 46 44" version="1.1" xmlns="http://www.w3.org/2000/svg" xmlns:xlink="http://www.w3.org/1999/xlink" xmlns:sketch="http://www.bohemiancoding.com/sketch/ns">
    <!-- Generator: Sketch 3.0.4 (8053) - http://www.bohemiancoding.com/sketch -->
    <title>Slice 8</title>
    <desc>Created with Sketch.</desc>
    <defs></defs>
    <g id="Page-1" stroke="none" stroke-width="1" fill="none" fill-rule="evenodd" sketch:type="MSPage">
        <path d="M39.6975,9.85204082 C41.6025,8.69673469 43.065,6.86183673 43.755,4.67959184 C41.97,5.75183673 39.9975,6.52959184 37.8975,6.95244898 C36.21,5.13265306 33.81,4 31.155,4 C26.055,4 21.9225,8.18326531 21.9225,13.3406122 C21.9225,14.0730612 22.005,14.7828571 22.1625,15.47 C14.49,15.0773469 7.6875,11.3622449 3.135,5.70653061 C2.34,7.08836735 1.8825,8.69673469 1.8825,10.4032653 C1.8825,13.6426531 3.51,16.5044898 5.9925,18.1808163 C4.4775,18.1279592 3.0525,17.7126531 1.8075,17.0104082 L1.8075,17.1312245 C1.8075,21.6542857 4.9875,25.4297959 9.21,26.2906122 C8.4375,26.5020408 7.62,26.6153061 6.78,26.6153061 C6.1875,26.6153061 5.61,26.554898 5.0475,26.4491837 C6.2175,30.1567347 9.63,32.86 13.665,32.9355102 C10.5075,35.442449 6.525,36.93 2.205,36.93 C1.455,36.93 0.72,36.8922449 0,36.8016327 C4.0875,39.4520408 8.94,41 14.1525,41 C31.1325,41 40.4175,26.7663265 40.4175,14.4204082 C40.4175,14.0202041 40.41,13.612449 40.395,13.2122449 C42.195,11.8983673 43.7625,10.2522449 45,8.37959184 C43.3425,9.11959184 41.565,9.6255102 39.6975,9.85204082 Z" id="icTwitterFollow" fill="#2EA7E2" sketch:type="MSShapeGroup"></path>
    </g>
</svg>
