<svg xmlns="http://www.w3.org/2000/svg" width="36" height="30">
  <g fill="none" fill-rule="evenodd">
    <path fill="#BDAFB7" d="M6.11286202 20.0134623l-1.84485263.6714722-.0990541 5.4681139 6.3862565-2.3243986c-2.19041117-.7330827-3.7899832-2.0228595-4.4423499-3.8151875"/>
    <path fill="#9B8993" d="M7.07832238 14.2299936l-6.40102646 2.329792 3.59071347 4.1251489 1.8448526-.6714722c-.6504582-1.7871005-.2493257-3.8072425.9654603-5.7834687"/>
    <path fill="#D5CED2" d="M17.8501101 6.3397962C9.69901174 9.30654195 4.4440455 15.4284539 6.11286202 20.0134623L35.6306493 9.26988677c-1.6688165-4.58502915-9.62942-5.89685705-17.7805392-2.93009056"/>
    <path fill="#84747E" d="M23.8933804 22.9435528c8.1511192-2.9667664 13.4159597-9.0615241 11.7372689-13.67366603L6.11286202 20.0134623c1.67867006 4.6121627 9.62941998 5.8968363 17.78051838 2.9300905"/>
    <path fill="#9B8993" d="M35.6306493 9.26988677L6.11286202 20.0134623c.57799836 1.5880382 2.78214223 2.3704094 5.87480588 2.3704094 3.0151007 0 6.8747017-.7430608 10.8984939-2.2076289 8.1511399-2.9667458 13.885984-7.7701086 12.7444875-10.90635603"/>
    <path fill="#BDAFB7" d="M29.7558434 6.8994566c-3.0151214 0-6.8747017.7430815-10.8985354 2.20762892C10.7062096 12.073852 4.9713448 16.8771941 6.11286202 20.0134623L35.6306493 9.26988677c-.5779984-1.58805897-2.7821422-2.37043016-5.8748059-2.37043016"/>
    <path fill="#84747E" d="M28.1256735 26.4425973h-.0002074c-.86846 0-2.1497108-.7815829-3.8081967-2.3230087-1.9620786-1.823652-4.2096403-4.4947085-6.3287533-7.5210941-2.11903-3.0262611-3.8602649-6.0518169-4.9029355-8.5193719-1.13602-2.6890211-1.2979915-4.34240385-.4814337-4.9142619.179044-.12525407.3948677-.18871088.6414344-.18871088.6642117 0 1.958407.49269782 4.3515936 2.84003957l.0523379.0513006-.0070738.0729577c-.0163673.1686304-.0314484.3387751-.0448907.5057667l-.0266772.3315976-.2347839-.235676c-2.5785785-2.5882453-3.7136649-2.867671-4.0820422-2.867671-.1050491 0-.1887109.02128365-.2486826.06329086-.3541882.2479566-.3769861 1.46241075.7243909 4.06911846 1.024063 2.42357707 2.739969 5.40337097 4.8316373 8.39044607 2.0917513 2.9873656 4.3049189 5.6189457 6.231919 7.4099876 2.077977 1.9312942 3.0143746 2.1398366 3.3205397 2.1398366.1057129 0 .1916151-.022632.2553208-.0672738.3736463-.2615648.3740819-1.5625642-.8541465-4.3682512l-.056383-.1288014.1234286-.0673152c.1234493-.067336.2428328-.1336348.3547897-.1970501l.1478654-.083724.0681658.155603c.8708871 1.9880505 1.6849555 4.5148097.6174955 5.2624342-.1799776.1259594-.3968592.1898311-.6447121.1898311zm-.0002074-.306663h.0003l-.0002.1533211-.0001-.1533211z"/>
    <path fill="#84747E" d="M24.0912603 22.8597251l-.0124051.1528025c-.2060739 2.5404919-.7486617 5.5947579-2.1633813 5.7183731-.0284612.0025308-.0579803.0038377-.0874995.0038377-.9610625 0-1.8703059-1.3719241-2.7024219-4.0777273-.7873083-2.5598463-1.3982486-5.9968446-1.7202831-9.6778372-.3220552-3.6802251-.3172218-7.17107556.0135875-9.82943657.3605774-2.89679596 1.0470477-4.40959462 2.0402225-4.49643025.0293531-.00269676.059785-.00408662.0898435-.00408662.6971951 0 1.7479353.7865408 2.8236101 4.45010823l-.7023604.1350661c-.3591461-1.2242662-.7505495-2.2199925-1.1391109-2.9042017-.3594365-.6328671-.7089156-.981392-.9841302-.981392-.0090446 0-.0181513.0003734-.0271336.0011409-.4304857.03767162-1.0574198 1.0780604-1.4069405 3.8861745-.3249179 2.61066985-.3288386 6.0492032-.011036 9.6821935.3179894 3.6335297.9189517 7.0191651 1.6921331 9.5331457.3462639 1.1259383.7260712 2.0538722 1.0983484 2.6835446.3432974.5806537.6755173.9004478.9354641.9004478.0089408 0 .0178401-.0004149.0267186-.0011617.4118988-.0359706 1.1881297-1.1186155 1.5148316-4.927725l.7219431-.2468364"/>
  </g>
</svg>
