<svg width="290px" height="51px" viewBox="0 0 290 51" version="1.1" xmlns="http://www.w3.org/2000/svg" xmlns:xlink="http://www.w3.org/1999/xlink">
    <g stroke="none" stroke-width="1" fill="none" fill-rule="evenodd">
        <g fill="#574751">
            <path d="M57.0204017,49.9649467 L57.0204017,0 L94.9932182,0 L94.9932182,12.0069199 L70.9751051,12.0069199 L70.9751051,18.0122623 L85.9930046,18.0122623 L85.9930046,29.9873047 L70.9751051,29.9873047 L70.9751051,38.0187225 L94.9932182,38.0187225 L94.9932182,49.9649467 L57.0204017,49.9649467 Z"></path>
            <path d="M125.016674,34.0321388 L131.862205,33.7857143 C134.819518,33.7857143 137.530348,33.4880982 139.994776,32.8928571 C142.459204,32.2976161 144.583274,31.3214354 146.36705,29.9642857 C148.150827,28.6071361 149.53558,26.8333443 150.521351,24.6428571 C151.507122,22.45237 152,19.7619207 152,16.5714286 C152,13.5714136 151.542327,11.0119154 150.626969,8.89285714 C149.71161,6.77379893 148.409003,5.05953036 146.71911,3.75 C145.029216,2.44046964 142.999028,1.48809821 140.628483,0.892857143 C138.257938,0.297616071 135.64099,0 132.777559,0 L125.626843,0 L111,0 L111,50 L125.016674,50 L125.016674,34.0321388 Z M125,11 L132.285968,11 C134.760957,11 136.498689,11.5350265 137.499216,12.6050955 C138.499744,13.6751646 139,15.1019019 139,16.8853503 C139,18.9235771 138.473415,20.4522242 137.420228,21.4713376 C136.367041,22.490451 134.57665,23 132.049002,23 L125,23 L125,11 L125,11 Z"></path>
            <path d="M166.001163,50.005867 L166.001163,0 L180.004851,0 L180.004851,38.0086517 L201.992,38.0086517 L201.992,50.005867 L166.001163,50.005867 Z"></path>
            <path d="M279.020744,49.9888916 L258.979614,21.9979858 L258.979614,49.9888916 L245.990723,49.9888916 L245.990723,0 L258.184,0 L277.009998,26.9943256 L277.009998,0 L289.991013,0 L289.991013,49.9888916 L279.020744,49.9888916 Z"></path>
            <path d="M8.52651283e-14,50.0225792 L8.52651283e-14,39.8605263 C8.52651283e-14,39.8605263 22.925481,12.6289504 23.4968387,12.0131579 C23.492492,12.0289286 8.52651283e-14,12.0131578 8.52651283e-14,12.0131578 L8.52651283e-14,0 L40.994709,0 L40.994709,10.9743786 C40.994709,10.9743786 19.5581512,37.3407199 18.9867935,37.9565125 L40.994709,38.0464439 L40.994709,50.0225792 L8.52651283e-14,50.0225792 Z"></path>
            <rect x="216" y="0" width="14" height="50"></rect>
        </g>
    </g>
</svg>
