<?xml version="1.0" encoding="UTF-8"?>
<!-- Generator: Adobe Illustrator 19.1.0, SVG Export Plug-In . SVG Version: 6.00 Build 0)  -->
<svg version="1.0" id="Layer_1" xmlns="http://www.w3.org/2000/svg" xmlns:xlink="http://www.w3.org/1999/xlink" x="0px" y="0px" viewBox="0 0 30 30" style="enable-background:new 0 0 30 30;" xml:space="preserve">
<style type="text/css">
	.st0{fill:#D1D1D1;}
	.st1{fill:#197BCE;}
	.st2{fill:#666666;}
	.st3{fill:#FFB3FF;}
	.st4{fill:#F94DFF;}
</style>
<g>
	<path class="st3" d="M21.4,22.5l-6.1-6.1c0.3-0.4,0.5-0.9,0.5-1.4c0-0.4-0.1-0.8-0.3-1.1l6.1-6.2c0.9,0.6,2,0.5,2.8-0.3   c0.9-0.9,0.9-2.3,0-3.2s-2.3-0.9-3.1,0C20.5,5,20.5,6.2,21,7l-6,6c-0.5-0.1-0.9-0.3-1.4-0.3c-1.2,0-2.1,1-2.1,2.2s1,2.2,2.1,2.2   c0.4,0,0.7-0.1,1-0.2l6.2,6.2c-0.5,0.8-0.3,1.9,0.4,2.7c0.9,0.9,2.3,0.9,3.1,0c0.9-0.9,0.9-2.3,0-3.2   C23.5,21.8,22.2,21.8,21.4,22.5z"/>
	<path class="st4" d="M13.6,6.3C8.8,6.3,5,10.2,5,15s3.9,8.6,8.6,8.6s8.6-3.9,8.6-8.6S18.3,6.3,13.6,6.3z M13.6,21.8   c-3.8,0-6.8-3.1-6.8-6.8c0-3.8,3.1-6.8,6.8-6.8c3.8,0,6.8,3.1,6.8,6.8C20.5,18.8,17.4,21.8,13.6,21.8z"/>
</g>
</svg>